<svg width="315" height="66" viewBox="0 0 315 66" fill="none" xmlns="http://www.w3.org/2000/svg">
<circle cx="33" cy="33" r="33" fill="url(#paint0_radial_59_7)"/>
<path d="M97.1591 29H95.0455C94.9205 28.392 94.7017 27.858 94.3892 27.3977C94.0824 26.9375 93.7074 26.5511 93.2642 26.2386C92.8267 25.9205 92.3409 25.6818 91.8068 25.5227C91.2727 25.3636 90.7159 25.2841 90.1364 25.2841C89.0795 25.2841 88.1222 25.5511 87.2642 26.0852C86.4119 26.6193 85.733 27.4062 85.2273 28.446C84.7273 29.4858 84.4773 30.7614 84.4773 32.2727C84.4773 33.7841 84.7273 35.0597 85.2273 36.0994C85.733 37.1392 86.4119 37.9261 87.2642 38.4602C88.1222 38.9943 89.0795 39.2614 90.1364 39.2614C90.7159 39.2614 91.2727 39.1818 91.8068 39.0227C92.3409 38.8636 92.8267 38.6278 93.2642 38.3153C93.7074 37.9972 94.0824 37.608 94.3892 37.1477C94.7017 36.6818 94.9205 36.1477 95.0455 35.5455H97.1591C97 36.4375 96.7102 37.2358 96.2898 37.9403C95.8693 38.6449 95.3466 39.2443 94.7216 39.7386C94.0966 40.2273 93.3949 40.5994 92.6165 40.8551C91.8438 41.1108 91.017 41.2386 90.1364 41.2386C88.6477 41.2386 87.3239 40.875 86.1648 40.1477C85.0057 39.4205 84.0938 38.3864 83.429 37.0455C82.7642 35.7045 82.4318 34.1136 82.4318 32.2727C82.4318 30.4318 82.7642 28.8409 83.429 27.5C84.0938 26.1591 85.0057 25.125 86.1648 24.3977C87.3239 23.6705 88.6477 23.3068 90.1364 23.3068C91.017 23.3068 91.8438 23.4347 92.6165 23.6903C93.3949 23.946 94.0966 24.321 94.7216 24.8153C95.3466 25.304 95.8693 25.9006 96.2898 26.6051C96.7102 27.304 97 28.1023 97.1591 29ZM104.154 41.3068C103.325 41.3068 102.572 41.1506 101.896 40.8381C101.219 40.5199 100.683 40.0625 100.285 39.4659C99.8871 38.8636 99.6882 38.1364 99.6882 37.2841C99.6882 36.5341 99.8359 35.9261 100.131 35.4602C100.427 34.9886 100.822 34.6193 101.316 34.3523C101.81 34.0852 102.356 33.8864 102.952 33.7557C103.555 33.6193 104.16 33.5114 104.768 33.4318C105.563 33.3295 106.208 33.2528 106.702 33.2017C107.202 33.1449 107.566 33.0511 107.793 32.9205C108.026 32.7898 108.143 32.5625 108.143 32.2386V32.1705C108.143 31.3295 107.913 30.6761 107.452 30.2102C106.998 29.7443 106.308 29.5114 105.381 29.5114C104.421 29.5114 103.668 29.7216 103.123 30.142C102.577 30.5625 102.194 31.0114 101.972 31.4886L100.063 30.8068C100.404 30.0114 100.859 29.392 101.427 28.9489C102.001 28.5 102.626 28.1875 103.302 28.0114C103.984 27.8295 104.654 27.7386 105.313 27.7386C105.734 27.7386 106.217 27.7898 106.762 27.892C107.313 27.9886 107.844 28.1903 108.356 28.4972C108.873 28.804 109.302 29.267 109.643 29.8864C109.984 30.5057 110.154 31.3352 110.154 32.375V41H108.143V39.2273H108.04C107.904 39.5114 107.677 39.8153 107.359 40.1392C107.04 40.4631 106.617 40.7386 106.089 40.9659C105.56 41.1932 104.915 41.3068 104.154 41.3068ZM104.461 39.5C105.256 39.5 105.927 39.3438 106.472 39.0312C107.023 38.7188 107.438 38.3153 107.717 37.821C108.001 37.3267 108.143 36.8068 108.143 36.2614V34.4205C108.058 34.5227 107.87 34.6165 107.58 34.7017C107.296 34.7812 106.967 34.8523 106.592 34.9148C106.222 34.9716 105.862 35.0227 105.509 35.0682C105.163 35.108 104.881 35.142 104.665 35.1705C104.143 35.2386 103.654 35.3494 103.2 35.5028C102.751 35.6506 102.387 35.875 102.109 36.1761C101.836 36.4716 101.7 36.875 101.7 37.3864C101.7 38.0852 101.958 38.6136 102.475 38.9716C102.998 39.3239 103.66 39.5 104.461 39.5ZM113.825 41V27.9091H115.768V29.8864H115.905C116.143 29.2386 116.575 28.7131 117.2 28.3097C117.825 27.9062 118.53 27.7045 119.314 27.7045C119.462 27.7045 119.646 27.7074 119.868 27.7131C120.089 27.7187 120.257 27.7273 120.371 27.7386V29.7841C120.303 29.767 120.146 29.7415 119.902 29.7074C119.663 29.6676 119.411 29.6477 119.143 29.6477C118.507 29.6477 117.939 29.7812 117.439 30.0483C116.945 30.3097 116.553 30.6733 116.263 31.1392C115.979 31.5994 115.837 32.125 115.837 32.7159V41H113.825ZM127.845 41.2727C126.584 41.2727 125.496 40.9943 124.581 40.4375C123.672 39.875 122.97 39.0909 122.476 38.0852C121.987 37.0739 121.743 35.8977 121.743 34.5568C121.743 33.2159 121.987 32.0341 122.476 31.0114C122.97 29.983 123.658 29.1818 124.538 28.608C125.425 28.0284 126.459 27.7386 127.641 27.7386C128.322 27.7386 128.996 27.8523 129.661 28.0795C130.325 28.3068 130.93 28.6761 131.476 29.1875C132.021 29.6932 132.456 30.3636 132.78 31.1989C133.104 32.0341 133.266 33.0625 133.266 34.2841V35.1364H123.175V33.3977H131.22C131.22 32.6591 131.072 32 130.777 31.4205C130.487 30.8409 130.072 30.3835 129.533 30.0483C128.999 29.7131 128.368 29.5455 127.641 29.5455C126.839 29.5455 126.146 29.7443 125.561 30.142C124.982 30.5341 124.536 31.0455 124.223 31.6761C123.911 32.3068 123.754 32.983 123.754 33.7045V34.8636C123.754 35.8523 123.925 36.6903 124.266 37.3778C124.612 38.0597 125.092 38.5795 125.706 38.9375C126.32 39.2898 127.033 39.4659 127.845 39.4659C128.374 39.4659 128.851 39.392 129.277 39.2443C129.709 39.0909 130.081 38.8636 130.393 38.5625C130.706 38.2557 130.947 37.875 131.118 37.4205L133.061 37.9659C132.857 38.625 132.513 39.2045 132.03 39.7045C131.547 40.1989 130.95 40.5852 130.24 40.8636C129.53 41.1364 128.732 41.2727 127.845 41.2727ZM141.814 41.2727C140.553 41.2727 139.464 40.9943 138.55 40.4375C137.641 39.875 136.939 39.0909 136.445 38.0852C135.956 37.0739 135.712 35.8977 135.712 34.5568C135.712 33.2159 135.956 32.0341 136.445 31.0114C136.939 29.983 137.626 29.1818 138.507 28.608C139.393 28.0284 140.428 27.7386 141.609 27.7386C142.291 27.7386 142.964 27.8523 143.629 28.0795C144.294 28.3068 144.899 28.6761 145.445 29.1875C145.99 29.6932 146.425 30.3636 146.749 31.1989C147.072 32.0341 147.234 33.0625 147.234 34.2841V35.1364H137.143V33.3977H145.189C145.189 32.6591 145.041 32 144.746 31.4205C144.456 30.8409 144.041 30.3835 143.501 30.0483C142.967 29.7131 142.337 29.5455 141.609 29.5455C140.808 29.5455 140.115 29.7443 139.53 30.142C138.95 30.5341 138.504 31.0455 138.192 31.6761C137.879 32.3068 137.723 32.983 137.723 33.7045V34.8636C137.723 35.8523 137.893 36.6903 138.234 37.3778C138.581 38.0597 139.061 38.5795 139.675 38.9375C140.288 39.2898 141.001 39.4659 141.814 39.4659C142.342 39.4659 142.82 39.392 143.246 39.2443C143.678 39.0909 144.05 38.8636 144.362 38.5625C144.675 38.2557 144.916 37.875 145.087 37.4205L147.03 37.9659C146.825 38.625 146.482 39.2045 145.999 39.7045C145.516 40.1989 144.919 40.5852 144.209 40.8636C143.499 41.1364 142.7 41.2727 141.814 41.2727ZM150.294 41V27.9091H152.237V29.8864H152.374C152.612 29.2386 153.044 28.7131 153.669 28.3097C154.294 27.9062 154.999 27.7045 155.783 27.7045C155.93 27.7045 156.115 27.7074 156.337 27.7131C156.558 27.7187 156.726 27.7273 156.839 27.7386V29.7841C156.771 29.767 156.615 29.7415 156.371 29.7074C156.132 29.6676 155.879 29.6477 155.612 29.6477C154.976 29.6477 154.408 29.7812 153.908 30.0483C153.413 30.3097 153.021 30.6733 152.732 31.1392C152.447 31.5994 152.305 32.125 152.305 32.7159V41H150.294ZM171.633 41H166.246V23.5455H171.871C173.565 23.5455 175.013 23.8949 176.218 24.5938C177.423 25.2869 178.346 26.2841 178.988 27.5852C179.63 28.8807 179.951 30.4318 179.951 32.2386C179.951 34.0568 179.627 35.6222 178.979 36.9347C178.332 38.2415 177.388 39.2472 176.15 39.9517C174.911 40.6506 173.406 41 171.633 41ZM168.36 39.125H171.496C172.94 39.125 174.136 38.8466 175.085 38.2898C176.033 37.733 176.741 36.9403 177.207 35.9119C177.673 34.8835 177.906 33.6591 177.906 32.2386C177.906 30.8295 177.675 29.6165 177.215 28.5994C176.755 27.5767 176.067 26.7926 175.153 26.2472C174.238 25.696 173.099 25.4205 171.735 25.4205H168.36V39.125ZM188.712 41.2727C187.451 41.2727 186.363 40.9943 185.448 40.4375C184.539 39.875 183.837 39.0909 183.343 38.0852C182.854 37.0739 182.61 35.8977 182.61 34.5568C182.61 33.2159 182.854 32.0341 183.343 31.0114C183.837 29.983 184.525 29.1818 185.406 28.608C186.292 28.0284 187.326 27.7386 188.508 27.7386C189.19 27.7386 189.863 27.8523 190.528 28.0795C191.192 28.3068 191.798 28.6761 192.343 29.1875C192.888 29.6932 193.323 30.3636 193.647 31.1989C193.971 32.0341 194.133 33.0625 194.133 34.2841V35.1364H184.042V33.3977H192.087C192.087 32.6591 191.94 32 191.644 31.4205C191.354 30.8409 190.94 30.3835 190.4 30.0483C189.866 29.7131 189.235 29.5455 188.508 29.5455C187.707 29.5455 187.013 29.7443 186.428 30.142C185.849 30.5341 185.403 31.0455 185.09 31.6761C184.778 32.3068 184.621 32.983 184.621 33.7045V34.8636C184.621 35.8523 184.792 36.6903 185.133 37.3778C185.479 38.0597 185.96 38.5795 186.573 38.9375C187.187 39.2898 187.9 39.4659 188.712 39.4659C189.241 39.4659 189.718 39.392 190.144 39.2443C190.576 39.0909 190.948 38.8636 191.261 38.5625C191.573 38.2557 191.815 37.875 191.985 37.4205L193.928 37.9659C193.724 38.625 193.38 39.2045 192.897 39.7045C192.414 40.1989 191.817 40.5852 191.107 40.8636C190.397 41.1364 189.599 41.2727 188.712 41.2727ZM207.499 27.9091L202.658 41H200.612L195.771 27.9091H197.953L201.567 38.3409H201.703L205.317 27.9091H207.499ZM215.173 41.2727C213.912 41.2727 212.824 40.9943 211.909 40.4375C211 39.875 210.298 39.0909 209.804 38.0852C209.315 37.0739 209.071 35.8977 209.071 34.5568C209.071 33.2159 209.315 32.0341 209.804 31.0114C210.298 29.983 210.986 29.1818 211.866 28.608C212.753 28.0284 213.787 27.7386 214.969 27.7386C215.651 27.7386 216.324 27.8523 216.989 28.0795C217.653 28.3068 218.259 28.6761 218.804 29.1875C219.349 29.6932 219.784 30.3636 220.108 31.1989C220.432 32.0341 220.594 33.0625 220.594 34.2841V35.1364H210.503V33.3977H218.548C218.548 32.6591 218.401 32 218.105 31.4205C217.815 30.8409 217.401 30.3835 216.861 30.0483C216.327 29.7131 215.696 29.5455 214.969 29.5455C214.168 29.5455 213.474 29.7443 212.889 30.142C212.31 30.5341 211.864 31.0455 211.551 31.6761C211.239 32.3068 211.082 32.983 211.082 33.7045V34.8636C211.082 35.8523 211.253 36.6903 211.594 37.3778C211.94 38.0597 212.42 38.5795 213.034 38.9375C213.648 39.2898 214.361 39.4659 215.173 39.4659C215.702 39.4659 216.179 39.392 216.605 39.2443C217.037 39.0909 217.409 38.8636 217.722 38.5625C218.034 38.2557 218.276 37.875 218.446 37.4205L220.389 37.9659C220.185 38.625 219.841 39.2045 219.358 39.7045C218.875 40.1989 218.278 40.5852 217.568 40.8636C216.858 41.1364 216.06 41.2727 215.173 41.2727ZM225.665 23.5455V41H223.653V23.5455H225.665ZM234.667 41.2727C233.485 41.2727 232.448 40.9915 231.556 40.429C230.67 39.8665 229.977 39.0795 229.477 38.0682C228.982 37.0568 228.735 35.875 228.735 34.5227C228.735 33.1591 228.982 31.9687 229.477 30.9517C229.977 29.9347 230.67 29.1449 231.556 28.5824C232.448 28.0199 233.485 27.7386 234.667 27.7386C235.849 27.7386 236.883 28.0199 237.769 28.5824C238.661 29.1449 239.354 29.9347 239.849 30.9517C240.349 31.9687 240.599 33.1591 240.599 34.5227C240.599 35.875 240.349 37.0568 239.849 38.0682C239.354 39.0795 238.661 39.8665 237.769 40.429C236.883 40.9915 235.849 41.2727 234.667 41.2727ZM234.667 39.4659C235.565 39.4659 236.303 39.2358 236.883 38.7756C237.462 38.3153 237.891 37.7102 238.17 36.9602C238.448 36.2102 238.587 35.3977 238.587 34.5227C238.587 33.6477 238.448 32.8324 238.17 32.0767C237.891 31.321 237.462 30.7102 236.883 30.2443C236.303 29.7784 235.565 29.5455 234.667 29.5455C233.769 29.5455 233.031 29.7784 232.451 30.2443C231.871 30.7102 231.442 31.321 231.164 32.0767C230.886 32.8324 230.746 33.6477 230.746 34.5227C230.746 35.3977 230.886 36.2102 231.164 36.9602C231.442 37.7102 231.871 38.3153 232.451 38.7756C233.031 39.2358 233.769 39.4659 234.667 39.4659ZM243.669 45.9091V27.9091H245.612V29.9886H245.851C245.999 29.7614 246.203 29.4716 246.464 29.1193C246.732 28.7614 247.112 28.4432 247.607 28.1648C248.107 27.8807 248.783 27.7386 249.635 27.7386C250.737 27.7386 251.709 28.0142 252.55 28.5653C253.391 29.1165 254.047 29.8977 254.518 30.9091C254.99 31.9205 255.226 33.1136 255.226 34.4886C255.226 35.875 254.99 37.0767 254.518 38.0938C254.047 39.1051 253.393 39.8892 252.558 40.446C251.723 40.9972 250.76 41.2727 249.669 41.2727C248.828 41.2727 248.155 41.1335 247.649 40.8551C247.143 40.571 246.754 40.25 246.482 39.892C246.209 39.5284 245.999 39.2273 245.851 38.9886H245.68V45.9091H243.669ZM245.646 34.4545C245.646 35.4432 245.791 36.3153 246.081 37.071C246.371 37.821 246.794 38.4091 247.351 38.8352C247.908 39.2557 248.589 39.4659 249.396 39.4659C250.237 39.4659 250.939 39.2443 251.501 38.8011C252.07 38.3523 252.496 37.75 252.78 36.9943C253.07 36.233 253.214 35.3864 253.214 34.4545C253.214 33.5341 253.072 32.7045 252.788 31.9659C252.51 31.2216 252.087 30.6335 251.518 30.2017C250.956 29.7642 250.249 29.5455 249.396 29.5455C248.578 29.5455 247.891 29.7528 247.334 30.1676C246.777 30.5767 246.357 31.1506 246.072 31.8892C245.788 32.6222 245.646 33.4773 245.646 34.4545ZM258.294 41V27.9091H260.237V29.9545H260.408C260.68 29.2557 261.121 28.7131 261.729 28.3267C262.337 27.9347 263.067 27.7386 263.919 27.7386C264.783 27.7386 265.501 27.9347 266.075 28.3267C266.655 28.7131 267.107 29.2557 267.43 29.9545H267.567C267.902 29.2784 268.405 28.7415 269.075 28.3438C269.746 27.9403 270.55 27.7386 271.487 27.7386C272.658 27.7386 273.615 28.1051 274.359 28.8381C275.104 29.5653 275.476 30.6989 275.476 32.2386V41H273.464V32.2386C273.464 31.2727 273.2 30.5824 272.672 30.1676C272.143 29.7528 271.521 29.5455 270.805 29.5455C269.885 29.5455 269.172 29.8239 268.666 30.3807C268.161 30.9318 267.908 31.6307 267.908 32.4773V41H265.862V32.0341C265.862 31.2898 265.621 30.6903 265.138 30.2358C264.655 29.7756 264.033 29.5455 263.271 29.5455C262.749 29.5455 262.26 29.6847 261.805 29.9631C261.357 30.2415 260.993 30.6278 260.714 31.1222C260.442 31.6108 260.305 32.1761 260.305 32.8182V41H258.294ZM284.642 41.2727C283.381 41.2727 282.293 40.9943 281.378 40.4375C280.469 39.875 279.767 39.0909 279.273 38.0852C278.784 37.0739 278.54 35.8977 278.54 34.5568C278.54 33.2159 278.784 32.0341 279.273 31.0114C279.767 29.983 280.455 29.1818 281.335 28.608C282.222 28.0284 283.256 27.7386 284.438 27.7386C285.119 27.7386 285.793 27.8523 286.457 28.0795C287.122 28.3068 287.727 28.6761 288.273 29.1875C288.818 29.6932 289.253 30.3636 289.577 31.1989C289.901 32.0341 290.062 33.0625 290.062 34.2841V35.1364H279.972V33.3977H288.017C288.017 32.6591 287.869 32 287.574 31.4205C287.284 30.8409 286.869 30.3835 286.33 30.0483C285.795 29.7131 285.165 29.5455 284.438 29.5455C283.636 29.5455 282.943 29.7443 282.358 30.142C281.778 30.5341 281.332 31.0455 281.02 31.6761C280.707 32.3068 280.551 32.983 280.551 33.7045V34.8636C280.551 35.8523 280.722 36.6903 281.062 37.3778C281.409 38.0597 281.889 38.5795 282.503 38.9375C283.116 39.2898 283.83 39.4659 284.642 39.4659C285.17 39.4659 285.648 39.392 286.074 39.2443C286.506 39.0909 286.878 38.8636 287.19 38.5625C287.503 38.2557 287.744 37.875 287.915 37.4205L289.858 37.9659C289.653 38.625 289.31 39.2045 288.827 39.7045C288.344 40.1989 287.747 40.5852 287.037 40.8636C286.327 41.1364 285.528 41.2727 284.642 41.2727ZM295.134 33.125V41H293.122V27.9091H295.065V29.9545H295.236C295.543 29.2898 296.009 28.7557 296.634 28.3523C297.259 27.9432 298.065 27.7386 299.054 27.7386C299.94 27.7386 300.716 27.9205 301.381 28.2841C302.045 28.642 302.563 29.1875 302.932 29.9205C303.301 30.6477 303.486 31.5682 303.486 32.6818V41H301.474V32.8182C301.474 31.7898 301.207 30.9886 300.673 30.4148C300.139 29.8352 299.406 29.5455 298.474 29.5455C297.832 29.5455 297.259 29.6847 296.753 29.9631C296.253 30.2415 295.858 30.6477 295.568 31.1818C295.278 31.7159 295.134 32.3636 295.134 33.125ZM312.854 27.9091V29.6136H306.07V27.9091H312.854ZM308.048 24.7727H310.059V37.25C310.059 37.8182 310.141 38.2443 310.306 38.5284C310.477 38.8068 310.692 38.9943 310.954 39.0909C311.221 39.1818 311.502 39.2273 311.798 39.2273C312.019 39.2273 312.201 39.2159 312.343 39.1932C312.485 39.1648 312.599 39.142 312.684 39.125L313.093 40.9318C312.957 40.983 312.766 41.0341 312.522 41.0852C312.278 41.142 311.968 41.1705 311.593 41.1705C311.025 41.1705 310.468 41.0483 309.923 40.804C309.383 40.5597 308.934 40.1875 308.576 39.6875C308.224 39.1875 308.048 38.5568 308.048 37.7955V24.7727Z" fill="black"/>
<path d="M81 45.7727H242.036V47.4091H81V45.7727ZM247.316 45.7727H314.048V47.4091H247.316V45.7727Z" fill="black"/>
<defs>
<radialGradient id="paint0_radial_59_7" cx="0" cy="0" r="1" gradientUnits="userSpaceOnUse" gradientTransform="translate(73.5122 -19.7195) rotate(127.54) scale(66.4875)">
<stop stop-color="white"/>
<stop offset="1" stop-color="#9F00BC"/>
</radialGradient>
</defs>
</svg>
