<svg width="287" height="66" viewBox="0 0 287 66" fill="none" xmlns="http://www.w3.org/2000/svg">
<circle cx="33" cy="33" r="33" fill="url(#paint0_radial_59_5)"/>
<path d="M97.1591 29H95.0455C94.9205 28.392 94.7017 27.858 94.3892 27.3977C94.0824 26.9375 93.7074 26.5511 93.2642 26.2386C92.8267 25.9205 92.3409 25.6818 91.8068 25.5227C91.2727 25.3636 90.7159 25.2841 90.1364 25.2841C89.0795 25.2841 88.1222 25.5511 87.2642 26.0852C86.4119 26.6193 85.733 27.4062 85.2273 28.446C84.7273 29.4858 84.4773 30.7614 84.4773 32.2727C84.4773 33.7841 84.7273 35.0597 85.2273 36.0994C85.733 37.1392 86.4119 37.9261 87.2642 38.4602C88.1222 38.9943 89.0795 39.2614 90.1364 39.2614C90.7159 39.2614 91.2727 39.1818 91.8068 39.0227C92.3409 38.8636 92.8267 38.6278 93.2642 38.3153C93.7074 37.9972 94.0824 37.608 94.3892 37.1477C94.7017 36.6818 94.9205 36.1477 95.0455 35.5455H97.1591C97 36.4375 96.7102 37.2358 96.2898 37.9403C95.8693 38.6449 95.3466 39.2443 94.7216 39.7386C94.0966 40.2273 93.3949 40.5994 92.6165 40.8551C91.8438 41.1108 91.017 41.2386 90.1364 41.2386C88.6477 41.2386 87.3239 40.875 86.1648 40.1477C85.0057 39.4205 84.0938 38.3864 83.429 37.0455C82.7642 35.7045 82.4318 34.1136 82.4318 32.2727C82.4318 30.4318 82.7642 28.8409 83.429 27.5C84.0938 26.1591 85.0057 25.125 86.1648 24.3977C87.3239 23.6705 88.6477 23.3068 90.1364 23.3068C91.017 23.3068 91.8438 23.4347 92.6165 23.6903C93.3949 23.946 94.0966 24.321 94.7216 24.8153C95.3466 25.304 95.8693 25.9006 96.2898 26.6051C96.7102 27.304 97 28.1023 97.1591 29ZM100.302 41V27.9091H102.313V41H100.302ZM101.325 25.7273C100.933 25.7273 100.594 25.5938 100.31 25.3267C100.032 25.0597 99.8928 24.7386 99.8928 24.3636C99.8928 23.9886 100.032 23.6676 100.31 23.4006C100.594 23.1335 100.933 23 101.325 23C101.717 23 102.052 23.1335 102.33 23.4006C102.614 23.6676 102.756 23.9886 102.756 24.3636C102.756 24.7386 102.614 25.0597 102.33 25.3267C102.052 25.5938 101.717 25.7273 101.325 25.7273ZM116.702 27.9091L111.861 41H109.815L104.974 27.9091H107.156L110.77 38.3409H110.906L114.52 27.9091H116.702ZM119.357 41V27.9091H121.368V41H119.357ZM120.379 25.7273C119.987 25.7273 119.649 25.5938 119.365 25.3267C119.087 25.0597 118.947 24.7386 118.947 24.3636C118.947 23.9886 119.087 23.6676 119.365 23.4006C119.649 23.1335 119.987 23 120.379 23C120.771 23 121.107 23.1335 121.385 23.4006C121.669 23.6676 121.811 23.9886 121.811 24.3636C121.811 24.7386 121.669 25.0597 121.385 25.3267C121.107 25.5938 120.771 25.7273 120.379 25.7273ZM130.37 41.2727C129.143 41.2727 128.086 40.983 127.2 40.4034C126.313 39.8239 125.631 39.0256 125.154 38.0085C124.677 36.9915 124.438 35.8295 124.438 34.5227C124.438 33.1932 124.683 32.0199 125.171 31.0028C125.665 29.9801 126.353 29.1818 127.234 28.608C128.12 28.0284 129.154 27.7386 130.336 27.7386C131.256 27.7386 132.086 27.9091 132.825 28.25C133.563 28.5909 134.168 29.0682 134.64 29.6818C135.112 30.2955 135.404 31.0114 135.518 31.8295H133.506C133.353 31.233 133.012 30.7045 132.484 30.2443C131.961 29.7784 131.256 29.5455 130.37 29.5455C129.586 29.5455 128.898 29.75 128.308 30.1591C127.722 30.5625 127.265 31.1335 126.935 31.8722C126.612 32.6051 126.45 33.4659 126.45 34.4545C126.45 35.4659 126.609 36.3466 126.927 37.0966C127.251 37.8466 127.705 38.429 128.29 38.8438C128.881 39.2585 129.575 39.4659 130.37 39.4659C130.893 39.4659 131.367 39.375 131.793 39.1932C132.219 39.0114 132.58 38.75 132.876 38.4091C133.171 38.0682 133.381 37.6591 133.506 37.1818H135.518C135.404 37.9545 135.123 38.6506 134.674 39.2699C134.231 39.8835 133.643 40.3722 132.91 40.7358C132.183 41.0938 131.336 41.2727 130.37 41.2727ZM145.481 41V23.5455H156.015V25.4205H147.594V31.3182H155.469V33.1932H147.594V39.125H156.151V41H145.481ZM161.563 33.125V41H159.552V27.9091H161.495V29.9545H161.665C161.972 29.2898 162.438 28.7557 163.063 28.3523C163.688 27.9432 164.495 27.7386 165.484 27.7386C166.37 27.7386 167.146 27.9205 167.81 28.2841C168.475 28.642 168.992 29.1875 169.362 29.9205C169.731 30.6477 169.915 31.5682 169.915 32.6818V41H167.904V32.8182C167.904 31.7898 167.637 30.9886 167.103 30.4148C166.569 29.8352 165.836 29.5455 164.904 29.5455C164.262 29.5455 163.688 29.6847 163.183 29.9631C162.683 30.2415 162.288 30.6477 161.998 31.1818C161.708 31.7159 161.563 32.3636 161.563 33.125ZM178.875 46.1818C177.903 46.1818 177.068 46.0568 176.369 45.8068C175.67 45.5625 175.088 45.2386 174.622 44.8352C174.162 44.4375 173.795 44.0114 173.523 43.5568L175.125 42.4318C175.307 42.6705 175.537 42.9432 175.815 43.25C176.094 43.5625 176.474 43.8324 176.957 44.0597C177.446 44.2926 178.085 44.4091 178.875 44.4091C179.932 44.4091 180.804 44.1534 181.491 43.642C182.179 43.1307 182.523 42.3295 182.523 41.2386V38.5795H182.352C182.205 38.8182 181.994 39.1136 181.722 39.4659C181.455 39.8125 181.068 40.1222 180.562 40.3949C180.062 40.6619 179.386 40.7955 178.534 40.7955C177.477 40.7955 176.528 40.5455 175.688 40.0455C174.852 39.5455 174.19 38.8182 173.702 37.8636C173.219 36.9091 172.977 35.75 172.977 34.3864C172.977 33.0455 173.213 31.8778 173.685 30.8835C174.156 29.8835 174.813 29.1108 175.653 28.5653C176.494 28.0142 177.466 27.7386 178.568 27.7386C179.42 27.7386 180.097 27.8807 180.597 28.1648C181.102 28.4432 181.489 28.7614 181.756 29.1193C182.028 29.4716 182.239 29.7614 182.386 29.9886H182.591V27.9091H184.534V41.375C184.534 42.5 184.278 43.4148 183.767 44.1193C183.261 44.8295 182.58 45.3494 181.722 45.679C180.869 46.0142 179.92 46.1818 178.875 46.1818ZM178.807 38.9886C179.614 38.9886 180.295 38.804 180.852 38.4347C181.409 38.0653 181.832 37.5341 182.122 36.8409C182.412 36.1477 182.557 35.3182 182.557 34.3523C182.557 33.4091 182.415 32.5767 182.131 31.8551C181.847 31.1335 181.426 30.5682 180.869 30.1591C180.313 29.75 179.625 29.5455 178.807 29.5455C177.955 29.5455 177.244 29.7614 176.676 30.1932C176.114 30.625 175.69 31.2045 175.406 31.9318C175.128 32.6591 174.989 33.4659 174.989 34.3523C174.989 35.2614 175.131 36.0653 175.415 36.7642C175.705 37.4574 176.131 38.0028 176.693 38.4006C177.261 38.7926 177.966 38.9886 178.807 38.9886ZM192.068 41.3068C191.239 41.3068 190.486 41.1506 189.81 40.8381C189.134 40.5199 188.597 40.0625 188.199 39.4659C187.801 38.8636 187.602 38.1364 187.602 37.2841C187.602 36.5341 187.75 35.9261 188.045 35.4602C188.341 34.9886 188.736 34.6193 189.23 34.3523C189.724 34.0852 190.27 33.8864 190.866 33.7557C191.469 33.6193 192.074 33.5114 192.682 33.4318C193.477 33.3295 194.122 33.2528 194.616 33.2017C195.116 33.1449 195.48 33.0511 195.707 32.9205C195.94 32.7898 196.057 32.5625 196.057 32.2386V32.1705C196.057 31.3295 195.827 30.6761 195.366 30.2102C194.912 29.7443 194.222 29.5114 193.295 29.5114C192.335 29.5114 191.582 29.7216 191.037 30.142C190.491 30.5625 190.108 31.0114 189.886 31.4886L187.977 30.8068C188.318 30.0114 188.773 29.392 189.341 28.9489C189.915 28.5 190.54 28.1875 191.216 28.0114C191.898 27.8295 192.568 27.7386 193.227 27.7386C193.648 27.7386 194.131 27.7898 194.676 27.892C195.227 27.9886 195.759 28.1903 196.27 28.4972C196.787 28.804 197.216 29.267 197.557 29.8864C197.898 30.5057 198.068 31.3352 198.068 32.375V41H196.057V39.2273H195.955C195.818 39.5114 195.591 39.8153 195.273 40.1392C194.955 40.4631 194.531 40.7386 194.003 40.9659C193.474 41.1932 192.83 41.3068 192.068 41.3068ZM192.375 39.5C193.17 39.5 193.841 39.3438 194.386 39.0312C194.938 38.7188 195.352 38.3153 195.631 37.821C195.915 37.3267 196.057 36.8068 196.057 36.2614V34.4205C195.972 34.5227 195.784 34.6165 195.494 34.7017C195.21 34.7812 194.881 34.8523 194.506 34.9148C194.136 34.9716 193.776 35.0227 193.423 35.0682C193.077 35.108 192.795 35.142 192.58 35.1705C192.057 35.2386 191.568 35.3494 191.114 35.5028C190.665 35.6506 190.301 35.875 190.023 36.1761C189.75 36.4716 189.614 36.875 189.614 37.3864C189.614 38.0852 189.872 38.6136 190.389 38.9716C190.912 39.3239 191.574 39.5 192.375 39.5ZM207.023 46.1818C206.052 46.1818 205.217 46.0568 204.518 45.8068C203.819 45.5625 203.237 45.2386 202.771 44.8352C202.31 44.4375 201.944 44.0114 201.671 43.5568L203.273 42.4318C203.455 42.6705 203.685 42.9432 203.964 43.25C204.242 43.5625 204.623 43.8324 205.106 44.0597C205.594 44.2926 206.234 44.4091 207.023 44.4091C208.08 44.4091 208.952 44.1534 209.64 43.642C210.327 43.1307 210.671 42.3295 210.671 41.2386V38.5795H210.501C210.353 38.8182 210.143 39.1136 209.87 39.4659C209.603 39.8125 209.217 40.1222 208.711 40.3949C208.211 40.6619 207.535 40.7955 206.683 40.7955C205.626 40.7955 204.677 40.5455 203.836 40.0455C203.001 39.5455 202.339 38.8182 201.85 37.8636C201.367 36.9091 201.126 35.75 201.126 34.3864C201.126 33.0455 201.362 31.8778 201.833 30.8835C202.305 29.8835 202.961 29.1108 203.802 28.5653C204.643 28.0142 205.614 27.7386 206.717 27.7386C207.569 27.7386 208.245 27.8807 208.745 28.1648C209.251 28.4432 209.637 28.7614 209.904 29.1193C210.177 29.4716 210.387 29.7614 210.535 29.9886H210.739V27.9091H212.683V41.375C212.683 42.5 212.427 43.4148 211.915 44.1193C211.41 44.8295 210.728 45.3494 209.87 45.679C209.018 46.0142 208.069 46.1818 207.023 46.1818ZM206.955 38.9886C207.762 38.9886 208.444 38.804 209.001 38.4347C209.558 38.0653 209.981 37.5341 210.271 36.8409C210.56 36.1477 210.705 35.3182 210.705 34.3523C210.705 33.4091 210.563 32.5767 210.279 31.8551C209.995 31.1335 209.575 30.5682 209.018 30.1591C208.461 29.75 207.773 29.5455 206.955 29.5455C206.103 29.5455 205.393 29.7614 204.825 30.1932C204.262 30.625 203.839 31.2045 203.555 31.9318C203.276 32.6591 203.137 33.4659 203.137 34.3523C203.137 35.2614 203.279 36.0653 203.563 36.7642C203.853 37.4574 204.279 38.0028 204.842 38.4006C205.41 38.7926 206.114 38.9886 206.955 38.9886ZM221.853 41.2727C220.592 41.2727 219.504 40.9943 218.589 40.4375C217.68 39.875 216.978 39.0909 216.484 38.0852C215.995 37.0739 215.751 35.8977 215.751 34.5568C215.751 33.2159 215.995 32.0341 216.484 31.0114C216.978 29.983 217.665 29.1818 218.546 28.608C219.433 28.0284 220.467 27.7386 221.648 27.7386C222.33 27.7386 223.004 27.8523 223.668 28.0795C224.333 28.3068 224.938 28.6761 225.484 29.1875C226.029 29.6932 226.464 30.3636 226.788 31.1989C227.112 32.0341 227.273 33.0625 227.273 34.2841V35.1364H217.183V33.3977H225.228C225.228 32.6591 225.08 32 224.785 31.4205C224.495 30.8409 224.08 30.3835 223.54 30.0483C223.006 29.7131 222.376 29.5455 221.648 29.5455C220.847 29.5455 220.154 29.7443 219.569 30.142C218.989 30.5341 218.543 31.0455 218.231 31.6761C217.918 32.3068 217.762 32.983 217.762 33.7045V34.8636C217.762 35.8523 217.933 36.6903 218.273 37.3778C218.62 38.0597 219.1 38.5795 219.714 38.9375C220.327 39.2898 221.04 39.4659 221.853 39.4659C222.381 39.4659 222.859 39.392 223.285 39.2443C223.717 39.0909 224.089 38.8636 224.401 38.5625C224.714 38.2557 224.955 37.875 225.126 37.4205L227.069 37.9659C226.864 38.625 226.521 39.2045 226.038 39.7045C225.555 40.1989 224.958 40.5852 224.248 40.8636C223.538 41.1364 222.739 41.2727 221.853 41.2727ZM230.333 41V27.9091H232.276V29.9545H232.447C232.719 29.2557 233.16 28.7131 233.768 28.3267C234.376 27.9347 235.106 27.7386 235.958 27.7386C236.822 27.7386 237.54 27.9347 238.114 28.3267C238.694 28.7131 239.146 29.2557 239.469 29.9545H239.606C239.941 29.2784 240.444 28.7415 241.114 28.3438C241.785 27.9403 242.589 27.7386 243.526 27.7386C244.697 27.7386 245.654 28.1051 246.398 28.8381C247.143 29.5653 247.515 30.6989 247.515 32.2386V41H245.504V32.2386C245.504 31.2727 245.239 30.5824 244.711 30.1676C244.183 29.7528 243.56 29.5455 242.844 29.5455C241.924 29.5455 241.211 29.8239 240.705 30.3807C240.2 30.9318 239.947 31.6307 239.947 32.4773V41H237.901V32.0341C237.901 31.2898 237.66 30.6903 237.177 30.2358C236.694 29.7756 236.072 29.5455 235.31 29.5455C234.788 29.5455 234.299 29.6847 233.844 29.9631C233.396 30.2415 233.032 30.6278 232.754 31.1222C232.481 31.6108 232.344 32.1761 232.344 32.8182V41H230.333ZM256.681 41.2727C255.42 41.2727 254.332 40.9943 253.417 40.4375C252.508 39.875 251.806 39.0909 251.312 38.0852C250.823 37.0739 250.579 35.8977 250.579 34.5568C250.579 33.2159 250.823 32.0341 251.312 31.0114C251.806 29.983 252.494 29.1818 253.374 28.608C254.261 28.0284 255.295 27.7386 256.477 27.7386C257.158 27.7386 257.832 27.8523 258.496 28.0795C259.161 28.3068 259.766 28.6761 260.312 29.1875C260.857 29.6932 261.292 30.3636 261.616 31.1989C261.94 32.0341 262.102 33.0625 262.102 34.2841V35.1364H252.011V33.3977H260.056C260.056 32.6591 259.908 32 259.613 31.4205C259.323 30.8409 258.908 30.3835 258.369 30.0483C257.835 29.7131 257.204 29.5455 256.477 29.5455C255.675 29.5455 254.982 29.7443 254.397 30.142C253.817 30.5341 253.371 31.0455 253.059 31.6761C252.746 32.3068 252.59 32.983 252.59 33.7045V34.8636C252.59 35.8523 252.761 36.6903 253.102 37.3778C253.448 38.0597 253.928 38.5795 254.542 38.9375C255.156 39.2898 255.869 39.4659 256.681 39.4659C257.21 39.4659 257.687 39.392 258.113 39.2443C258.545 39.0909 258.917 38.8636 259.229 38.5625C259.542 38.2557 259.783 37.875 259.954 37.4205L261.897 37.9659C261.692 38.625 261.349 39.2045 260.866 39.7045C260.383 40.1989 259.786 40.5852 259.076 40.8636C258.366 41.1364 257.567 41.2727 256.681 41.2727ZM267.173 33.125V41H265.161V27.9091H267.104V29.9545H267.275C267.582 29.2898 268.048 28.7557 268.673 28.3523C269.298 27.9432 270.104 27.7386 271.093 27.7386C271.979 27.7386 272.755 27.9205 273.42 28.2841C274.085 28.642 274.602 29.1875 274.971 29.9205C275.34 30.6477 275.525 31.5682 275.525 32.6818V41H273.513V32.8182C273.513 31.7898 273.246 30.9886 272.712 30.4148C272.178 29.8352 271.445 29.5455 270.513 29.5455C269.871 29.5455 269.298 29.6847 268.792 29.9631C268.292 30.2415 267.897 30.6477 267.607 31.1818C267.317 31.7159 267.173 32.3636 267.173 33.125ZM284.893 27.9091V29.6136H278.109V27.9091H284.893ZM280.087 24.7727H282.098V37.25C282.098 37.8182 282.18 38.2443 282.345 38.5284C282.516 38.8068 282.732 38.9943 282.993 39.0909C283.26 39.1818 283.541 39.2273 283.837 39.2273C284.058 39.2273 284.24 39.2159 284.382 39.1932C284.524 39.1648 284.638 39.142 284.723 39.125L285.132 40.9318C284.996 40.983 284.805 41.0341 284.561 41.0852C284.317 41.142 284.007 41.1705 283.632 41.1705C283.064 41.1705 282.507 41.0483 281.962 40.804C281.422 40.5597 280.973 40.1875 280.615 39.6875C280.263 39.1875 280.087 38.5568 280.087 37.7955V24.7727Z" fill="black"/>
<path d="M81 45.7727H174.645V47.4091H81V45.7727ZM183.097 45.7727H202.793V47.4091H183.097V45.7727ZM211.246 45.7727H286.087V47.4091H211.246V45.7727Z" fill="black"/>
<defs>
<radialGradient id="paint0_radial_59_5" cx="0" cy="0" r="1" gradientUnits="userSpaceOnUse" gradientTransform="translate(73.5122 -19.7195) rotate(127.54) scale(66.4875)">
<stop stop-color="white"/>
<stop offset="1" stop-color="#001F8F"/>
</radialGradient>
</defs>
</svg>
