<svg width="312" height="66" viewBox="0 0 312 66" fill="none" xmlns="http://www.w3.org/2000/svg">
<circle cx="33" cy="33" r="33" fill="url(#paint0_radial_59_3)"/>
<path d="M83.1136 41V23.5455H93.6477V25.4205H85.2273V31.3182H93.1023V33.1932H85.2273V39.125H93.7841V41H83.1136ZM99.196 33.125V41H97.1847V27.9091H99.1278V29.9545H99.2983C99.6051 29.2898 100.071 28.7557 100.696 28.3523C101.321 27.9432 102.128 27.7386 103.116 27.7386C104.003 27.7386 104.778 27.9205 105.443 28.2841C106.108 28.642 106.625 29.1875 106.994 29.9205C107.364 30.6477 107.548 31.5682 107.548 32.6818V41H105.537V32.8182C105.537 31.7898 105.27 30.9886 104.736 30.4148C104.202 29.8352 103.469 29.5455 102.537 29.5455C101.895 29.5455 101.321 29.6847 100.815 29.9631C100.315 30.2415 99.9205 30.6477 99.6307 31.1818C99.3409 31.7159 99.196 32.3636 99.196 33.125ZM116.508 46.1818C115.536 46.1818 114.701 46.0568 114.002 45.8068C113.303 45.5625 112.721 45.2386 112.255 44.8352C111.795 44.4375 111.428 44.0114 111.156 43.5568L112.758 42.4318C112.94 42.6705 113.17 42.9432 113.448 43.25C113.727 43.5625 114.107 43.8324 114.59 44.0597C115.079 44.2926 115.718 44.4091 116.508 44.4091C117.565 44.4091 118.437 44.1534 119.124 43.642C119.812 43.1307 120.156 42.3295 120.156 41.2386V38.5795H119.985C119.837 38.8182 119.627 39.1136 119.354 39.4659C119.087 39.8125 118.701 40.1222 118.195 40.3949C117.695 40.6619 117.019 40.7955 116.167 40.7955C115.11 40.7955 114.161 40.5455 113.32 40.0455C112.485 39.5455 111.823 38.8182 111.335 37.8636C110.852 36.9091 110.61 35.75 110.61 34.3864C110.61 33.0455 110.846 31.8778 111.317 30.8835C111.789 29.8835 112.445 29.1108 113.286 28.5653C114.127 28.0142 115.099 27.7386 116.201 27.7386C117.053 27.7386 117.729 27.8807 118.229 28.1648C118.735 28.4432 119.121 28.7614 119.388 29.1193C119.661 29.4716 119.871 29.7614 120.019 29.9886H120.224V27.9091H122.167V41.375C122.167 42.5 121.911 43.4148 121.4 44.1193C120.894 44.8295 120.212 45.3494 119.354 45.679C118.502 46.0142 117.553 46.1818 116.508 46.1818ZM116.44 38.9886C117.246 38.9886 117.928 38.804 118.485 38.4347C119.042 38.0653 119.465 37.5341 119.755 36.8409C120.045 36.1477 120.19 35.3182 120.19 34.3523C120.19 33.4091 120.048 32.5767 119.763 31.8551C119.479 31.1335 119.059 30.5682 118.502 30.1591C117.945 29.75 117.258 29.5455 116.44 29.5455C115.587 29.5455 114.877 29.7614 114.309 30.1932C113.746 30.625 113.323 31.2045 113.039 31.9318C112.761 32.6591 112.621 33.4659 112.621 34.3523C112.621 35.2614 112.763 36.0653 113.048 36.7642C113.337 37.4574 113.763 38.0028 114.326 38.4006C114.894 38.7926 115.599 38.9886 116.44 38.9886ZM125.849 41V27.9091H127.86V41H125.849ZM126.871 25.7273C126.479 25.7273 126.141 25.5938 125.857 25.3267C125.579 25.0597 125.44 24.7386 125.44 24.3636C125.44 23.9886 125.579 23.6676 125.857 23.4006C126.141 23.1335 126.479 23 126.871 23C127.263 23 127.599 23.1335 127.877 23.4006C128.161 23.6676 128.303 23.9886 128.303 24.3636C128.303 24.7386 128.161 25.0597 127.877 25.3267C127.599 25.5938 127.263 25.7273 126.871 25.7273ZM133.555 33.125V41H131.544V27.9091H133.487V29.9545H133.658C133.964 29.2898 134.43 28.7557 135.055 28.3523C135.68 27.9432 136.487 27.7386 137.476 27.7386C138.362 27.7386 139.138 27.9205 139.803 28.2841C140.467 28.642 140.984 29.1875 141.354 29.9205C141.723 30.6477 141.908 31.5682 141.908 32.6818V41H139.896V32.8182C139.896 31.7898 139.629 30.9886 139.095 30.4148C138.561 29.8352 137.828 29.5455 136.896 29.5455C136.254 29.5455 135.68 29.6847 135.175 29.9631C134.675 30.2415 134.28 30.6477 133.99 31.1818C133.7 31.7159 133.555 32.3636 133.555 33.125ZM151.072 41.2727C149.81 41.2727 148.722 40.9943 147.808 40.4375C146.898 39.875 146.197 39.0909 145.702 38.0852C145.214 37.0739 144.969 35.8977 144.969 34.5568C144.969 33.2159 145.214 32.0341 145.702 31.0114C146.197 29.983 146.884 29.1818 147.765 28.608C148.651 28.0284 149.685 27.7386 150.867 27.7386C151.549 27.7386 152.222 27.8523 152.887 28.0795C153.552 28.3068 154.157 28.6761 154.702 29.1875C155.248 29.6932 155.683 30.3636 156.006 31.1989C156.33 32.0341 156.492 33.0625 156.492 34.2841V35.1364H146.401V33.3977H154.447C154.447 32.6591 154.299 32 154.004 31.4205C153.714 30.8409 153.299 30.3835 152.759 30.0483C152.225 29.7131 151.594 29.5455 150.867 29.5455C150.066 29.5455 149.373 29.7443 148.788 30.142C148.208 30.5341 147.762 31.0455 147.45 31.6761C147.137 32.3068 146.981 32.983 146.981 33.7045V34.8636C146.981 35.8523 147.151 36.6903 147.492 37.3778C147.839 38.0597 148.319 38.5795 148.933 38.9375C149.546 39.2898 150.259 39.4659 151.072 39.4659C151.6 39.4659 152.077 39.392 152.504 39.2443C152.935 39.0909 153.308 38.8636 153.62 38.5625C153.933 38.2557 154.174 37.875 154.344 37.4205L156.288 37.9659C156.083 38.625 155.739 39.2045 155.256 39.7045C154.773 40.1989 154.177 40.5852 153.467 40.8636C152.756 41.1364 151.958 41.2727 151.072 41.2727ZM165.04 41.2727C163.779 41.2727 162.691 40.9943 161.776 40.4375C160.867 39.875 160.165 39.0909 159.671 38.0852C159.183 37.0739 158.938 35.8977 158.938 34.5568C158.938 33.2159 159.183 32.0341 159.671 31.0114C160.165 29.983 160.853 29.1818 161.734 28.608C162.62 28.0284 163.654 27.7386 164.836 27.7386C165.518 27.7386 166.191 27.8523 166.856 28.0795C167.521 28.3068 168.126 28.6761 168.671 29.1875C169.217 29.6932 169.651 30.3636 169.975 31.1989C170.299 32.0341 170.461 33.0625 170.461 34.2841V35.1364H160.37V33.3977H168.415C168.415 32.6591 168.268 32 167.972 31.4205C167.683 30.8409 167.268 30.3835 166.728 30.0483C166.194 29.7131 165.563 29.5455 164.836 29.5455C164.035 29.5455 163.342 29.7443 162.756 30.142C162.177 30.5341 161.731 31.0455 161.418 31.6761C161.106 32.3068 160.95 32.983 160.95 33.7045V34.8636C160.95 35.8523 161.12 36.6903 161.461 37.3778C161.808 38.0597 162.288 38.5795 162.901 38.9375C163.515 39.2898 164.228 39.4659 165.04 39.4659C165.569 39.4659 166.046 39.392 166.472 39.2443C166.904 39.0909 167.276 38.8636 167.589 38.5625C167.901 38.2557 168.143 37.875 168.313 37.4205L170.256 37.9659C170.052 38.625 169.708 39.2045 169.225 39.7045C168.742 40.1989 168.146 40.5852 167.435 40.8636C166.725 41.1364 165.927 41.2727 165.04 41.2727ZM173.521 41V27.9091H175.464V29.8864H175.6C175.839 29.2386 176.271 28.7131 176.896 28.3097C177.521 27.9062 178.225 27.7045 179.009 27.7045C179.157 27.7045 179.342 27.7074 179.563 27.7131C179.785 27.7187 179.952 27.7273 180.066 27.7386V29.7841C179.998 29.767 179.842 29.7415 179.597 29.7074C179.359 29.6676 179.106 29.6477 178.839 29.6477C178.202 29.6477 177.634 29.7812 177.134 30.0483C176.64 30.3097 176.248 30.6733 175.958 31.1392C175.674 31.5994 175.532 32.125 175.532 32.7159V41H173.521ZM182.45 41V27.9091H184.462V41H182.45ZM183.473 25.7273C183.081 25.7273 182.743 25.5938 182.459 25.3267C182.18 25.0597 182.041 24.7386 182.041 24.3636C182.041 23.9886 182.18 23.6676 182.459 23.4006C182.743 23.1335 183.081 23 183.473 23C183.865 23 184.2 23.1335 184.479 23.4006C184.763 23.6676 184.905 23.9886 184.905 24.3636C184.905 24.7386 184.763 25.0597 184.479 25.3267C184.2 25.5938 183.865 25.7273 183.473 25.7273ZM190.157 33.125V41H188.146V27.9091H190.089V29.9545H190.259C190.566 29.2898 191.032 28.7557 191.657 28.3523C192.282 27.9432 193.089 27.7386 194.077 27.7386C194.964 27.7386 195.739 27.9205 196.404 28.2841C197.069 28.642 197.586 29.1875 197.955 29.9205C198.325 30.6477 198.509 31.5682 198.509 32.6818V41H196.498V32.8182C196.498 31.7898 196.231 30.9886 195.697 30.4148C195.163 29.8352 194.43 29.5455 193.498 29.5455C192.856 29.5455 192.282 29.6847 191.776 29.9631C191.276 30.2415 190.881 30.6477 190.592 31.1818C190.302 31.7159 190.157 32.3636 190.157 33.125ZM207.469 46.1818C206.497 46.1818 205.662 46.0568 204.963 45.8068C204.264 45.5625 203.682 45.2386 203.216 44.8352C202.756 44.4375 202.389 44.0114 202.116 43.5568L203.719 42.4318C203.901 42.6705 204.131 42.9432 204.409 43.25C204.688 43.5625 205.068 43.8324 205.551 44.0597C206.04 44.2926 206.679 44.4091 207.469 44.4091C208.526 44.4091 209.398 44.1534 210.085 43.642C210.773 43.1307 211.116 42.3295 211.116 41.2386V38.5795H210.946C210.798 38.8182 210.588 39.1136 210.315 39.4659C210.048 39.8125 209.662 40.1222 209.156 40.3949C208.656 40.6619 207.98 40.7955 207.128 40.7955C206.071 40.7955 205.122 40.5455 204.281 40.0455C203.446 39.5455 202.784 38.8182 202.295 37.8636C201.813 36.9091 201.571 35.75 201.571 34.3864C201.571 33.0455 201.807 31.8778 202.278 30.8835C202.75 29.8835 203.406 29.1108 204.247 28.5653C205.088 28.0142 206.06 27.7386 207.162 27.7386C208.014 27.7386 208.69 27.8807 209.19 28.1648C209.696 28.4432 210.082 28.7614 210.349 29.1193C210.622 29.4716 210.832 29.7614 210.98 29.9886H211.185V27.9091H213.128V41.375C213.128 42.5 212.872 43.4148 212.361 44.1193C211.855 44.8295 211.173 45.3494 210.315 45.679C209.463 46.0142 208.514 46.1818 207.469 46.1818ZM207.401 38.9886C208.207 38.9886 208.889 38.804 209.446 38.4347C210.003 38.0653 210.426 37.5341 210.716 36.8409C211.006 36.1477 211.151 35.3182 211.151 34.3523C211.151 33.4091 211.009 32.5767 210.724 31.8551C210.44 31.1335 210.02 30.5682 209.463 30.1591C208.906 29.75 208.219 29.5455 207.401 29.5455C206.548 29.5455 205.838 29.7614 205.27 30.1932C204.707 30.625 204.284 31.2045 204 31.9318C203.722 32.6591 203.582 33.4659 203.582 34.3523C203.582 35.2614 203.724 36.0653 204.009 36.7642C204.298 37.4574 204.724 38.0028 205.287 38.4006C205.855 38.7926 206.56 38.9886 207.401 38.9886ZM228.878 41.2727C227.651 41.2727 226.594 40.983 225.707 40.4034C224.821 39.8239 224.139 39.0256 223.662 38.0085C223.185 36.9915 222.946 35.8295 222.946 34.5227C222.946 33.1932 223.19 32.0199 223.679 31.0028C224.173 29.9801 224.861 29.1818 225.741 28.608C226.628 28.0284 227.662 27.7386 228.844 27.7386C229.764 27.7386 230.594 27.9091 231.332 28.25C232.071 28.5909 232.676 29.0682 233.148 29.6818C233.619 30.2955 233.912 31.0114 234.026 31.8295H232.014C231.861 31.233 231.52 30.7045 230.991 30.2443C230.469 29.7784 229.764 29.5455 228.878 29.5455C228.094 29.5455 227.406 29.75 226.815 30.1591C226.23 30.5625 225.773 31.1335 225.443 31.8722C225.119 32.6051 224.957 33.4659 224.957 34.4545C224.957 35.4659 225.116 36.3466 225.435 37.0966C225.759 37.8466 226.213 38.429 226.798 38.8438C227.389 39.2585 228.082 39.4659 228.878 39.4659C229.401 39.4659 229.875 39.375 230.301 39.1932C230.727 39.0114 231.088 38.75 231.384 38.4091C231.679 38.0682 231.889 37.6591 232.014 37.1818H234.026C233.912 37.9545 233.631 38.6506 233.182 39.2699C232.739 39.8835 232.151 40.3722 231.418 40.7358C230.69 41.0938 229.844 41.2727 228.878 41.2727ZM242.284 41.2727C241.102 41.2727 240.065 40.9915 239.173 40.429C238.287 39.8665 237.594 39.0795 237.094 38.0682C236.599 37.0568 236.352 35.875 236.352 34.5227C236.352 33.1591 236.599 31.9687 237.094 30.9517C237.594 29.9347 238.287 29.1449 239.173 28.5824C240.065 28.0199 241.102 27.7386 242.284 27.7386C243.466 27.7386 244.5 28.0199 245.386 28.5824C246.278 29.1449 246.972 29.9347 247.466 30.9517C247.966 31.9687 248.216 33.1591 248.216 34.5227C248.216 35.875 247.966 37.0568 247.466 38.0682C246.972 39.0795 246.278 39.8665 245.386 40.429C244.5 40.9915 243.466 41.2727 242.284 41.2727ZM242.284 39.4659C243.182 39.4659 243.92 39.2358 244.5 38.7756C245.08 38.3153 245.509 37.7102 245.787 36.9602C246.065 36.2102 246.205 35.3977 246.205 34.5227C246.205 33.6477 246.065 32.8324 245.787 32.0767C245.509 31.321 245.08 30.7102 244.5 30.2443C243.92 29.7784 243.182 29.5455 242.284 29.5455C241.386 29.5455 240.648 29.7784 240.068 30.2443C239.489 30.7102 239.06 31.321 238.781 32.0767C238.503 32.8324 238.364 33.6477 238.364 34.5227C238.364 35.3977 238.503 36.2102 238.781 36.9602C239.06 37.7102 239.489 38.3153 240.068 38.7756C240.648 39.2358 241.386 39.4659 242.284 39.4659ZM259.536 35.6477V27.9091H261.548V41H259.536V38.7841H259.4C259.093 39.4489 258.616 40.0142 257.968 40.4801C257.32 40.9403 256.502 41.1705 255.513 41.1705C254.695 41.1705 253.968 40.9915 253.332 40.6335C252.695 40.2699 252.195 39.7244 251.832 38.9972C251.468 38.2642 251.286 37.3409 251.286 36.2273V27.9091H253.298V36.0909C253.298 37.0455 253.565 37.8068 254.099 38.375C254.638 38.9432 255.326 39.2273 256.161 39.2273C256.661 39.2273 257.17 39.0994 257.687 38.8438C258.21 38.5881 258.647 38.196 258.999 37.6676C259.357 37.1392 259.536 36.4659 259.536 35.6477ZM265.232 41V27.9091H267.175V29.8864H267.311C267.55 29.2386 267.982 28.7131 268.607 28.3097C269.232 27.9062 269.936 27.7045 270.72 27.7045C270.868 27.7045 271.053 27.7074 271.274 27.7131C271.496 27.7187 271.663 27.7273 271.777 27.7386V29.7841C271.709 29.767 271.553 29.7415 271.308 29.7074C271.07 29.6676 270.817 29.6477 270.55 29.6477C269.913 29.6477 269.345 29.7812 268.845 30.0483C268.351 30.3097 267.959 30.6733 267.669 31.1392C267.385 31.5994 267.243 32.125 267.243 32.7159V41H265.232ZM283.434 30.8409L281.627 31.3523C281.513 31.0511 281.346 30.7585 281.124 30.4744C280.908 30.1847 280.613 29.946 280.238 29.7585C279.863 29.571 279.383 29.4773 278.798 29.4773C277.996 29.4773 277.329 29.6619 276.795 30.0312C276.266 30.3949 276.002 30.858 276.002 31.4205C276.002 31.9205 276.184 32.3153 276.548 32.6051C276.911 32.8949 277.479 33.1364 278.252 33.3295L280.195 33.8068C281.366 34.0909 282.238 34.5256 282.812 35.1108C283.386 35.6903 283.673 36.4375 283.673 37.3523C283.673 38.1023 283.457 38.7727 283.025 39.3636C282.599 39.9545 282.002 40.4205 281.235 40.7614C280.468 41.1023 279.576 41.2727 278.559 41.2727C277.224 41.2727 276.119 40.983 275.244 40.4034C274.369 39.8239 273.815 38.9773 273.582 37.8636L275.491 37.3864C275.673 38.0909 276.016 38.6193 276.522 38.9716C277.033 39.3239 277.701 39.5 278.525 39.5C279.462 39.5 280.207 39.3011 280.758 38.9034C281.315 38.5 281.593 38.017 281.593 37.4545C281.593 37 281.434 36.6193 281.116 36.3125C280.798 36 280.309 35.767 279.65 35.6136L277.468 35.1023C276.269 34.8182 275.388 34.3778 274.826 33.7812C274.269 33.179 273.991 32.4261 273.991 31.5227C273.991 30.7841 274.198 30.1307 274.613 29.5625C275.033 28.9943 275.604 28.5483 276.326 28.2244C277.053 27.9006 277.877 27.7386 278.798 27.7386C280.093 27.7386 281.11 28.0227 281.849 28.5909C282.593 29.1591 283.121 29.9091 283.434 30.8409ZM292.189 41.2727C290.928 41.2727 289.839 40.9943 288.925 40.4375C288.016 39.875 287.314 39.0909 286.82 38.0852C286.331 37.0739 286.087 35.8977 286.087 34.5568C286.087 33.2159 286.331 32.0341 286.82 31.0114C287.314 29.983 288.001 29.1818 288.882 28.608C289.768 28.0284 290.803 27.7386 291.984 27.7386C292.666 27.7386 293.339 27.8523 294.004 28.0795C294.669 28.3068 295.274 28.6761 295.82 29.1875C296.365 29.6932 296.8 30.3636 297.124 31.1989C297.447 32.0341 297.609 33.0625 297.609 34.2841V35.1364H287.518V33.3977H295.564C295.564 32.6591 295.416 32 295.121 31.4205C294.831 30.8409 294.416 30.3835 293.876 30.0483C293.342 29.7131 292.712 29.5455 291.984 29.5455C291.183 29.5455 290.49 29.7443 289.905 30.142C289.325 30.5341 288.879 31.0455 288.567 31.6761C288.254 32.3068 288.098 32.983 288.098 33.7045V34.8636C288.098 35.8523 288.268 36.6903 288.609 37.3778C288.956 38.0597 289.436 38.5795 290.05 38.9375C290.663 39.2898 291.376 39.4659 292.189 39.4659C292.717 39.4659 293.195 39.392 293.621 39.2443C294.053 39.0909 294.425 38.8636 294.737 38.5625C295.05 38.2557 295.291 37.875 295.462 37.4205L297.405 37.9659C297.2 38.625 296.857 39.2045 296.374 39.7045C295.891 40.1989 295.294 40.5852 294.584 40.8636C293.874 41.1364 293.075 41.2727 292.189 41.2727ZM309.942 30.8409L308.135 31.3523C308.021 31.0511 307.854 30.7585 307.632 30.4744C307.416 30.1847 307.121 29.946 306.746 29.7585C306.371 29.571 305.891 29.4773 305.305 29.4773C304.504 29.4773 303.837 29.6619 303.303 30.0312C302.774 30.3949 302.51 30.858 302.51 31.4205C302.51 31.9205 302.692 32.3153 303.055 32.6051C303.419 32.8949 303.987 33.1364 304.76 33.3295L306.703 33.8068C307.874 34.0909 308.746 34.5256 309.32 35.1108C309.893 35.6903 310.18 36.4375 310.18 37.3523C310.18 38.1023 309.964 38.7727 309.533 39.3636C309.107 39.9545 308.51 40.4205 307.743 40.7614C306.976 41.1023 306.084 41.2727 305.067 41.2727C303.732 41.2727 302.626 40.983 301.751 40.4034C300.876 39.8239 300.322 38.9773 300.089 37.8636L301.999 37.3864C302.18 38.0909 302.524 38.6193 303.03 38.9716C303.541 39.3239 304.209 39.5 305.033 39.5C305.97 39.5 306.714 39.3011 307.266 38.9034C307.822 38.5 308.101 38.017 308.101 37.4545C308.101 37 307.942 36.6193 307.624 36.3125C307.305 36 306.817 35.767 306.158 35.6136L303.976 35.1023C302.777 34.8182 301.896 34.3778 301.334 33.7812C300.777 33.179 300.499 32.4261 300.499 31.5227C300.499 30.7841 300.706 30.1307 301.121 29.5625C301.541 28.9943 302.112 28.5483 302.834 28.2244C303.561 27.9006 304.385 27.7386 305.305 27.7386C306.601 27.7386 307.618 28.0227 308.357 28.5909C309.101 29.1591 309.629 29.9091 309.942 30.8409Z" fill="black"/>
<path d="M81 45.7727H112.278V47.4091H81V45.7727ZM120.73 45.7727H203.239V47.4091H120.73V45.7727ZM211.691 45.7727H311.374V47.4091H211.691V45.7727Z" fill="black"/>
<defs>
<radialGradient id="paint0_radial_59_3" cx="0" cy="0" r="1" gradientUnits="userSpaceOnUse" gradientTransform="translate(73.5122 -19.7195) rotate(127.54) scale(66.4875)">
<stop stop-color="white"/>
<stop offset="1" stop-color="#B88700"/>
</radialGradient>
</defs>
</svg>
