<svg width="315" height="436" viewBox="0 0 315 436" fill="none" xmlns="http://www.w3.org/2000/svg">
<circle cx="33" cy="329" r="33" fill="url(#paint0_radial_54_10)"/>
<circle cx="33" cy="403" r="33" fill="url(#paint1_radial_54_10)"/>
<circle cx="33" cy="33" r="33" fill="url(#paint2_radial_54_10)"/>
<circle cx="33" cy="107" r="33" fill="url(#paint3_radial_54_10)"/>
<circle cx="33" cy="181" r="33" fill="url(#paint4_radial_54_10)"/>
<circle cx="33" cy="255" r="33" fill="url(#paint5_radial_54_10)"/>
<path d="M83.1136 41V23.5455H85.2273V31.3182H94.5341V23.5455H96.6477V41H94.5341V33.1932H85.2273V41H83.1136ZM105.925 41.2727C104.743 41.2727 103.706 40.9915 102.814 40.429C101.928 39.8665 101.234 39.0795 100.734 38.0682C100.24 37.0568 99.9929 35.875 99.9929 34.5227C99.9929 33.1591 100.24 31.9687 100.734 30.9517C101.234 29.9347 101.928 29.1449 102.814 28.5824C103.706 28.0199 104.743 27.7386 105.925 27.7386C107.107 27.7386 108.141 28.0199 109.027 28.5824C109.919 29.1449 110.612 29.9347 111.107 30.9517C111.607 31.9687 111.857 33.1591 111.857 34.5227C111.857 35.875 111.607 37.0568 111.107 38.0682C110.612 39.0795 109.919 39.8665 109.027 40.429C108.141 40.9915 107.107 41.2727 105.925 41.2727ZM105.925 39.4659C106.822 39.4659 107.561 39.2358 108.141 38.7756C108.72 38.3153 109.149 37.7102 109.428 36.9602C109.706 36.2102 109.845 35.3977 109.845 34.5227C109.845 33.6477 109.706 32.8324 109.428 32.0767C109.149 31.321 108.72 30.7102 108.141 30.2443C107.561 29.7784 106.822 29.5455 105.925 29.5455C105.027 29.5455 104.288 29.7784 103.709 30.2443C103.129 30.7102 102.7 31.321 102.422 32.0767C102.143 32.8324 102.004 33.6477 102.004 34.5227C102.004 35.3977 102.143 36.2102 102.422 36.9602C102.7 37.7102 103.129 38.3153 103.709 38.7756C104.288 39.2358 105.027 39.4659 105.925 39.4659ZM114.927 41V27.9091H116.87V29.9545H117.04C117.313 29.2557 117.754 28.7131 118.362 28.3267C118.969 27.9347 119.7 27.7386 120.552 27.7386C121.415 27.7386 122.134 27.9347 122.708 28.3267C123.288 28.7131 123.739 29.2557 124.063 29.9545H124.2C124.535 29.2784 125.038 28.7415 125.708 28.3438C126.379 27.9403 127.183 27.7386 128.12 27.7386C129.29 27.7386 130.248 28.1051 130.992 28.8381C131.737 29.5653 132.109 30.6989 132.109 32.2386V41H130.097V32.2386C130.097 31.2727 129.833 30.5824 129.305 30.1676C128.776 29.7528 128.154 29.5455 127.438 29.5455C126.518 29.5455 125.805 29.8239 125.299 30.3807C124.793 30.9318 124.54 31.6307 124.54 32.4773V41H122.495V32.0341C122.495 31.2898 122.254 30.6903 121.771 30.2358C121.288 29.7756 120.665 29.5455 119.904 29.5455C119.381 29.5455 118.893 29.6847 118.438 29.9631C117.989 30.2415 117.626 30.6278 117.347 31.1222C117.075 31.6108 116.938 32.1761 116.938 32.8182V41H114.927ZM141.275 41.2727C140.013 41.2727 138.925 40.9943 138.011 40.4375C137.102 39.875 136.4 39.0909 135.906 38.0852C135.417 37.0739 135.173 35.8977 135.173 34.5568C135.173 33.2159 135.417 32.0341 135.906 31.0114C136.4 29.983 137.087 29.1818 137.968 28.608C138.854 28.0284 139.888 27.7386 141.07 27.7386C141.752 27.7386 142.425 27.8523 143.09 28.0795C143.755 28.3068 144.36 28.6761 144.906 29.1875C145.451 29.6932 145.886 30.3636 146.21 31.1989C146.533 32.0341 146.695 33.0625 146.695 34.2841V35.1364H136.604V33.3977H144.65C144.65 32.6591 144.502 32 144.207 31.4205C143.917 30.8409 143.502 30.3835 142.962 30.0483C142.428 29.7131 141.798 29.5455 141.07 29.5455C140.269 29.5455 139.576 29.7443 138.991 30.142C138.411 30.5341 137.965 31.0455 137.653 31.6761C137.34 32.3068 137.184 32.983 137.184 33.7045V34.8636C137.184 35.8523 137.354 36.6903 137.695 37.3778C138.042 38.0597 138.522 38.5795 139.136 38.9375C139.749 39.2898 140.462 39.4659 141.275 39.4659C141.803 39.4659 142.281 39.392 142.707 39.2443C143.138 39.0909 143.511 38.8636 143.823 38.5625C144.136 38.2557 144.377 37.875 144.548 37.4205L146.491 37.9659C146.286 38.625 145.942 39.2045 145.46 39.7045C144.977 40.1989 144.38 40.5852 143.67 40.8636C142.96 41.1364 142.161 41.2727 141.275 41.2727Z" fill="black"/>
<path d="M83.1136 115V97.5455H93.6477V99.4205H85.2273V105.318H93.1023V107.193H85.2273V113.125H93.7841V115H83.1136ZM99.196 107.125V115H97.1847V101.909H99.1278V103.955H99.2983C99.6051 103.29 100.071 102.756 100.696 102.352C101.321 101.943 102.128 101.739 103.116 101.739C104.003 101.739 104.778 101.92 105.443 102.284C106.108 102.642 106.625 103.188 106.994 103.92C107.364 104.648 107.548 105.568 107.548 106.682V115H105.537V106.818C105.537 105.79 105.27 104.989 104.736 104.415C104.202 103.835 103.469 103.545 102.537 103.545C101.895 103.545 101.321 103.685 100.815 103.963C100.315 104.241 99.9205 104.648 99.6307 105.182C99.3409 105.716 99.196 106.364 99.196 107.125ZM116.508 120.182C115.536 120.182 114.701 120.057 114.002 119.807C113.303 119.562 112.721 119.239 112.255 118.835C111.795 118.438 111.428 118.011 111.156 117.557L112.758 116.432C112.94 116.67 113.17 116.943 113.448 117.25C113.727 117.562 114.107 117.832 114.59 118.06C115.079 118.293 115.718 118.409 116.508 118.409C117.565 118.409 118.437 118.153 119.124 117.642C119.812 117.131 120.156 116.33 120.156 115.239V112.58H119.985C119.837 112.818 119.627 113.114 119.354 113.466C119.087 113.812 118.701 114.122 118.195 114.395C117.695 114.662 117.019 114.795 116.167 114.795C115.11 114.795 114.161 114.545 113.32 114.045C112.485 113.545 111.823 112.818 111.335 111.864C110.852 110.909 110.61 109.75 110.61 108.386C110.61 107.045 110.846 105.878 111.317 104.884C111.789 103.884 112.445 103.111 113.286 102.565C114.127 102.014 115.099 101.739 116.201 101.739C117.053 101.739 117.729 101.881 118.229 102.165C118.735 102.443 119.121 102.761 119.388 103.119C119.661 103.472 119.871 103.761 120.019 103.989H120.224V101.909H122.167V115.375C122.167 116.5 121.911 117.415 121.4 118.119C120.894 118.83 120.212 119.349 119.354 119.679C118.502 120.014 117.553 120.182 116.508 120.182ZM116.44 112.989C117.246 112.989 117.928 112.804 118.485 112.435C119.042 112.065 119.465 111.534 119.755 110.841C120.045 110.148 120.19 109.318 120.19 108.352C120.19 107.409 120.048 106.577 119.763 105.855C119.479 105.134 119.059 104.568 118.502 104.159C117.945 103.75 117.258 103.545 116.44 103.545C115.587 103.545 114.877 103.761 114.309 104.193C113.746 104.625 113.323 105.205 113.039 105.932C112.761 106.659 112.621 107.466 112.621 108.352C112.621 109.261 112.763 110.065 113.048 110.764C113.337 111.457 113.763 112.003 114.326 112.401C114.894 112.793 115.599 112.989 116.44 112.989ZM125.849 115V101.909H127.86V115H125.849ZM126.871 99.7273C126.479 99.7273 126.141 99.5938 125.857 99.3267C125.579 99.0597 125.44 98.7386 125.44 98.3636C125.44 97.9886 125.579 97.6676 125.857 97.4006C126.141 97.1335 126.479 97 126.871 97C127.263 97 127.599 97.1335 127.877 97.4006C128.161 97.6676 128.303 97.9886 128.303 98.3636C128.303 98.7386 128.161 99.0597 127.877 99.3267C127.599 99.5938 127.263 99.7273 126.871 99.7273ZM133.555 107.125V115H131.544V101.909H133.487V103.955H133.658C133.964 103.29 134.43 102.756 135.055 102.352C135.68 101.943 136.487 101.739 137.476 101.739C138.362 101.739 139.138 101.92 139.803 102.284C140.467 102.642 140.984 103.188 141.354 103.92C141.723 104.648 141.908 105.568 141.908 106.682V115H139.896V106.818C139.896 105.79 139.629 104.989 139.095 104.415C138.561 103.835 137.828 103.545 136.896 103.545C136.254 103.545 135.68 103.685 135.175 103.963C134.675 104.241 134.28 104.648 133.99 105.182C133.7 105.716 133.555 106.364 133.555 107.125ZM151.072 115.273C149.81 115.273 148.722 114.994 147.808 114.438C146.898 113.875 146.197 113.091 145.702 112.085C145.214 111.074 144.969 109.898 144.969 108.557C144.969 107.216 145.214 106.034 145.702 105.011C146.197 103.983 146.884 103.182 147.765 102.608C148.651 102.028 149.685 101.739 150.867 101.739C151.549 101.739 152.222 101.852 152.887 102.08C153.552 102.307 154.157 102.676 154.702 103.188C155.248 103.693 155.683 104.364 156.006 105.199C156.33 106.034 156.492 107.062 156.492 108.284V109.136H146.401V107.398H154.447C154.447 106.659 154.299 106 154.004 105.42C153.714 104.841 153.299 104.384 152.759 104.048C152.225 103.713 151.594 103.545 150.867 103.545C150.066 103.545 149.373 103.744 148.788 104.142C148.208 104.534 147.762 105.045 147.45 105.676C147.137 106.307 146.981 106.983 146.981 107.705V108.864C146.981 109.852 147.151 110.69 147.492 111.378C147.839 112.06 148.319 112.58 148.933 112.938C149.546 113.29 150.259 113.466 151.072 113.466C151.6 113.466 152.077 113.392 152.504 113.244C152.935 113.091 153.308 112.864 153.62 112.562C153.933 112.256 154.174 111.875 154.344 111.42L156.288 111.966C156.083 112.625 155.739 113.205 155.256 113.705C154.773 114.199 154.177 114.585 153.467 114.864C152.756 115.136 151.958 115.273 151.072 115.273ZM165.04 115.273C163.779 115.273 162.691 114.994 161.776 114.438C160.867 113.875 160.165 113.091 159.671 112.085C159.183 111.074 158.938 109.898 158.938 108.557C158.938 107.216 159.183 106.034 159.671 105.011C160.165 103.983 160.853 103.182 161.734 102.608C162.62 102.028 163.654 101.739 164.836 101.739C165.518 101.739 166.191 101.852 166.856 102.08C167.521 102.307 168.126 102.676 168.671 103.188C169.217 103.693 169.651 104.364 169.975 105.199C170.299 106.034 170.461 107.062 170.461 108.284V109.136H160.37V107.398H168.415C168.415 106.659 168.268 106 167.972 105.42C167.683 104.841 167.268 104.384 166.728 104.048C166.194 103.713 165.563 103.545 164.836 103.545C164.035 103.545 163.342 103.744 162.756 104.142C162.177 104.534 161.731 105.045 161.418 105.676C161.106 106.307 160.95 106.983 160.95 107.705V108.864C160.95 109.852 161.12 110.69 161.461 111.378C161.808 112.06 162.288 112.58 162.901 112.938C163.515 113.29 164.228 113.466 165.04 113.466C165.569 113.466 166.046 113.392 166.472 113.244C166.904 113.091 167.276 112.864 167.589 112.562C167.901 112.256 168.143 111.875 168.313 111.42L170.256 111.966C170.052 112.625 169.708 113.205 169.225 113.705C168.742 114.199 168.146 114.585 167.435 114.864C166.725 115.136 165.927 115.273 165.04 115.273ZM173.521 115V101.909H175.464V103.886H175.6C175.839 103.239 176.271 102.713 176.896 102.31C177.521 101.906 178.225 101.705 179.009 101.705C179.157 101.705 179.342 101.707 179.563 101.713C179.785 101.719 179.952 101.727 180.066 101.739V103.784C179.998 103.767 179.842 103.741 179.597 103.707C179.359 103.668 179.106 103.648 178.839 103.648C178.202 103.648 177.634 103.781 177.134 104.048C176.64 104.31 176.248 104.673 175.958 105.139C175.674 105.599 175.532 106.125 175.532 106.716V115H173.521ZM182.45 115V101.909H184.462V115H182.45ZM183.473 99.7273C183.081 99.7273 182.743 99.5938 182.459 99.3267C182.18 99.0597 182.041 98.7386 182.041 98.3636C182.041 97.9886 182.18 97.6676 182.459 97.4006C182.743 97.1335 183.081 97 183.473 97C183.865 97 184.2 97.1335 184.479 97.4006C184.763 97.6676 184.905 97.9886 184.905 98.3636C184.905 98.7386 184.763 99.0597 184.479 99.3267C184.2 99.5938 183.865 99.7273 183.473 99.7273ZM190.157 107.125V115H188.146V101.909H190.089V103.955H190.259C190.566 103.29 191.032 102.756 191.657 102.352C192.282 101.943 193.089 101.739 194.077 101.739C194.964 101.739 195.739 101.92 196.404 102.284C197.069 102.642 197.586 103.188 197.955 103.92C198.325 104.648 198.509 105.568 198.509 106.682V115H196.498V106.818C196.498 105.79 196.231 104.989 195.697 104.415C195.163 103.835 194.43 103.545 193.498 103.545C192.856 103.545 192.282 103.685 191.776 103.963C191.276 104.241 190.881 104.648 190.592 105.182C190.302 105.716 190.157 106.364 190.157 107.125ZM207.469 120.182C206.497 120.182 205.662 120.057 204.963 119.807C204.264 119.562 203.682 119.239 203.216 118.835C202.756 118.438 202.389 118.011 202.116 117.557L203.719 116.432C203.901 116.67 204.131 116.943 204.409 117.25C204.688 117.562 205.068 117.832 205.551 118.06C206.04 118.293 206.679 118.409 207.469 118.409C208.526 118.409 209.398 118.153 210.085 117.642C210.773 117.131 211.116 116.33 211.116 115.239V112.58H210.946C210.798 112.818 210.588 113.114 210.315 113.466C210.048 113.812 209.662 114.122 209.156 114.395C208.656 114.662 207.98 114.795 207.128 114.795C206.071 114.795 205.122 114.545 204.281 114.045C203.446 113.545 202.784 112.818 202.295 111.864C201.813 110.909 201.571 109.75 201.571 108.386C201.571 107.045 201.807 105.878 202.278 104.884C202.75 103.884 203.406 103.111 204.247 102.565C205.088 102.014 206.06 101.739 207.162 101.739C208.014 101.739 208.69 101.881 209.19 102.165C209.696 102.443 210.082 102.761 210.349 103.119C210.622 103.472 210.832 103.761 210.98 103.989H211.185V101.909H213.128V115.375C213.128 116.5 212.872 117.415 212.361 118.119C211.855 118.83 211.173 119.349 210.315 119.679C209.463 120.014 208.514 120.182 207.469 120.182ZM207.401 112.989C208.207 112.989 208.889 112.804 209.446 112.435C210.003 112.065 210.426 111.534 210.716 110.841C211.006 110.148 211.151 109.318 211.151 108.352C211.151 107.409 211.009 106.577 210.724 105.855C210.44 105.134 210.02 104.568 209.463 104.159C208.906 103.75 208.219 103.545 207.401 103.545C206.548 103.545 205.838 103.761 205.27 104.193C204.707 104.625 204.284 105.205 204 105.932C203.722 106.659 203.582 107.466 203.582 108.352C203.582 109.261 203.724 110.065 204.009 110.764C204.298 111.457 204.724 112.003 205.287 112.401C205.855 112.793 206.56 112.989 207.401 112.989ZM228.878 115.273C227.651 115.273 226.594 114.983 225.707 114.403C224.821 113.824 224.139 113.026 223.662 112.009C223.185 110.991 222.946 109.83 222.946 108.523C222.946 107.193 223.19 106.02 223.679 105.003C224.173 103.98 224.861 103.182 225.741 102.608C226.628 102.028 227.662 101.739 228.844 101.739C229.764 101.739 230.594 101.909 231.332 102.25C232.071 102.591 232.676 103.068 233.148 103.682C233.619 104.295 233.912 105.011 234.026 105.83H232.014C231.861 105.233 231.52 104.705 230.991 104.244C230.469 103.778 229.764 103.545 228.878 103.545C228.094 103.545 227.406 103.75 226.815 104.159C226.23 104.562 225.773 105.134 225.443 105.872C225.119 106.605 224.957 107.466 224.957 108.455C224.957 109.466 225.116 110.347 225.435 111.097C225.759 111.847 226.213 112.429 226.798 112.844C227.389 113.259 228.082 113.466 228.878 113.466C229.401 113.466 229.875 113.375 230.301 113.193C230.727 113.011 231.088 112.75 231.384 112.409C231.679 112.068 231.889 111.659 232.014 111.182H234.026C233.912 111.955 233.631 112.651 233.182 113.27C232.739 113.884 232.151 114.372 231.418 114.736C230.69 115.094 229.844 115.273 228.878 115.273ZM242.284 115.273C241.102 115.273 240.065 114.991 239.173 114.429C238.287 113.866 237.594 113.08 237.094 112.068C236.599 111.057 236.352 109.875 236.352 108.523C236.352 107.159 236.599 105.969 237.094 104.952C237.594 103.935 238.287 103.145 239.173 102.582C240.065 102.02 241.102 101.739 242.284 101.739C243.466 101.739 244.5 102.02 245.386 102.582C246.278 103.145 246.972 103.935 247.466 104.952C247.966 105.969 248.216 107.159 248.216 108.523C248.216 109.875 247.966 111.057 247.466 112.068C246.972 113.08 246.278 113.866 245.386 114.429C244.5 114.991 243.466 115.273 242.284 115.273ZM242.284 113.466C243.182 113.466 243.92 113.236 244.5 112.776C245.08 112.315 245.509 111.71 245.787 110.96C246.065 110.21 246.205 109.398 246.205 108.523C246.205 107.648 246.065 106.832 245.787 106.077C245.509 105.321 245.08 104.71 244.5 104.244C243.92 103.778 243.182 103.545 242.284 103.545C241.386 103.545 240.648 103.778 240.068 104.244C239.489 104.71 239.06 105.321 238.781 106.077C238.503 106.832 238.364 107.648 238.364 108.523C238.364 109.398 238.503 110.21 238.781 110.96C239.06 111.71 239.489 112.315 240.068 112.776C240.648 113.236 241.386 113.466 242.284 113.466ZM259.536 109.648V101.909H261.548V115H259.536V112.784H259.4C259.093 113.449 258.616 114.014 257.968 114.48C257.32 114.94 256.502 115.17 255.513 115.17C254.695 115.17 253.968 114.991 253.332 114.634C252.695 114.27 252.195 113.724 251.832 112.997C251.468 112.264 251.286 111.341 251.286 110.227V101.909H253.298V110.091C253.298 111.045 253.565 111.807 254.099 112.375C254.638 112.943 255.326 113.227 256.161 113.227C256.661 113.227 257.17 113.099 257.687 112.844C258.21 112.588 258.647 112.196 258.999 111.668C259.357 111.139 259.536 110.466 259.536 109.648ZM265.232 115V101.909H267.175V103.886H267.311C267.55 103.239 267.982 102.713 268.607 102.31C269.232 101.906 269.936 101.705 270.72 101.705C270.868 101.705 271.053 101.707 271.274 101.713C271.496 101.719 271.663 101.727 271.777 101.739V103.784C271.709 103.767 271.553 103.741 271.308 103.707C271.07 103.668 270.817 103.648 270.55 103.648C269.913 103.648 269.345 103.781 268.845 104.048C268.351 104.31 267.959 104.673 267.669 105.139C267.385 105.599 267.243 106.125 267.243 106.716V115H265.232ZM283.434 104.841L281.627 105.352C281.513 105.051 281.346 104.759 281.124 104.474C280.908 104.185 280.613 103.946 280.238 103.759C279.863 103.571 279.383 103.477 278.798 103.477C277.996 103.477 277.329 103.662 276.795 104.031C276.266 104.395 276.002 104.858 276.002 105.42C276.002 105.92 276.184 106.315 276.548 106.605C276.911 106.895 277.479 107.136 278.252 107.33L280.195 107.807C281.366 108.091 282.238 108.526 282.812 109.111C283.386 109.69 283.673 110.437 283.673 111.352C283.673 112.102 283.457 112.773 283.025 113.364C282.599 113.955 282.002 114.42 281.235 114.761C280.468 115.102 279.576 115.273 278.559 115.273C277.224 115.273 276.119 114.983 275.244 114.403C274.369 113.824 273.815 112.977 273.582 111.864L275.491 111.386C275.673 112.091 276.016 112.619 276.522 112.972C277.033 113.324 277.701 113.5 278.525 113.5C279.462 113.5 280.207 113.301 280.758 112.903C281.315 112.5 281.593 112.017 281.593 111.455C281.593 111 281.434 110.619 281.116 110.312C280.798 110 280.309 109.767 279.65 109.614L277.468 109.102C276.269 108.818 275.388 108.378 274.826 107.781C274.269 107.179 273.991 106.426 273.991 105.523C273.991 104.784 274.198 104.131 274.613 103.562C275.033 102.994 275.604 102.548 276.326 102.224C277.053 101.901 277.877 101.739 278.798 101.739C280.093 101.739 281.11 102.023 281.849 102.591C282.593 103.159 283.121 103.909 283.434 104.841ZM292.189 115.273C290.928 115.273 289.839 114.994 288.925 114.438C288.016 113.875 287.314 113.091 286.82 112.085C286.331 111.074 286.087 109.898 286.087 108.557C286.087 107.216 286.331 106.034 286.82 105.011C287.314 103.983 288.001 103.182 288.882 102.608C289.768 102.028 290.803 101.739 291.984 101.739C292.666 101.739 293.339 101.852 294.004 102.08C294.669 102.307 295.274 102.676 295.82 103.188C296.365 103.693 296.8 104.364 297.124 105.199C297.447 106.034 297.609 107.062 297.609 108.284V109.136H287.518V107.398H295.564C295.564 106.659 295.416 106 295.121 105.42C294.831 104.841 294.416 104.384 293.876 104.048C293.342 103.713 292.712 103.545 291.984 103.545C291.183 103.545 290.49 103.744 289.905 104.142C289.325 104.534 288.879 105.045 288.567 105.676C288.254 106.307 288.098 106.983 288.098 107.705V108.864C288.098 109.852 288.268 110.69 288.609 111.378C288.956 112.06 289.436 112.58 290.05 112.938C290.663 113.29 291.376 113.466 292.189 113.466C292.717 113.466 293.195 113.392 293.621 113.244C294.053 113.091 294.425 112.864 294.737 112.562C295.05 112.256 295.291 111.875 295.462 111.42L297.405 111.966C297.2 112.625 296.857 113.205 296.374 113.705C295.891 114.199 295.294 114.585 294.584 114.864C293.874 115.136 293.075 115.273 292.189 115.273ZM309.942 104.841L308.135 105.352C308.021 105.051 307.854 104.759 307.632 104.474C307.416 104.185 307.121 103.946 306.746 103.759C306.371 103.571 305.891 103.477 305.305 103.477C304.504 103.477 303.837 103.662 303.303 104.031C302.774 104.395 302.51 104.858 302.51 105.42C302.51 105.92 302.692 106.315 303.055 106.605C303.419 106.895 303.987 107.136 304.76 107.33L306.703 107.807C307.874 108.091 308.746 108.526 309.32 109.111C309.893 109.69 310.18 110.437 310.18 111.352C310.18 112.102 309.964 112.773 309.533 113.364C309.107 113.955 308.51 114.42 307.743 114.761C306.976 115.102 306.084 115.273 305.067 115.273C303.732 115.273 302.626 114.983 301.751 114.403C300.876 113.824 300.322 112.977 300.089 111.864L301.999 111.386C302.18 112.091 302.524 112.619 303.03 112.972C303.541 113.324 304.209 113.5 305.033 113.5C305.97 113.5 306.714 113.301 307.266 112.903C307.822 112.5 308.101 112.017 308.101 111.455C308.101 111 307.942 110.619 307.624 110.312C307.305 110 306.817 109.767 306.158 109.614L303.976 109.102C302.777 108.818 301.896 108.378 301.334 107.781C300.777 107.179 300.499 106.426 300.499 105.523C300.499 104.784 300.706 104.131 301.121 103.562C301.541 102.994 302.112 102.548 302.834 102.224C303.561 101.901 304.385 101.739 305.305 101.739C306.601 101.739 307.618 102.023 308.357 102.591C309.101 103.159 309.629 103.909 309.942 104.841Z" fill="black"/>
<path d="M83.1136 171.545H85.6364L91.5682 186.034H91.7727L97.7045 171.545H100.227V189H98.25V175.739H98.0795L92.625 189H90.7159L85.2614 175.739H85.0909V189H83.1136V171.545ZM109.511 189.273C108.329 189.273 107.292 188.991 106.4 188.429C105.513 187.866 104.82 187.08 104.32 186.068C103.826 185.057 103.579 183.875 103.579 182.523C103.579 181.159 103.826 179.969 104.32 178.952C104.82 177.935 105.513 177.145 106.4 176.582C107.292 176.02 108.329 175.739 109.511 175.739C110.692 175.739 111.727 176.02 112.613 176.582C113.505 177.145 114.198 177.935 114.692 178.952C115.192 179.969 115.442 181.159 115.442 182.523C115.442 183.875 115.192 185.057 114.692 186.068C114.198 187.08 113.505 187.866 112.613 188.429C111.727 188.991 110.692 189.273 109.511 189.273ZM109.511 187.466C110.408 187.466 111.147 187.236 111.727 186.776C112.306 186.315 112.735 185.71 113.013 184.96C113.292 184.21 113.431 183.398 113.431 182.523C113.431 181.648 113.292 180.832 113.013 180.077C112.735 179.321 112.306 178.71 111.727 178.244C111.147 177.778 110.408 177.545 109.511 177.545C108.613 177.545 107.874 177.778 107.295 178.244C106.715 178.71 106.286 179.321 106.008 180.077C105.729 180.832 105.59 181.648 105.59 182.523C105.59 183.398 105.729 184.21 106.008 184.96C106.286 185.71 106.715 186.315 107.295 186.776C107.874 187.236 108.613 187.466 109.511 187.466ZM118.786 189V171.545H120.797V177.989H120.967C121.115 177.761 121.32 177.472 121.581 177.119C121.848 176.761 122.229 176.443 122.723 176.165C123.223 175.881 123.899 175.739 124.751 175.739C125.854 175.739 126.825 176.014 127.666 176.565C128.507 177.116 129.163 177.898 129.635 178.909C130.107 179.92 130.342 181.114 130.342 182.489C130.342 183.875 130.107 185.077 129.635 186.094C129.163 187.105 128.51 187.889 127.675 188.446C126.839 188.997 125.876 189.273 124.786 189.273C123.945 189.273 123.271 189.134 122.766 188.855C122.26 188.571 121.871 188.25 121.598 187.892C121.325 187.528 121.115 187.227 120.967 186.989H120.729V189H118.786ZM120.763 182.455C120.763 183.443 120.908 184.315 121.197 185.071C121.487 185.821 121.911 186.409 122.467 186.835C123.024 187.256 123.706 187.466 124.513 187.466C125.354 187.466 126.055 187.244 126.618 186.801C127.186 186.352 127.612 185.75 127.896 184.994C128.186 184.233 128.331 183.386 128.331 182.455C128.331 181.534 128.189 180.705 127.905 179.966C127.626 179.222 127.203 178.634 126.635 178.202C126.072 177.764 125.365 177.545 124.513 177.545C123.695 177.545 123.007 177.753 122.45 178.168C121.893 178.577 121.473 179.151 121.189 179.889C120.905 180.622 120.763 181.477 120.763 182.455ZM133.419 189V175.909H135.43V189H133.419ZM134.442 173.727C134.05 173.727 133.712 173.594 133.428 173.327C133.149 173.06 133.01 172.739 133.01 172.364C133.01 171.989 133.149 171.668 133.428 171.401C133.712 171.134 134.05 171 134.442 171C134.834 171 135.169 171.134 135.447 171.401C135.732 171.668 135.874 171.989 135.874 172.364C135.874 172.739 135.732 173.06 135.447 173.327C135.169 173.594 134.834 173.727 134.442 173.727ZM141.126 171.545V189H139.114V171.545H141.126ZM144.81 189V175.909H146.821V189H144.81ZM145.832 173.727C145.44 173.727 145.102 173.594 144.818 173.327C144.54 173.06 144.401 172.739 144.401 172.364C144.401 171.989 144.54 171.668 144.818 171.401C145.102 171.134 145.44 171 145.832 171C146.224 171 146.56 171.134 146.838 171.401C147.122 171.668 147.264 171.989 147.264 172.364C147.264 172.739 147.122 173.06 146.838 173.327C146.56 173.594 146.224 173.727 145.832 173.727ZM156.198 175.909V177.614H149.414V175.909H156.198ZM151.391 172.773H153.403V185.25C153.403 185.818 153.485 186.244 153.65 186.528C153.82 186.807 154.036 186.994 154.298 187.091C154.565 187.182 154.846 187.227 155.141 187.227C155.363 187.227 155.545 187.216 155.687 187.193C155.829 187.165 155.942 187.142 156.028 187.125L156.437 188.932C156.3 188.983 156.11 189.034 155.866 189.085C155.621 189.142 155.312 189.17 154.937 189.17C154.369 189.17 153.812 189.048 153.266 188.804C152.727 188.56 152.278 188.188 151.92 187.688C151.567 187.188 151.391 186.557 151.391 185.795V172.773ZM160.519 193.909C160.178 193.909 159.874 193.881 159.607 193.824C159.34 193.773 159.156 193.722 159.053 193.67L159.565 191.898C160.053 192.023 160.485 192.068 160.86 192.034C161.235 192 161.567 191.832 161.857 191.531C162.153 191.236 162.423 190.756 162.667 190.091L163.042 189.068L158.201 175.909H160.383L163.996 186.341H164.133L167.746 175.909H169.928L164.371 190.909C164.121 191.585 163.812 192.145 163.442 192.588C163.073 193.037 162.644 193.369 162.156 193.585C161.673 193.801 161.127 193.909 160.519 193.909Z" fill="black"/>
<path d="M97.1591 251H95.0455C94.9205 250.392 94.7017 249.858 94.3892 249.398C94.0824 248.938 93.7074 248.551 93.2642 248.239C92.8267 247.92 92.3409 247.682 91.8068 247.523C91.2727 247.364 90.7159 247.284 90.1364 247.284C89.0795 247.284 88.1222 247.551 87.2642 248.085C86.4119 248.619 85.733 249.406 85.2273 250.446C84.7273 251.486 84.4773 252.761 84.4773 254.273C84.4773 255.784 84.7273 257.06 85.2273 258.099C85.733 259.139 86.4119 259.926 87.2642 260.46C88.1222 260.994 89.0795 261.261 90.1364 261.261C90.7159 261.261 91.2727 261.182 91.8068 261.023C92.3409 260.864 92.8267 260.628 93.2642 260.315C93.7074 259.997 94.0824 259.608 94.3892 259.148C94.7017 258.682 94.9205 258.148 95.0455 257.545H97.1591C97 258.437 96.7102 259.236 96.2898 259.94C95.8693 260.645 95.3466 261.244 94.7216 261.739C94.0966 262.227 93.3949 262.599 92.6165 262.855C91.8438 263.111 91.017 263.239 90.1364 263.239C88.6477 263.239 87.3239 262.875 86.1648 262.148C85.0057 261.42 84.0938 260.386 83.429 259.045C82.7642 257.705 82.4318 256.114 82.4318 254.273C82.4318 252.432 82.7642 250.841 83.429 249.5C84.0938 248.159 85.0057 247.125 86.1648 246.398C87.3239 245.67 88.6477 245.307 90.1364 245.307C91.017 245.307 91.8438 245.435 92.6165 245.69C93.3949 245.946 94.0966 246.321 94.7216 246.815C95.3466 247.304 95.8693 247.901 96.2898 248.605C96.7102 249.304 97 250.102 97.1591 251ZM100.302 263V249.909H102.313V263H100.302ZM101.325 247.727C100.933 247.727 100.594 247.594 100.31 247.327C100.032 247.06 99.8928 246.739 99.8928 246.364C99.8928 245.989 100.032 245.668 100.31 245.401C100.594 245.134 100.933 245 101.325 245C101.717 245 102.052 245.134 102.33 245.401C102.614 245.668 102.756 245.989 102.756 246.364C102.756 246.739 102.614 247.06 102.33 247.327C102.052 247.594 101.717 247.727 101.325 247.727ZM116.702 249.909L111.861 263H109.815L104.974 249.909H107.156L110.77 260.341H110.906L114.52 249.909H116.702ZM119.357 263V249.909H121.368V263H119.357ZM120.379 247.727C119.987 247.727 119.649 247.594 119.365 247.327C119.087 247.06 118.947 246.739 118.947 246.364C118.947 245.989 119.087 245.668 119.365 245.401C119.649 245.134 119.987 245 120.379 245C120.771 245 121.107 245.134 121.385 245.401C121.669 245.668 121.811 245.989 121.811 246.364C121.811 246.739 121.669 247.06 121.385 247.327C121.107 247.594 120.771 247.727 120.379 247.727ZM130.37 263.273C129.143 263.273 128.086 262.983 127.2 262.403C126.313 261.824 125.631 261.026 125.154 260.009C124.677 258.991 124.438 257.83 124.438 256.523C124.438 255.193 124.683 254.02 125.171 253.003C125.665 251.98 126.353 251.182 127.234 250.608C128.12 250.028 129.154 249.739 130.336 249.739C131.256 249.739 132.086 249.909 132.825 250.25C133.563 250.591 134.168 251.068 134.64 251.682C135.112 252.295 135.404 253.011 135.518 253.83H133.506C133.353 253.233 133.012 252.705 132.484 252.244C131.961 251.778 131.256 251.545 130.37 251.545C129.586 251.545 128.898 251.75 128.308 252.159C127.722 252.562 127.265 253.134 126.935 253.872C126.612 254.605 126.45 255.466 126.45 256.455C126.45 257.466 126.609 258.347 126.927 259.097C127.251 259.847 127.705 260.429 128.29 260.844C128.881 261.259 129.575 261.466 130.37 261.466C130.893 261.466 131.367 261.375 131.793 261.193C132.219 261.011 132.58 260.75 132.876 260.409C133.171 260.068 133.381 259.659 133.506 259.182H135.518C135.404 259.955 135.123 260.651 134.674 261.27C134.231 261.884 133.643 262.372 132.91 262.736C132.183 263.094 131.336 263.273 130.37 263.273ZM145.481 263V245.545H156.015V247.42H147.594V253.318H155.469V255.193H147.594V261.125H156.151V263H145.481ZM161.563 255.125V263H159.552V249.909H161.495V251.955H161.665C161.972 251.29 162.438 250.756 163.063 250.352C163.688 249.943 164.495 249.739 165.484 249.739C166.37 249.739 167.146 249.92 167.81 250.284C168.475 250.642 168.992 251.188 169.362 251.92C169.731 252.648 169.915 253.568 169.915 254.682V263H167.904V254.818C167.904 253.79 167.637 252.989 167.103 252.415C166.569 251.835 165.836 251.545 164.904 251.545C164.262 251.545 163.688 251.685 163.183 251.963C162.683 252.241 162.288 252.648 161.998 253.182C161.708 253.716 161.563 254.364 161.563 255.125ZM178.875 268.182C177.903 268.182 177.068 268.057 176.369 267.807C175.67 267.562 175.088 267.239 174.622 266.835C174.162 266.438 173.795 266.011 173.523 265.557L175.125 264.432C175.307 264.67 175.537 264.943 175.815 265.25C176.094 265.562 176.474 265.832 176.957 266.06C177.446 266.293 178.085 266.409 178.875 266.409C179.932 266.409 180.804 266.153 181.491 265.642C182.179 265.131 182.523 264.33 182.523 263.239V260.58H182.352C182.205 260.818 181.994 261.114 181.722 261.466C181.455 261.812 181.068 262.122 180.562 262.395C180.062 262.662 179.386 262.795 178.534 262.795C177.477 262.795 176.528 262.545 175.688 262.045C174.852 261.545 174.19 260.818 173.702 259.864C173.219 258.909 172.977 257.75 172.977 256.386C172.977 255.045 173.213 253.878 173.685 252.884C174.156 251.884 174.813 251.111 175.653 250.565C176.494 250.014 177.466 249.739 178.568 249.739C179.42 249.739 180.097 249.881 180.597 250.165C181.102 250.443 181.489 250.761 181.756 251.119C182.028 251.472 182.239 251.761 182.386 251.989H182.591V249.909H184.534V263.375C184.534 264.5 184.278 265.415 183.767 266.119C183.261 266.83 182.58 267.349 181.722 267.679C180.869 268.014 179.92 268.182 178.875 268.182ZM178.807 260.989C179.614 260.989 180.295 260.804 180.852 260.435C181.409 260.065 181.832 259.534 182.122 258.841C182.412 258.148 182.557 257.318 182.557 256.352C182.557 255.409 182.415 254.577 182.131 253.855C181.847 253.134 181.426 252.568 180.869 252.159C180.313 251.75 179.625 251.545 178.807 251.545C177.955 251.545 177.244 251.761 176.676 252.193C176.114 252.625 175.69 253.205 175.406 253.932C175.128 254.659 174.989 255.466 174.989 256.352C174.989 257.261 175.131 258.065 175.415 258.764C175.705 259.457 176.131 260.003 176.693 260.401C177.261 260.793 177.966 260.989 178.807 260.989ZM192.068 263.307C191.239 263.307 190.486 263.151 189.81 262.838C189.134 262.52 188.597 262.062 188.199 261.466C187.801 260.864 187.602 260.136 187.602 259.284C187.602 258.534 187.75 257.926 188.045 257.46C188.341 256.989 188.736 256.619 189.23 256.352C189.724 256.085 190.27 255.886 190.866 255.756C191.469 255.619 192.074 255.511 192.682 255.432C193.477 255.33 194.122 255.253 194.616 255.202C195.116 255.145 195.48 255.051 195.707 254.92C195.94 254.79 196.057 254.562 196.057 254.239V254.17C196.057 253.33 195.827 252.676 195.366 252.21C194.912 251.744 194.222 251.511 193.295 251.511C192.335 251.511 191.582 251.722 191.037 252.142C190.491 252.562 190.108 253.011 189.886 253.489L187.977 252.807C188.318 252.011 188.773 251.392 189.341 250.949C189.915 250.5 190.54 250.187 191.216 250.011C191.898 249.83 192.568 249.739 193.227 249.739C193.648 249.739 194.131 249.79 194.676 249.892C195.227 249.989 195.759 250.19 196.27 250.497C196.787 250.804 197.216 251.267 197.557 251.886C197.898 252.506 198.068 253.335 198.068 254.375V263H196.057V261.227H195.955C195.818 261.511 195.591 261.815 195.273 262.139C194.955 262.463 194.531 262.739 194.003 262.966C193.474 263.193 192.83 263.307 192.068 263.307ZM192.375 261.5C193.17 261.5 193.841 261.344 194.386 261.031C194.938 260.719 195.352 260.315 195.631 259.821C195.915 259.327 196.057 258.807 196.057 258.261V256.42C195.972 256.523 195.784 256.616 195.494 256.702C195.21 256.781 194.881 256.852 194.506 256.915C194.136 256.972 193.776 257.023 193.423 257.068C193.077 257.108 192.795 257.142 192.58 257.17C192.057 257.239 191.568 257.349 191.114 257.503C190.665 257.651 190.301 257.875 190.023 258.176C189.75 258.472 189.614 258.875 189.614 259.386C189.614 260.085 189.872 260.614 190.389 260.972C190.912 261.324 191.574 261.5 192.375 261.5ZM207.023 268.182C206.052 268.182 205.217 268.057 204.518 267.807C203.819 267.562 203.237 267.239 202.771 266.835C202.31 266.438 201.944 266.011 201.671 265.557L203.273 264.432C203.455 264.67 203.685 264.943 203.964 265.25C204.242 265.562 204.623 265.832 205.106 266.06C205.594 266.293 206.234 266.409 207.023 266.409C208.08 266.409 208.952 266.153 209.64 265.642C210.327 265.131 210.671 264.33 210.671 263.239V260.58H210.501C210.353 260.818 210.143 261.114 209.87 261.466C209.603 261.812 209.217 262.122 208.711 262.395C208.211 262.662 207.535 262.795 206.683 262.795C205.626 262.795 204.677 262.545 203.836 262.045C203.001 261.545 202.339 260.818 201.85 259.864C201.367 258.909 201.126 257.75 201.126 256.386C201.126 255.045 201.362 253.878 201.833 252.884C202.305 251.884 202.961 251.111 203.802 250.565C204.643 250.014 205.614 249.739 206.717 249.739C207.569 249.739 208.245 249.881 208.745 250.165C209.251 250.443 209.637 250.761 209.904 251.119C210.177 251.472 210.387 251.761 210.535 251.989H210.739V249.909H212.683V263.375C212.683 264.5 212.427 265.415 211.915 266.119C211.41 266.83 210.728 267.349 209.87 267.679C209.018 268.014 208.069 268.182 207.023 268.182ZM206.955 260.989C207.762 260.989 208.444 260.804 209.001 260.435C209.558 260.065 209.981 259.534 210.271 258.841C210.56 258.148 210.705 257.318 210.705 256.352C210.705 255.409 210.563 254.577 210.279 253.855C209.995 253.134 209.575 252.568 209.018 252.159C208.461 251.75 207.773 251.545 206.955 251.545C206.103 251.545 205.393 251.761 204.825 252.193C204.262 252.625 203.839 253.205 203.555 253.932C203.276 254.659 203.137 255.466 203.137 256.352C203.137 257.261 203.279 258.065 203.563 258.764C203.853 259.457 204.279 260.003 204.842 260.401C205.41 260.793 206.114 260.989 206.955 260.989ZM221.853 263.273C220.592 263.273 219.504 262.994 218.589 262.438C217.68 261.875 216.978 261.091 216.484 260.085C215.995 259.074 215.751 257.898 215.751 256.557C215.751 255.216 215.995 254.034 216.484 253.011C216.978 251.983 217.665 251.182 218.546 250.608C219.433 250.028 220.467 249.739 221.648 249.739C222.33 249.739 223.004 249.852 223.668 250.08C224.333 250.307 224.938 250.676 225.484 251.188C226.029 251.693 226.464 252.364 226.788 253.199C227.112 254.034 227.273 255.062 227.273 256.284V257.136H217.183V255.398H225.228C225.228 254.659 225.08 254 224.785 253.42C224.495 252.841 224.08 252.384 223.54 252.048C223.006 251.713 222.376 251.545 221.648 251.545C220.847 251.545 220.154 251.744 219.569 252.142C218.989 252.534 218.543 253.045 218.231 253.676C217.918 254.307 217.762 254.983 217.762 255.705V256.864C217.762 257.852 217.933 258.69 218.273 259.378C218.62 260.06 219.1 260.58 219.714 260.938C220.327 261.29 221.04 261.466 221.853 261.466C222.381 261.466 222.859 261.392 223.285 261.244C223.717 261.091 224.089 260.864 224.401 260.562C224.714 260.256 224.955 259.875 225.126 259.42L227.069 259.966C226.864 260.625 226.521 261.205 226.038 261.705C225.555 262.199 224.958 262.585 224.248 262.864C223.538 263.136 222.739 263.273 221.853 263.273ZM230.333 263V249.909H232.276V251.955H232.447C232.719 251.256 233.16 250.713 233.768 250.327C234.376 249.935 235.106 249.739 235.958 249.739C236.822 249.739 237.54 249.935 238.114 250.327C238.694 250.713 239.146 251.256 239.469 251.955H239.606C239.941 251.278 240.444 250.741 241.114 250.344C241.785 249.94 242.589 249.739 243.526 249.739C244.697 249.739 245.654 250.105 246.398 250.838C247.143 251.565 247.515 252.699 247.515 254.239V263H245.504V254.239C245.504 253.273 245.239 252.582 244.711 252.168C244.183 251.753 243.56 251.545 242.844 251.545C241.924 251.545 241.211 251.824 240.705 252.381C240.2 252.932 239.947 253.631 239.947 254.477V263H237.901V254.034C237.901 253.29 237.66 252.69 237.177 252.236C236.694 251.776 236.072 251.545 235.31 251.545C234.788 251.545 234.299 251.685 233.844 251.963C233.396 252.241 233.032 252.628 232.754 253.122C232.481 253.611 232.344 254.176 232.344 254.818V263H230.333ZM256.681 263.273C255.42 263.273 254.332 262.994 253.417 262.438C252.508 261.875 251.806 261.091 251.312 260.085C250.823 259.074 250.579 257.898 250.579 256.557C250.579 255.216 250.823 254.034 251.312 253.011C251.806 251.983 252.494 251.182 253.374 250.608C254.261 250.028 255.295 249.739 256.477 249.739C257.158 249.739 257.832 249.852 258.496 250.08C259.161 250.307 259.766 250.676 260.312 251.188C260.857 251.693 261.292 252.364 261.616 253.199C261.94 254.034 262.102 255.062 262.102 256.284V257.136H252.011V255.398H260.056C260.056 254.659 259.908 254 259.613 253.42C259.323 252.841 258.908 252.384 258.369 252.048C257.835 251.713 257.204 251.545 256.477 251.545C255.675 251.545 254.982 251.744 254.397 252.142C253.817 252.534 253.371 253.045 253.059 253.676C252.746 254.307 252.59 254.983 252.59 255.705V256.864C252.59 257.852 252.761 258.69 253.102 259.378C253.448 260.06 253.928 260.58 254.542 260.938C255.156 261.29 255.869 261.466 256.681 261.466C257.21 261.466 257.687 261.392 258.113 261.244C258.545 261.091 258.917 260.864 259.229 260.562C259.542 260.256 259.783 259.875 259.954 259.42L261.897 259.966C261.692 260.625 261.349 261.205 260.866 261.705C260.383 262.199 259.786 262.585 259.076 262.864C258.366 263.136 257.567 263.273 256.681 263.273ZM267.173 255.125V263H265.161V249.909H267.104V251.955H267.275C267.582 251.29 268.048 250.756 268.673 250.352C269.298 249.943 270.104 249.739 271.093 249.739C271.979 249.739 272.755 249.92 273.42 250.284C274.085 250.642 274.602 251.188 274.971 251.92C275.34 252.648 275.525 253.568 275.525 254.682V263H273.513V254.818C273.513 253.79 273.246 252.989 272.712 252.415C272.178 251.835 271.445 251.545 270.513 251.545C269.871 251.545 269.298 251.685 268.792 251.963C268.292 252.241 267.897 252.648 267.607 253.182C267.317 253.716 267.173 254.364 267.173 255.125ZM284.893 249.909V251.614H278.109V249.909H284.893ZM280.087 246.773H282.098V259.25C282.098 259.818 282.18 260.244 282.345 260.528C282.516 260.807 282.732 260.994 282.993 261.091C283.26 261.182 283.541 261.227 283.837 261.227C284.058 261.227 284.24 261.216 284.382 261.193C284.524 261.165 284.638 261.142 284.723 261.125L285.132 262.932C284.996 262.983 284.805 263.034 284.561 263.085C284.317 263.142 284.007 263.17 283.632 263.17C283.064 263.17 282.507 263.048 281.962 262.804C281.422 262.56 280.973 262.188 280.615 261.688C280.263 261.188 280.087 260.557 280.087 259.795V246.773Z" fill="black"/>
<path d="M92.6591 323.909C92.5568 323.045 92.142 322.375 91.4148 321.898C90.6875 321.42 89.7955 321.182 88.7386 321.182C87.9659 321.182 87.2898 321.307 86.7102 321.557C86.1364 321.807 85.6875 322.151 85.3636 322.588C85.0455 323.026 84.8864 323.523 84.8864 324.08C84.8864 324.545 84.9972 324.946 85.2188 325.281C85.446 325.611 85.7358 325.886 86.0881 326.108C86.4403 326.324 86.8097 326.503 87.196 326.645C87.5824 326.781 87.9375 326.892 88.2614 326.977L90.0341 327.455C90.4886 327.574 90.9943 327.739 91.5511 327.949C92.1136 328.159 92.6506 328.446 93.1619 328.81C93.679 329.168 94.1051 329.628 94.4403 330.19C94.7756 330.753 94.9432 331.443 94.9432 332.261C94.9432 333.205 94.696 334.057 94.2017 334.818C93.7131 335.58 92.9972 336.185 92.054 336.634C91.1165 337.082 89.9773 337.307 88.6364 337.307C87.3864 337.307 86.304 337.105 85.3892 336.702C84.4801 336.298 83.7642 335.736 83.2415 335.014C82.7244 334.293 82.4318 333.455 82.3636 332.5H84.5455C84.6023 333.159 84.8239 333.705 85.2102 334.136C85.6023 334.562 86.0966 334.881 86.6932 335.091C87.2955 335.295 87.9432 335.398 88.6364 335.398C89.4432 335.398 90.1676 335.267 90.8097 335.006C91.4517 334.739 91.9602 334.369 92.3352 333.898C92.7102 333.42 92.8977 332.864 92.8977 332.227C92.8977 331.648 92.7358 331.176 92.4119 330.812C92.0881 330.449 91.6619 330.153 91.1335 329.926C90.6051 329.699 90.0341 329.5 89.4205 329.33L87.2727 328.716C85.9091 328.324 84.8295 327.764 84.0341 327.037C83.2386 326.31 82.8409 325.358 82.8409 324.182C82.8409 323.205 83.1051 322.352 83.6335 321.625C84.1676 320.892 84.8835 320.324 85.7812 319.92C86.6847 319.511 87.6932 319.307 88.8068 319.307C89.9318 319.307 90.9318 319.509 91.8068 319.912C92.6818 320.31 93.375 320.855 93.8864 321.548C94.4034 322.241 94.6761 323.028 94.7045 323.909H92.6591ZM98.1456 341.909V323.909H100.089V325.989H100.327C100.475 325.761 100.68 325.472 100.941 325.119C101.208 324.761 101.589 324.443 102.083 324.165C102.583 323.881 103.259 323.739 104.112 323.739C105.214 323.739 106.185 324.014 107.026 324.565C107.867 325.116 108.523 325.898 108.995 326.909C109.467 327.92 109.702 329.114 109.702 330.489C109.702 331.875 109.467 333.077 108.995 334.094C108.523 335.105 107.87 335.889 107.035 336.446C106.2 336.997 105.237 337.273 104.146 337.273C103.305 337.273 102.631 337.134 102.126 336.855C101.62 336.571 101.231 336.25 100.958 335.892C100.685 335.528 100.475 335.227 100.327 334.989H100.157V341.909H98.1456ZM100.123 330.455C100.123 331.443 100.268 332.315 100.558 333.071C100.847 333.821 101.271 334.409 101.827 334.835C102.384 335.256 103.066 335.466 103.873 335.466C104.714 335.466 105.415 335.244 105.978 334.801C106.546 334.352 106.972 333.75 107.256 332.994C107.546 332.233 107.691 331.386 107.691 330.455C107.691 329.534 107.549 328.705 107.265 327.966C106.987 327.222 106.563 326.634 105.995 326.202C105.433 325.764 104.725 325.545 103.873 325.545C103.055 325.545 102.367 325.753 101.81 326.168C101.254 326.577 100.833 327.151 100.549 327.889C100.265 328.622 100.123 329.477 100.123 330.455ZM118.089 337.273C116.907 337.273 115.87 336.991 114.978 336.429C114.092 335.866 113.398 335.08 112.898 334.068C112.404 333.057 112.157 331.875 112.157 330.523C112.157 329.159 112.404 327.969 112.898 326.952C113.398 325.935 114.092 325.145 114.978 324.582C115.87 324.02 116.907 323.739 118.089 323.739C119.271 323.739 120.305 324.02 121.191 324.582C122.083 325.145 122.776 325.935 123.271 326.952C123.771 327.969 124.021 329.159 124.021 330.523C124.021 331.875 123.771 333.057 123.271 334.068C122.776 335.08 122.083 335.866 121.191 336.429C120.305 336.991 119.271 337.273 118.089 337.273ZM118.089 335.466C118.987 335.466 119.725 335.236 120.305 334.776C120.884 334.315 121.313 333.71 121.592 332.96C121.87 332.21 122.009 331.398 122.009 330.523C122.009 329.648 121.87 328.832 121.592 328.077C121.313 327.321 120.884 326.71 120.305 326.244C119.725 325.778 118.987 325.545 118.089 325.545C117.191 325.545 116.452 325.778 115.873 326.244C115.293 326.71 114.864 327.321 114.586 328.077C114.308 328.832 114.168 329.648 114.168 330.523C114.168 331.398 114.308 332.21 114.586 332.96C114.864 333.71 115.293 334.315 115.873 334.776C116.452 335.236 117.191 335.466 118.089 335.466ZM127.091 337V323.909H129.034V325.886H129.17C129.409 325.239 129.841 324.713 130.466 324.31C131.091 323.906 131.795 323.705 132.58 323.705C132.727 323.705 132.912 323.707 133.134 323.713C133.355 323.719 133.523 323.727 133.636 323.739V325.784C133.568 325.767 133.412 325.741 133.168 325.707C132.929 325.668 132.676 325.648 132.409 325.648C131.773 325.648 131.205 325.781 130.705 326.048C130.21 326.31 129.818 326.673 129.528 327.139C129.244 327.599 129.102 328.125 129.102 328.716V337H127.091ZM142.534 323.909V325.614H135.75V323.909H142.534ZM137.727 320.773H139.739V333.25C139.739 333.818 139.821 334.244 139.986 334.528C140.156 334.807 140.372 334.994 140.634 335.091C140.901 335.182 141.182 335.227 141.477 335.227C141.699 335.227 141.881 335.216 142.023 335.193C142.165 335.165 142.278 335.142 142.364 335.125L142.773 336.932C142.636 336.983 142.446 337.034 142.202 337.085C141.957 337.142 141.648 337.17 141.273 337.17C140.705 337.17 140.148 337.048 139.602 336.804C139.063 336.56 138.614 336.188 138.256 335.688C137.903 335.188 137.727 334.557 137.727 333.795V320.773ZM154.598 326.841L152.791 327.352C152.678 327.051 152.51 326.759 152.288 326.474C152.072 326.185 151.777 325.946 151.402 325.759C151.027 325.571 150.547 325.477 149.962 325.477C149.161 325.477 148.493 325.662 147.959 326.031C147.43 326.395 147.166 326.858 147.166 327.42C147.166 327.92 147.348 328.315 147.712 328.605C148.075 328.895 148.643 329.136 149.416 329.33L151.359 329.807C152.53 330.091 153.402 330.526 153.976 331.111C154.55 331.69 154.837 332.437 154.837 333.352C154.837 334.102 154.621 334.773 154.189 335.364C153.763 335.955 153.166 336.42 152.399 336.761C151.632 337.102 150.74 337.273 149.723 337.273C148.388 337.273 147.283 336.983 146.408 336.403C145.533 335.824 144.979 334.977 144.746 333.864L146.655 333.386C146.837 334.091 147.18 334.619 147.686 334.972C148.197 335.324 148.865 335.5 149.689 335.5C150.626 335.5 151.371 335.301 151.922 334.903C152.479 334.5 152.757 334.017 152.757 333.455C152.757 333 152.598 332.619 152.28 332.312C151.962 332 151.473 331.767 150.814 331.614L148.632 331.102C147.433 330.818 146.553 330.378 145.99 329.781C145.433 329.179 145.155 328.426 145.155 327.523C145.155 326.784 145.362 326.131 145.777 325.562C146.197 324.994 146.768 324.548 147.49 324.224C148.217 323.901 149.041 323.739 149.962 323.739C151.257 323.739 152.274 324.023 153.013 324.591C153.757 325.159 154.286 325.909 154.598 326.841ZM169.558 337.239C168.41 337.239 167.421 337.028 166.592 336.608C165.762 336.187 165.123 335.611 164.674 334.878C164.225 334.145 164.001 333.307 164.001 332.364C164.001 331.636 164.154 330.991 164.461 330.429C164.773 329.861 165.202 329.335 165.748 328.852C166.299 328.364 166.933 327.875 167.648 327.386L170.171 325.511C170.665 325.187 171.06 324.841 171.356 324.472C171.657 324.102 171.808 323.619 171.808 323.023C171.808 322.58 171.612 322.151 171.219 321.736C170.833 321.321 170.325 321.114 169.694 321.114C169.251 321.114 168.859 321.227 168.518 321.455C168.183 321.676 167.918 321.96 167.725 322.307C167.538 322.648 167.444 323 167.444 323.364C167.444 323.773 167.555 324.188 167.776 324.608C168.004 325.023 168.29 325.449 168.637 325.886C168.989 326.318 169.353 326.761 169.728 327.216L177.739 337H175.319L168.705 329.023C168.092 328.284 167.535 327.614 167.035 327.011C166.535 326.409 166.137 325.815 165.842 325.23C165.546 324.645 165.398 324.011 165.398 323.33C165.398 322.545 165.572 321.858 165.918 321.267C166.271 320.67 166.762 320.207 167.393 319.878C168.029 319.543 168.773 319.375 169.626 319.375C170.501 319.375 171.254 319.545 171.884 319.886C172.515 320.222 173.001 320.668 173.342 321.224C173.683 321.776 173.853 322.375 173.853 323.023C173.853 323.858 173.646 324.582 173.231 325.196C172.816 325.81 172.251 326.381 171.535 326.909L168.058 329.5C167.273 330.08 166.742 330.642 166.464 331.188C166.185 331.733 166.046 332.125 166.046 332.364C166.046 332.909 166.188 333.418 166.472 333.889C166.756 334.361 167.157 334.741 167.674 335.031C168.191 335.321 168.796 335.466 169.489 335.466C170.148 335.466 170.79 335.327 171.415 335.048C172.04 334.764 172.606 334.355 173.112 333.821C173.623 333.287 174.026 332.645 174.322 331.895C174.623 331.145 174.773 330.301 174.773 329.364H176.717C176.717 330.523 176.583 331.469 176.316 332.202C176.049 332.935 175.748 333.509 175.413 333.923C175.077 334.338 174.808 334.648 174.603 334.852C174.535 334.937 174.472 335.023 174.415 335.108C174.359 335.193 174.296 335.278 174.228 335.364C173.665 335.994 172.955 336.466 172.097 336.778C171.239 337.085 170.393 337.239 169.558 337.239ZM187.705 337H185.489L191.898 319.545H194.08L200.489 337H198.273L193.057 322.307H192.92L187.705 337ZM188.523 330.182H197.455V332.057H188.523V330.182ZM208.253 337.273C207.026 337.273 205.969 336.983 205.082 336.403C204.196 335.824 203.514 335.026 203.037 334.009C202.56 332.991 202.321 331.83 202.321 330.523C202.321 329.193 202.565 328.02 203.054 327.003C203.548 325.98 204.236 325.182 205.116 324.608C206.003 324.028 207.037 323.739 208.219 323.739C209.139 323.739 209.969 323.909 210.707 324.25C211.446 324.591 212.051 325.068 212.523 325.682C212.994 326.295 213.287 327.011 213.401 327.83H211.389C211.236 327.233 210.895 326.705 210.366 326.244C209.844 325.778 209.139 325.545 208.253 325.545C207.469 325.545 206.781 325.75 206.19 326.159C205.605 326.562 205.148 327.134 204.818 327.872C204.494 328.605 204.332 329.466 204.332 330.455C204.332 331.466 204.491 332.347 204.81 333.097C205.134 333.847 205.588 334.429 206.173 334.844C206.764 335.259 207.457 335.466 208.253 335.466C208.776 335.466 209.25 335.375 209.676 335.193C210.102 335.011 210.463 334.75 210.759 334.409C211.054 334.068 211.264 333.659 211.389 333.182H213.401C213.287 333.955 213.006 334.651 212.557 335.27C212.114 335.884 211.526 336.372 210.793 336.736C210.065 337.094 209.219 337.273 208.253 337.273ZM222.034 323.909V325.614H215.25V323.909H222.034ZM217.227 320.773H219.239V333.25C219.239 333.818 219.321 334.244 219.486 334.528C219.656 334.807 219.872 334.994 220.134 335.091C220.401 335.182 220.682 335.227 220.977 335.227C221.199 335.227 221.381 335.216 221.523 335.193C221.665 335.165 221.778 335.142 221.864 335.125L222.273 336.932C222.136 336.983 221.946 337.034 221.702 337.085C221.457 337.142 221.148 337.17 220.773 337.17C220.205 337.17 219.648 337.048 219.102 336.804C218.563 336.56 218.114 336.188 217.756 335.688C217.403 335.188 217.227 334.557 217.227 333.795V320.773ZM225.06 337V323.909H227.071V337H225.06ZM226.082 321.727C225.69 321.727 225.352 321.594 225.068 321.327C224.79 321.06 224.651 320.739 224.651 320.364C224.651 319.989 224.79 319.668 225.068 319.401C225.352 319.134 225.69 319 226.082 319C226.474 319 226.81 319.134 227.088 319.401C227.372 319.668 227.514 319.989 227.514 320.364C227.514 320.739 227.372 321.06 227.088 321.327C226.81 321.594 226.474 321.727 226.082 321.727ZM241.46 323.909L236.619 337H234.573L229.732 323.909H231.914L235.528 334.341H235.664L239.278 323.909H241.46ZM244.114 337V323.909H246.126V337H244.114ZM245.137 321.727C244.745 321.727 244.407 321.594 244.123 321.327C243.844 321.06 243.705 320.739 243.705 320.364C243.705 319.989 243.844 319.668 244.123 319.401C244.407 319.134 244.745 319 245.137 319C245.529 319 245.864 319.134 246.143 319.401C246.427 319.668 246.569 319.989 246.569 320.364C246.569 320.739 246.427 321.06 246.143 321.327C245.864 321.594 245.529 321.727 245.137 321.727ZM255.503 323.909V325.614H248.719V323.909H255.503ZM250.696 320.773H252.707V333.25C252.707 333.818 252.79 334.244 252.955 334.528C253.125 334.807 253.341 334.994 253.602 335.091C253.869 335.182 254.151 335.227 254.446 335.227C254.668 335.227 254.849 335.216 254.991 335.193C255.134 335.165 255.247 335.142 255.332 335.125L255.741 336.932C255.605 336.983 255.415 337.034 255.17 337.085C254.926 337.142 254.616 337.17 254.241 337.17C253.673 337.17 253.116 337.048 252.571 336.804C252.031 336.56 251.582 336.188 251.224 335.688C250.872 335.188 250.696 334.557 250.696 333.795V320.773ZM258.528 337V323.909H260.54V337H258.528ZM259.551 321.727C259.159 321.727 258.821 321.594 258.537 321.327C258.259 321.06 258.119 320.739 258.119 320.364C258.119 319.989 258.259 319.668 258.537 319.401C258.821 319.134 259.159 319 259.551 319C259.943 319 260.278 319.134 260.557 319.401C260.841 319.668 260.983 319.989 260.983 320.364C260.983 320.739 260.841 321.06 260.557 321.327C260.278 321.594 259.943 321.727 259.551 321.727ZM269.712 337.273C268.451 337.273 267.363 336.994 266.448 336.438C265.539 335.875 264.837 335.091 264.343 334.085C263.854 333.074 263.61 331.898 263.61 330.557C263.61 329.216 263.854 328.034 264.343 327.011C264.837 325.983 265.525 325.182 266.406 324.608C267.292 324.028 268.326 323.739 269.508 323.739C270.19 323.739 270.863 323.852 271.528 324.08C272.192 324.307 272.798 324.676 273.343 325.188C273.888 325.693 274.323 326.364 274.647 327.199C274.971 328.034 275.133 329.062 275.133 330.284V331.136H265.042V329.398H273.087C273.087 328.659 272.94 328 272.644 327.42C272.354 326.841 271.94 326.384 271.4 326.048C270.866 325.713 270.235 325.545 269.508 325.545C268.707 325.545 268.013 325.744 267.428 326.142C266.849 326.534 266.403 327.045 266.09 327.676C265.778 328.307 265.621 328.983 265.621 329.705V330.864C265.621 331.852 265.792 332.69 266.133 333.378C266.479 334.06 266.96 334.58 267.573 334.938C268.187 335.29 268.9 335.466 269.712 335.466C270.241 335.466 270.718 335.392 271.144 335.244C271.576 335.091 271.948 334.864 272.261 334.562C272.573 334.256 272.815 333.875 272.985 333.42L274.928 333.966C274.724 334.625 274.38 335.205 273.897 335.705C273.414 336.199 272.817 336.585 272.107 336.864C271.397 337.136 270.599 337.273 269.712 337.273ZM287.465 326.841L285.658 327.352C285.545 327.051 285.377 326.759 285.156 326.474C284.94 326.185 284.644 325.946 284.269 325.759C283.894 325.571 283.414 325.477 282.829 325.477C282.028 325.477 281.36 325.662 280.826 326.031C280.298 326.395 280.033 326.858 280.033 327.42C280.033 327.92 280.215 328.315 280.579 328.605C280.942 328.895 281.511 329.136 282.283 329.33L284.227 329.807C285.397 330.091 286.269 330.526 286.843 331.111C287.417 331.69 287.704 332.437 287.704 333.352C287.704 334.102 287.488 334.773 287.056 335.364C286.63 335.955 286.033 336.42 285.266 336.761C284.499 337.102 283.607 337.273 282.59 337.273C281.255 337.273 280.15 336.983 279.275 336.403C278.4 335.824 277.846 334.977 277.613 333.864L279.522 333.386C279.704 334.091 280.048 334.619 280.553 334.972C281.065 335.324 281.732 335.5 282.556 335.5C283.494 335.5 284.238 335.301 284.789 334.903C285.346 334.5 285.624 334.017 285.624 333.455C285.624 333 285.465 332.619 285.147 332.312C284.829 332 284.34 331.767 283.681 331.614L281.499 331.102C280.3 330.818 279.42 330.378 278.857 329.781C278.3 329.179 278.022 328.426 278.022 327.523C278.022 326.784 278.229 326.131 278.644 325.562C279.065 324.994 279.636 324.548 280.357 324.224C281.085 323.901 281.908 323.739 282.829 323.739C284.124 323.739 285.141 324.023 285.88 324.591C286.624 325.159 287.153 325.909 287.465 326.841Z" fill="black"/>
<path d="M97.1591 399H95.0455C94.9205 398.392 94.7017 397.858 94.3892 397.398C94.0824 396.938 93.7074 396.551 93.2642 396.239C92.8267 395.92 92.3409 395.682 91.8068 395.523C91.2727 395.364 90.7159 395.284 90.1364 395.284C89.0795 395.284 88.1222 395.551 87.2642 396.085C86.4119 396.619 85.733 397.406 85.2273 398.446C84.7273 399.486 84.4773 400.761 84.4773 402.273C84.4773 403.784 84.7273 405.06 85.2273 406.099C85.733 407.139 86.4119 407.926 87.2642 408.46C88.1222 408.994 89.0795 409.261 90.1364 409.261C90.7159 409.261 91.2727 409.182 91.8068 409.023C92.3409 408.864 92.8267 408.628 93.2642 408.315C93.7074 407.997 94.0824 407.608 94.3892 407.148C94.7017 406.682 94.9205 406.148 95.0455 405.545H97.1591C97 406.437 96.7102 407.236 96.2898 407.94C95.8693 408.645 95.3466 409.244 94.7216 409.739C94.0966 410.227 93.3949 410.599 92.6165 410.855C91.8438 411.111 91.017 411.239 90.1364 411.239C88.6477 411.239 87.3239 410.875 86.1648 410.148C85.0057 409.42 84.0938 408.386 83.429 407.045C82.7642 405.705 82.4318 404.114 82.4318 402.273C82.4318 400.432 82.7642 398.841 83.429 397.5C84.0938 396.159 85.0057 395.125 86.1648 394.398C87.3239 393.67 88.6477 393.307 90.1364 393.307C91.017 393.307 91.8438 393.435 92.6165 393.69C93.3949 393.946 94.0966 394.321 94.7216 394.815C95.3466 395.304 95.8693 395.901 96.2898 396.605C96.7102 397.304 97 398.102 97.1591 399ZM104.154 411.307C103.325 411.307 102.572 411.151 101.896 410.838C101.219 410.52 100.683 410.062 100.285 409.466C99.8871 408.864 99.6882 408.136 99.6882 407.284C99.6882 406.534 99.8359 405.926 100.131 405.46C100.427 404.989 100.822 404.619 101.316 404.352C101.81 404.085 102.356 403.886 102.952 403.756C103.555 403.619 104.16 403.511 104.768 403.432C105.563 403.33 106.208 403.253 106.702 403.202C107.202 403.145 107.566 403.051 107.793 402.92C108.026 402.79 108.143 402.562 108.143 402.239V402.17C108.143 401.33 107.913 400.676 107.452 400.21C106.998 399.744 106.308 399.511 105.381 399.511C104.421 399.511 103.668 399.722 103.123 400.142C102.577 400.562 102.194 401.011 101.972 401.489L100.063 400.807C100.404 400.011 100.859 399.392 101.427 398.949C102.001 398.5 102.626 398.187 103.302 398.011C103.984 397.83 104.654 397.739 105.313 397.739C105.734 397.739 106.217 397.79 106.762 397.892C107.313 397.989 107.844 398.19 108.356 398.497C108.873 398.804 109.302 399.267 109.643 399.886C109.984 400.506 110.154 401.335 110.154 402.375V411H108.143V409.227H108.04C107.904 409.511 107.677 409.815 107.359 410.139C107.04 410.463 106.617 410.739 106.089 410.966C105.56 411.193 104.915 411.307 104.154 411.307ZM104.461 409.5C105.256 409.5 105.927 409.344 106.472 409.031C107.023 408.719 107.438 408.315 107.717 407.821C108.001 407.327 108.143 406.807 108.143 406.261V404.42C108.058 404.523 107.87 404.616 107.58 404.702C107.296 404.781 106.967 404.852 106.592 404.915C106.222 404.972 105.862 405.023 105.509 405.068C105.163 405.108 104.881 405.142 104.665 405.17C104.143 405.239 103.654 405.349 103.2 405.503C102.751 405.651 102.387 405.875 102.109 406.176C101.836 406.472 101.7 406.875 101.7 407.386C101.7 408.085 101.958 408.614 102.475 408.972C102.998 409.324 103.66 409.5 104.461 409.5ZM113.825 411V397.909H115.768V399.886H115.905C116.143 399.239 116.575 398.713 117.2 398.31C117.825 397.906 118.53 397.705 119.314 397.705C119.462 397.705 119.646 397.707 119.868 397.713C120.089 397.719 120.257 397.727 120.371 397.739V399.784C120.303 399.767 120.146 399.741 119.902 399.707C119.663 399.668 119.411 399.648 119.143 399.648C118.507 399.648 117.939 399.781 117.439 400.048C116.945 400.31 116.553 400.673 116.263 401.139C115.979 401.599 115.837 402.125 115.837 402.716V411H113.825ZM127.845 411.273C126.584 411.273 125.496 410.994 124.581 410.438C123.672 409.875 122.97 409.091 122.476 408.085C121.987 407.074 121.743 405.898 121.743 404.557C121.743 403.216 121.987 402.034 122.476 401.011C122.97 399.983 123.658 399.182 124.538 398.608C125.425 398.028 126.459 397.739 127.641 397.739C128.322 397.739 128.996 397.852 129.661 398.08C130.325 398.307 130.93 398.676 131.476 399.188C132.021 399.693 132.456 400.364 132.78 401.199C133.104 402.034 133.266 403.062 133.266 404.284V405.136H123.175V403.398H131.22C131.22 402.659 131.072 402 130.777 401.42C130.487 400.841 130.072 400.384 129.533 400.048C128.999 399.713 128.368 399.545 127.641 399.545C126.839 399.545 126.146 399.744 125.561 400.142C124.982 400.534 124.536 401.045 124.223 401.676C123.911 402.307 123.754 402.983 123.754 403.705V404.864C123.754 405.852 123.925 406.69 124.266 407.378C124.612 408.06 125.092 408.58 125.706 408.938C126.32 409.29 127.033 409.466 127.845 409.466C128.374 409.466 128.851 409.392 129.277 409.244C129.709 409.091 130.081 408.864 130.393 408.562C130.706 408.256 130.947 407.875 131.118 407.42L133.061 407.966C132.857 408.625 132.513 409.205 132.03 409.705C131.547 410.199 130.95 410.585 130.24 410.864C129.53 411.136 128.732 411.273 127.845 411.273ZM141.814 411.273C140.553 411.273 139.464 410.994 138.55 410.438C137.641 409.875 136.939 409.091 136.445 408.085C135.956 407.074 135.712 405.898 135.712 404.557C135.712 403.216 135.956 402.034 136.445 401.011C136.939 399.983 137.626 399.182 138.507 398.608C139.393 398.028 140.428 397.739 141.609 397.739C142.291 397.739 142.964 397.852 143.629 398.08C144.294 398.307 144.899 398.676 145.445 399.188C145.99 399.693 146.425 400.364 146.749 401.199C147.072 402.034 147.234 403.062 147.234 404.284V405.136H137.143V403.398H145.189C145.189 402.659 145.041 402 144.746 401.42C144.456 400.841 144.041 400.384 143.501 400.048C142.967 399.713 142.337 399.545 141.609 399.545C140.808 399.545 140.115 399.744 139.53 400.142C138.95 400.534 138.504 401.045 138.192 401.676C137.879 402.307 137.723 402.983 137.723 403.705V404.864C137.723 405.852 137.893 406.69 138.234 407.378C138.581 408.06 139.061 408.58 139.675 408.938C140.288 409.29 141.001 409.466 141.814 409.466C142.342 409.466 142.82 409.392 143.246 409.244C143.678 409.091 144.05 408.864 144.362 408.562C144.675 408.256 144.916 407.875 145.087 407.42L147.03 407.966C146.825 408.625 146.482 409.205 145.999 409.705C145.516 410.199 144.919 410.585 144.209 410.864C143.499 411.136 142.7 411.273 141.814 411.273ZM150.294 411V397.909H152.237V399.886H152.374C152.612 399.239 153.044 398.713 153.669 398.31C154.294 397.906 154.999 397.705 155.783 397.705C155.93 397.705 156.115 397.707 156.337 397.713C156.558 397.719 156.726 397.727 156.839 397.739V399.784C156.771 399.767 156.615 399.741 156.371 399.707C156.132 399.668 155.879 399.648 155.612 399.648C154.976 399.648 154.408 399.781 153.908 400.048C153.413 400.31 153.021 400.673 152.732 401.139C152.447 401.599 152.305 402.125 152.305 402.716V411H150.294ZM171.633 411H166.246V393.545H171.871C173.565 393.545 175.013 393.895 176.218 394.594C177.423 395.287 178.346 396.284 178.988 397.585C179.63 398.881 179.951 400.432 179.951 402.239C179.951 404.057 179.627 405.622 178.979 406.935C178.332 408.241 177.388 409.247 176.15 409.952C174.911 410.651 173.406 411 171.633 411ZM168.36 409.125H171.496C172.94 409.125 174.136 408.847 175.085 408.29C176.033 407.733 176.741 406.94 177.207 405.912C177.673 404.884 177.906 403.659 177.906 402.239C177.906 400.83 177.675 399.616 177.215 398.599C176.755 397.577 176.067 396.793 175.153 396.247C174.238 395.696 173.099 395.42 171.735 395.42H168.36V409.125ZM188.712 411.273C187.451 411.273 186.363 410.994 185.448 410.438C184.539 409.875 183.837 409.091 183.343 408.085C182.854 407.074 182.61 405.898 182.61 404.557C182.61 403.216 182.854 402.034 183.343 401.011C183.837 399.983 184.525 399.182 185.406 398.608C186.292 398.028 187.326 397.739 188.508 397.739C189.19 397.739 189.863 397.852 190.528 398.08C191.192 398.307 191.798 398.676 192.343 399.188C192.888 399.693 193.323 400.364 193.647 401.199C193.971 402.034 194.133 403.062 194.133 404.284V405.136H184.042V403.398H192.087C192.087 402.659 191.94 402 191.644 401.42C191.354 400.841 190.94 400.384 190.4 400.048C189.866 399.713 189.235 399.545 188.508 399.545C187.707 399.545 187.013 399.744 186.428 400.142C185.849 400.534 185.403 401.045 185.09 401.676C184.778 402.307 184.621 402.983 184.621 403.705V404.864C184.621 405.852 184.792 406.69 185.133 407.378C185.479 408.06 185.96 408.58 186.573 408.938C187.187 409.29 187.9 409.466 188.712 409.466C189.241 409.466 189.718 409.392 190.144 409.244C190.576 409.091 190.948 408.864 191.261 408.562C191.573 408.256 191.815 407.875 191.985 407.42L193.928 407.966C193.724 408.625 193.38 409.205 192.897 409.705C192.414 410.199 191.817 410.585 191.107 410.864C190.397 411.136 189.599 411.273 188.712 411.273ZM207.499 397.909L202.658 411H200.612L195.771 397.909H197.953L201.567 408.341H201.703L205.317 397.909H207.499ZM215.173 411.273C213.912 411.273 212.824 410.994 211.909 410.438C211 409.875 210.298 409.091 209.804 408.085C209.315 407.074 209.071 405.898 209.071 404.557C209.071 403.216 209.315 402.034 209.804 401.011C210.298 399.983 210.986 399.182 211.866 398.608C212.753 398.028 213.787 397.739 214.969 397.739C215.651 397.739 216.324 397.852 216.989 398.08C217.653 398.307 218.259 398.676 218.804 399.188C219.349 399.693 219.784 400.364 220.108 401.199C220.432 402.034 220.594 403.062 220.594 404.284V405.136H210.503V403.398H218.548C218.548 402.659 218.401 402 218.105 401.42C217.815 400.841 217.401 400.384 216.861 400.048C216.327 399.713 215.696 399.545 214.969 399.545C214.168 399.545 213.474 399.744 212.889 400.142C212.31 400.534 211.864 401.045 211.551 401.676C211.239 402.307 211.082 402.983 211.082 403.705V404.864C211.082 405.852 211.253 406.69 211.594 407.378C211.94 408.06 212.42 408.58 213.034 408.938C213.648 409.29 214.361 409.466 215.173 409.466C215.702 409.466 216.179 409.392 216.605 409.244C217.037 409.091 217.409 408.864 217.722 408.562C218.034 408.256 218.276 407.875 218.446 407.42L220.389 407.966C220.185 408.625 219.841 409.205 219.358 409.705C218.875 410.199 218.278 410.585 217.568 410.864C216.858 411.136 216.06 411.273 215.173 411.273ZM225.665 393.545V411H223.653V393.545H225.665ZM234.667 411.273C233.485 411.273 232.448 410.991 231.556 410.429C230.67 409.866 229.977 409.08 229.477 408.068C228.982 407.057 228.735 405.875 228.735 404.523C228.735 403.159 228.982 401.969 229.477 400.952C229.977 399.935 230.67 399.145 231.556 398.582C232.448 398.02 233.485 397.739 234.667 397.739C235.849 397.739 236.883 398.02 237.769 398.582C238.661 399.145 239.354 399.935 239.849 400.952C240.349 401.969 240.599 403.159 240.599 404.523C240.599 405.875 240.349 407.057 239.849 408.068C239.354 409.08 238.661 409.866 237.769 410.429C236.883 410.991 235.849 411.273 234.667 411.273ZM234.667 409.466C235.565 409.466 236.303 409.236 236.883 408.776C237.462 408.315 237.891 407.71 238.17 406.96C238.448 406.21 238.587 405.398 238.587 404.523C238.587 403.648 238.448 402.832 238.17 402.077C237.891 401.321 237.462 400.71 236.883 400.244C236.303 399.778 235.565 399.545 234.667 399.545C233.769 399.545 233.031 399.778 232.451 400.244C231.871 400.71 231.442 401.321 231.164 402.077C230.886 402.832 230.746 403.648 230.746 404.523C230.746 405.398 230.886 406.21 231.164 406.96C231.442 407.71 231.871 408.315 232.451 408.776C233.031 409.236 233.769 409.466 234.667 409.466ZM243.669 415.909V397.909H245.612V399.989H245.851C245.999 399.761 246.203 399.472 246.464 399.119C246.732 398.761 247.112 398.443 247.607 398.165C248.107 397.881 248.783 397.739 249.635 397.739C250.737 397.739 251.709 398.014 252.55 398.565C253.391 399.116 254.047 399.898 254.518 400.909C254.99 401.92 255.226 403.114 255.226 404.489C255.226 405.875 254.99 407.077 254.518 408.094C254.047 409.105 253.393 409.889 252.558 410.446C251.723 410.997 250.76 411.273 249.669 411.273C248.828 411.273 248.155 411.134 247.649 410.855C247.143 410.571 246.754 410.25 246.482 409.892C246.209 409.528 245.999 409.227 245.851 408.989H245.68V415.909H243.669ZM245.646 404.455C245.646 405.443 245.791 406.315 246.081 407.071C246.371 407.821 246.794 408.409 247.351 408.835C247.908 409.256 248.589 409.466 249.396 409.466C250.237 409.466 250.939 409.244 251.501 408.801C252.07 408.352 252.496 407.75 252.78 406.994C253.07 406.233 253.214 405.386 253.214 404.455C253.214 403.534 253.072 402.705 252.788 401.966C252.51 401.222 252.087 400.634 251.518 400.202C250.956 399.764 250.249 399.545 249.396 399.545C248.578 399.545 247.891 399.753 247.334 400.168C246.777 400.577 246.357 401.151 246.072 401.889C245.788 402.622 245.646 403.477 245.646 404.455ZM258.294 411V397.909H260.237V399.955H260.408C260.68 399.256 261.121 398.713 261.729 398.327C262.337 397.935 263.067 397.739 263.919 397.739C264.783 397.739 265.501 397.935 266.075 398.327C266.655 398.713 267.107 399.256 267.43 399.955H267.567C267.902 399.278 268.405 398.741 269.075 398.344C269.746 397.94 270.55 397.739 271.487 397.739C272.658 397.739 273.615 398.105 274.359 398.838C275.104 399.565 275.476 400.699 275.476 402.239V411H273.464V402.239C273.464 401.273 273.2 400.582 272.672 400.168C272.143 399.753 271.521 399.545 270.805 399.545C269.885 399.545 269.172 399.824 268.666 400.381C268.161 400.932 267.908 401.631 267.908 402.477V411H265.862V402.034C265.862 401.29 265.621 400.69 265.138 400.236C264.655 399.776 264.033 399.545 263.271 399.545C262.749 399.545 262.26 399.685 261.805 399.963C261.357 400.241 260.993 400.628 260.714 401.122C260.442 401.611 260.305 402.176 260.305 402.818V411H258.294ZM284.642 411.273C283.381 411.273 282.293 410.994 281.378 410.438C280.469 409.875 279.767 409.091 279.273 408.085C278.784 407.074 278.54 405.898 278.54 404.557C278.54 403.216 278.784 402.034 279.273 401.011C279.767 399.983 280.455 399.182 281.335 398.608C282.222 398.028 283.256 397.739 284.438 397.739C285.119 397.739 285.793 397.852 286.457 398.08C287.122 398.307 287.727 398.676 288.273 399.188C288.818 399.693 289.253 400.364 289.577 401.199C289.901 402.034 290.062 403.062 290.062 404.284V405.136H279.972V403.398H288.017C288.017 402.659 287.869 402 287.574 401.42C287.284 400.841 286.869 400.384 286.33 400.048C285.795 399.713 285.165 399.545 284.438 399.545C283.636 399.545 282.943 399.744 282.358 400.142C281.778 400.534 281.332 401.045 281.02 401.676C280.707 402.307 280.551 402.983 280.551 403.705V404.864C280.551 405.852 280.722 406.69 281.062 407.378C281.409 408.06 281.889 408.58 282.503 408.938C283.116 409.29 283.83 409.466 284.642 409.466C285.17 409.466 285.648 409.392 286.074 409.244C286.506 409.091 286.878 408.864 287.19 408.562C287.503 408.256 287.744 407.875 287.915 407.42L289.858 407.966C289.653 408.625 289.31 409.205 288.827 409.705C288.344 410.199 287.747 410.585 287.037 410.864C286.327 411.136 285.528 411.273 284.642 411.273ZM295.134 403.125V411H293.122V397.909H295.065V399.955H295.236C295.543 399.29 296.009 398.756 296.634 398.352C297.259 397.943 298.065 397.739 299.054 397.739C299.94 397.739 300.716 397.92 301.381 398.284C302.045 398.642 302.563 399.188 302.932 399.92C303.301 400.648 303.486 401.568 303.486 402.682V411H301.474V402.818C301.474 401.79 301.207 400.989 300.673 400.415C300.139 399.835 299.406 399.545 298.474 399.545C297.832 399.545 297.259 399.685 296.753 399.963C296.253 400.241 295.858 400.648 295.568 401.182C295.278 401.716 295.134 402.364 295.134 403.125ZM312.854 397.909V399.614H306.07V397.909H312.854ZM308.048 394.773H310.059V407.25C310.059 407.818 310.141 408.244 310.306 408.528C310.477 408.807 310.692 408.994 310.954 409.091C311.221 409.182 311.502 409.227 311.798 409.227C312.019 409.227 312.201 409.216 312.343 409.193C312.485 409.165 312.599 409.142 312.684 409.125L313.093 410.932C312.957 410.983 312.766 411.034 312.522 411.085C312.278 411.142 311.968 411.17 311.593 411.17C311.025 411.17 310.468 411.048 309.923 410.804C309.383 410.56 308.934 410.188 308.576 409.688C308.224 409.188 308.048 408.557 308.048 407.795V394.773Z" fill="black"/>
<defs>
<radialGradient id="paint0_radial_54_10" cx="0" cy="0" r="1" gradientUnits="userSpaceOnUse" gradientTransform="translate(73.5122 276.28) rotate(127.54) scale(66.4875)">
<stop stop-color="white"/>
<stop offset="1" stop-color="#B90000"/>
</radialGradient>
<radialGradient id="paint1_radial_54_10" cx="0" cy="0" r="1" gradientUnits="userSpaceOnUse" gradientTransform="translate(73.5122 350.28) rotate(127.54) scale(66.4875)">
<stop stop-color="white"/>
<stop offset="1" stop-color="#9F00BC"/>
</radialGradient>
<radialGradient id="paint2_radial_54_10" cx="0" cy="0" r="1" gradientUnits="userSpaceOnUse" gradientTransform="translate(73.5122 -19.7195) rotate(127.54) scale(66.4875)">
<stop stop-color="white"/>
<stop offset="1" stop-color="#00889C"/>
</radialGradient>
<radialGradient id="paint3_radial_54_10" cx="0" cy="0" r="1" gradientUnits="userSpaceOnUse" gradientTransform="translate(73.5122 54.2805) rotate(127.54) scale(66.4875)">
<stop stop-color="white"/>
<stop offset="1" stop-color="#B88700"/>
</radialGradient>
<radialGradient id="paint4_radial_54_10" cx="0" cy="0" r="1" gradientUnits="userSpaceOnUse" gradientTransform="translate(73.5122 128.28) rotate(127.54) scale(66.4875)">
<stop stop-color="white"/>
<stop offset="1" stop-color="#008F0A"/>
</radialGradient>
<radialGradient id="paint5_radial_54_10" cx="0" cy="0" r="1" gradientUnits="userSpaceOnUse" gradientTransform="translate(73.5122 202.28) rotate(127.54) scale(66.4875)">
<stop stop-color="white"/>
<stop offset="1" stop-color="#001F8F"/>
</radialGradient>
</defs>
</svg>
