<svg width="286" height="436" viewBox="0 0 286 436" fill="none" xmlns="http://www.w3.org/2000/svg">
<circle cx="33" cy="329" r="33" fill="url(#paint0_radial_54_10)"/>
<circle cx="33" cy="403" r="33" fill="url(#paint1_radial_54_10)"/>
<circle cx="33" cy="33" r="33" fill="url(#paint2_radial_54_10)"/>
<circle cx="33" cy="107" r="33" fill="url(#paint3_radial_54_10)"/>
<circle cx="33" cy="181" r="33" fill="url(#paint4_radial_54_10)"/>
<circle cx="33" cy="255" r="33" fill="url(#paint5_radial_54_10)"/>
<path d="M92.7614 40V25.4545H94.5227V31.9318H102.278V25.4545H104.04V40H102.278V33.4943H94.5227V40H92.7614ZM111.771 40.2273C110.786 40.2273 109.922 39.9929 109.178 39.5241C108.44 39.0554 107.862 38.3996 107.445 37.5568C107.033 36.714 106.827 35.7292 106.827 34.6023C106.827 33.4659 107.033 32.474 107.445 31.6264C107.862 30.7789 108.44 30.1207 109.178 29.652C109.922 29.1832 110.786 28.9489 111.771 28.9489C112.755 28.9489 113.617 29.1832 114.356 29.652C115.099 30.1207 115.677 30.7789 116.089 31.6264C116.505 32.474 116.714 33.4659 116.714 34.6023C116.714 35.7292 116.505 36.714 116.089 37.5568C115.677 38.3996 115.099 39.0554 114.356 39.5241C113.617 39.9929 112.755 40.2273 111.771 40.2273ZM111.771 38.7216C112.519 38.7216 113.134 38.5298 113.617 38.1463C114.1 37.7628 114.458 37.2585 114.69 36.6335C114.922 36.0085 115.038 35.3314 115.038 34.6023C115.038 33.8731 114.922 33.1937 114.69 32.5639C114.458 31.9342 114.1 31.4252 113.617 31.0369C113.134 30.6487 112.519 30.4545 111.771 30.4545C111.022 30.4545 110.407 30.6487 109.924 31.0369C109.441 31.4252 109.084 31.9342 108.852 32.5639C108.62 33.1937 108.504 33.8731 108.504 34.6023C108.504 35.3314 108.62 36.0085 108.852 36.6335C109.084 37.2585 109.441 37.7628 109.924 38.1463C110.407 38.5298 111.022 38.7216 111.771 38.7216ZM119.272 40V29.0909H120.892V30.7955H121.034C121.261 30.2131 121.628 29.7609 122.135 29.4389C122.641 29.1122 123.25 28.9489 123.96 28.9489C124.68 28.9489 125.279 29.1122 125.757 29.4389C126.24 29.7609 126.616 30.2131 126.886 30.7955H127C127.279 30.232 127.698 29.7846 128.257 29.4531C128.815 29.117 129.485 28.9489 130.267 28.9489C131.242 28.9489 132.04 29.2543 132.66 29.8651C133.28 30.4711 133.591 31.4157 133.591 32.6989V40H131.914V32.6989C131.914 31.8939 131.694 31.3187 131.254 30.973C130.814 30.6274 130.295 30.4545 129.699 30.4545C128.931 30.4545 128.337 30.6866 127.916 31.1506C127.494 31.6098 127.284 32.1922 127.284 32.8977V40H125.579V32.5284C125.579 31.9081 125.378 31.4086 124.975 31.0298C124.573 30.6463 124.055 30.4545 123.42 30.4545C122.984 30.4545 122.577 30.5705 122.199 30.8026C121.824 31.0346 121.521 31.3565 121.289 31.7685C121.062 32.1757 120.949 32.6468 120.949 33.1818V40H119.272ZM141.229 40.2273C140.178 40.2273 139.271 39.9953 138.509 39.5312C137.751 39.0625 137.167 38.4091 136.755 37.571C136.347 36.7282 136.144 35.7481 136.144 34.6307C136.144 33.5133 136.347 32.5284 136.755 31.6761C137.167 30.8191 137.739 30.1515 138.473 29.6733C139.212 29.1903 140.074 28.9489 141.059 28.9489C141.627 28.9489 142.188 29.0436 142.742 29.233C143.296 29.4223 143.8 29.7301 144.255 30.1562C144.709 30.5777 145.071 31.1364 145.341 31.8324C145.611 32.5284 145.746 33.3854 145.746 34.4034V35.1136H137.337V33.6648H144.042C144.042 33.0492 143.918 32.5 143.672 32.017C143.431 31.5341 143.085 31.1529 142.635 30.8736C142.19 30.5942 141.665 30.4545 141.059 30.4545C140.391 30.4545 139.813 30.6203 139.326 30.9517C138.843 31.2784 138.471 31.7045 138.211 32.2301C137.95 32.7557 137.82 33.3191 137.82 33.9205V34.8864C137.82 35.7102 137.962 36.4086 138.246 36.9815C138.535 37.5497 138.935 37.983 139.446 38.2812C139.958 38.5748 140.552 38.7216 141.229 38.7216C141.669 38.7216 142.067 38.66 142.422 38.5369C142.782 38.4091 143.092 38.2197 143.353 37.9688C143.613 37.7131 143.814 37.3958 143.956 37.017L145.576 37.4716C145.405 38.0208 145.119 38.5038 144.716 38.9205C144.314 39.3324 143.817 39.6544 143.225 39.8864C142.633 40.1136 141.968 40.2273 141.229 40.2273Z" fill="black"/>
<path d="M92.7614 114V99.4545H101.54V101.017H94.5227V105.932H101.085V107.494H94.5227V112.438H101.653V114H92.7614ZM106.163 107.438V114H104.487V103.091H106.107V104.795H106.249C106.504 104.241 106.893 103.796 107.413 103.46C107.934 103.119 108.607 102.949 109.43 102.949C110.169 102.949 110.815 103.1 111.369 103.403C111.923 103.702 112.354 104.156 112.662 104.767C112.97 105.373 113.124 106.14 113.124 107.068V114H111.447V107.182C111.447 106.325 111.225 105.657 110.78 105.179C110.335 104.696 109.724 104.455 108.947 104.455C108.412 104.455 107.934 104.571 107.513 104.803C107.096 105.035 106.767 105.373 106.526 105.818C106.284 106.263 106.163 106.803 106.163 107.438ZM120.59 118.318C119.78 118.318 119.084 118.214 118.502 118.006C117.919 117.802 117.434 117.532 117.046 117.196C116.662 116.865 116.357 116.509 116.13 116.131L117.465 115.193C117.616 115.392 117.808 115.619 118.04 115.875C118.272 116.135 118.589 116.36 118.992 116.55C119.399 116.744 119.932 116.841 120.59 116.841C121.471 116.841 122.197 116.628 122.77 116.202C123.343 115.776 123.63 115.108 123.63 114.199V111.983H123.488C123.364 112.182 123.189 112.428 122.962 112.722C122.739 113.01 122.417 113.268 121.996 113.496C121.579 113.718 121.016 113.83 120.306 113.83C119.425 113.83 118.634 113.621 117.934 113.205C117.238 112.788 116.686 112.182 116.279 111.386C115.876 110.591 115.675 109.625 115.675 108.489C115.675 107.371 115.872 106.398 116.265 105.57C116.658 104.736 117.204 104.092 117.905 103.638C118.606 103.179 119.416 102.949 120.334 102.949C121.044 102.949 121.608 103.067 122.025 103.304C122.446 103.536 122.768 103.801 122.99 104.099C123.218 104.393 123.393 104.634 123.516 104.824H123.686V103.091H125.306V114.312C125.306 115.25 125.093 116.012 124.667 116.599C124.245 117.191 123.677 117.625 122.962 117.899C122.252 118.179 121.461 118.318 120.59 118.318ZM120.533 112.324C121.205 112.324 121.774 112.17 122.238 111.862C122.702 111.554 123.054 111.112 123.296 110.534C123.537 109.956 123.658 109.265 123.658 108.46C123.658 107.674 123.54 106.981 123.303 106.379C123.066 105.778 122.716 105.307 122.252 104.966C121.788 104.625 121.215 104.455 120.533 104.455C119.823 104.455 119.231 104.634 118.757 104.994C118.289 105.354 117.936 105.837 117.699 106.443C117.467 107.049 117.351 107.722 117.351 108.46C117.351 109.218 117.47 109.888 117.706 110.47C117.948 111.048 118.303 111.502 118.772 111.834C119.245 112.161 119.832 112.324 120.533 112.324ZM128.374 114V103.091H130.05V114H128.374ZM129.226 101.273C128.9 101.273 128.618 101.161 128.381 100.939C128.149 100.716 128.033 100.449 128.033 100.136C128.033 99.8239 128.149 99.5563 128.381 99.3338C128.618 99.1113 128.9 99 129.226 99C129.553 99 129.832 99.1113 130.064 99.3338C130.301 99.5563 130.419 99.8239 130.419 100.136C130.419 100.449 130.301 100.716 130.064 100.939C129.832 101.161 129.553 101.273 129.226 101.273ZM134.796 107.438V114H133.12V103.091H134.739V104.795H134.881C135.137 104.241 135.525 103.796 136.046 103.46C136.567 103.119 137.239 102.949 138.063 102.949C138.802 102.949 139.448 103.1 140.002 103.403C140.556 103.702 140.987 104.156 141.295 104.767C141.603 105.373 141.756 106.14 141.756 107.068V114H140.08V107.182C140.08 106.325 139.858 105.657 139.413 105.179C138.968 104.696 138.357 104.455 137.58 104.455C137.045 104.455 136.567 104.571 136.146 104.803C135.729 105.035 135.4 105.373 135.158 105.818C134.917 106.263 134.796 106.803 134.796 107.438ZM149.393 114.227C148.342 114.227 147.435 113.995 146.673 113.531C145.915 113.062 145.331 112.409 144.919 111.571C144.511 110.728 144.308 109.748 144.308 108.631C144.308 107.513 144.511 106.528 144.919 105.676C145.331 104.819 145.904 104.152 146.637 103.673C147.376 103.19 148.238 102.949 149.223 102.949C149.791 102.949 150.352 103.044 150.906 103.233C151.46 103.422 151.964 103.73 152.419 104.156C152.873 104.578 153.235 105.136 153.505 105.832C153.775 106.528 153.91 107.385 153.91 108.403V109.114H145.501V107.665H152.206C152.206 107.049 152.083 106.5 151.836 106.017C151.595 105.534 151.249 105.153 150.799 104.874C150.354 104.594 149.829 104.455 149.223 104.455C148.555 104.455 147.977 104.62 147.49 104.952C147.007 105.278 146.635 105.705 146.375 106.23C146.114 106.756 145.984 107.319 145.984 107.92V108.886C145.984 109.71 146.126 110.409 146.41 110.982C146.699 111.55 147.099 111.983 147.61 112.281C148.122 112.575 148.716 112.722 149.393 112.722C149.833 112.722 150.231 112.66 150.586 112.537C150.946 112.409 151.256 112.22 151.517 111.969C151.777 111.713 151.978 111.396 152.12 111.017L153.74 111.472C153.569 112.021 153.283 112.504 152.88 112.92C152.478 113.332 151.981 113.654 151.389 113.886C150.797 114.114 150.132 114.227 149.393 114.227ZM161.034 114.227C159.983 114.227 159.076 113.995 158.314 113.531C157.556 113.062 156.971 112.409 156.559 111.571C156.152 110.728 155.949 109.748 155.949 108.631C155.949 107.513 156.152 106.528 156.559 105.676C156.971 104.819 157.544 104.152 158.278 103.673C159.017 103.19 159.878 102.949 160.863 102.949C161.431 102.949 161.993 103.044 162.547 103.233C163.1 103.422 163.605 103.73 164.059 104.156C164.514 104.578 164.876 105.136 165.146 105.832C165.416 106.528 165.551 107.385 165.551 108.403V109.114H157.142V107.665H163.846C163.846 107.049 163.723 106.5 163.477 106.017C163.235 105.534 162.89 105.153 162.44 104.874C161.995 104.594 161.469 104.455 160.863 104.455C160.196 104.455 159.618 104.62 159.13 104.952C158.647 105.278 158.276 105.705 158.015 106.23C157.755 106.756 157.625 107.319 157.625 107.92V108.886C157.625 109.71 157.767 110.409 158.051 110.982C158.34 111.55 158.74 111.983 159.251 112.281C159.762 112.575 160.357 112.722 161.034 112.722C161.474 112.722 161.872 112.66 162.227 112.537C162.587 112.409 162.897 112.22 163.157 111.969C163.418 111.713 163.619 111.396 163.761 111.017L165.38 111.472C165.21 112.021 164.923 112.504 164.521 112.92C164.118 113.332 163.621 113.654 163.029 113.886C162.438 114.114 161.772 114.227 161.034 114.227ZM168.1 114V103.091H169.72V104.739H169.833C170.032 104.199 170.392 103.761 170.913 103.425C171.434 103.089 172.021 102.92 172.674 102.92C172.797 102.92 172.951 102.923 173.136 102.928C173.321 102.932 173.46 102.939 173.555 102.949V104.653C173.498 104.639 173.368 104.618 173.164 104.589C172.966 104.556 172.755 104.54 172.532 104.54C172.002 104.54 171.529 104.651 171.112 104.874C170.7 105.091 170.373 105.394 170.132 105.783C169.895 106.166 169.777 106.604 169.777 107.097V114H168.1ZM175.542 114V103.091H177.218V114H175.542ZM176.394 101.273C176.067 101.273 175.786 101.161 175.549 100.939C175.317 100.716 175.201 100.449 175.201 100.136C175.201 99.8239 175.317 99.5563 175.549 99.3338C175.786 99.1113 176.067 99 176.394 99C176.721 99 177 99.1113 177.232 99.3338C177.469 99.5563 177.587 99.8239 177.587 100.136C177.587 100.449 177.469 100.716 177.232 100.939C177 101.161 176.721 101.273 176.394 101.273ZM181.964 107.438V114H180.288V103.091H181.907V104.795H182.049C182.305 104.241 182.693 103.796 183.214 103.46C183.735 103.119 184.407 102.949 185.231 102.949C185.97 102.949 186.616 103.1 187.17 103.403C187.724 103.702 188.155 104.156 188.463 104.767C188.77 105.373 188.924 106.14 188.924 107.068V114H187.248V107.182C187.248 106.325 187.026 105.657 186.581 105.179C186.136 104.696 185.525 104.455 184.748 104.455C184.213 104.455 183.735 104.571 183.314 104.803C182.897 105.035 182.568 105.373 182.326 105.818C182.085 106.263 181.964 106.803 181.964 107.438ZM196.391 118.318C195.581 118.318 194.885 118.214 194.303 118.006C193.72 117.802 193.235 117.532 192.847 117.196C192.463 116.865 192.158 116.509 191.93 116.131L193.266 115.193C193.417 115.392 193.609 115.619 193.841 115.875C194.073 116.135 194.39 116.36 194.793 116.55C195.2 116.744 195.732 116.841 196.391 116.841C197.271 116.841 197.998 116.628 198.571 116.202C199.144 115.776 199.43 115.108 199.43 114.199V111.983H199.288C199.165 112.182 198.99 112.428 198.763 112.722C198.54 113.01 198.218 113.268 197.797 113.496C197.38 113.718 196.817 113.83 196.107 113.83C195.226 113.83 194.435 113.621 193.734 113.205C193.038 112.788 192.487 112.182 192.08 111.386C191.677 110.591 191.476 109.625 191.476 108.489C191.476 107.371 191.672 106.398 192.065 105.57C192.458 104.736 193.005 104.092 193.706 103.638C194.407 103.179 195.216 102.949 196.135 102.949C196.845 102.949 197.409 103.067 197.825 103.304C198.247 103.536 198.569 103.801 198.791 104.099C199.018 104.393 199.194 104.634 199.317 104.824H199.487V103.091H201.107V114.312C201.107 115.25 200.893 116.012 200.467 116.599C200.046 117.191 199.478 117.625 198.763 117.899C198.053 118.179 197.262 118.318 196.391 118.318ZM196.334 112.324C197.006 112.324 197.574 112.17 198.038 111.862C198.502 111.554 198.855 111.112 199.097 110.534C199.338 109.956 199.459 109.265 199.459 108.46C199.459 107.674 199.34 106.981 199.104 106.379C198.867 105.778 198.517 105.307 198.053 104.966C197.589 104.625 197.016 104.455 196.334 104.455C195.624 104.455 195.032 104.634 194.558 104.994C194.089 105.354 193.737 105.837 193.5 106.443C193.268 107.049 193.152 107.722 193.152 108.46C193.152 109.218 193.27 109.888 193.507 110.47C193.749 111.048 194.104 111.502 194.572 111.834C195.046 112.161 195.633 112.324 196.334 112.324ZM214.232 114.227C213.209 114.227 212.328 113.986 211.589 113.503C210.851 113.02 210.283 112.355 209.885 111.507C209.487 110.66 209.288 109.691 209.288 108.602C209.288 107.494 209.492 106.517 209.899 105.669C210.311 104.817 210.884 104.152 211.618 103.673C212.357 103.19 213.218 102.949 214.203 102.949C214.97 102.949 215.661 103.091 216.277 103.375C216.893 103.659 217.397 104.057 217.79 104.568C218.183 105.08 218.427 105.676 218.521 106.358H216.845C216.717 105.861 216.433 105.42 215.993 105.037C215.557 104.649 214.97 104.455 214.232 104.455C213.578 104.455 213.005 104.625 212.513 104.966C212.025 105.302 211.644 105.778 211.369 106.393C211.099 107.004 210.964 107.722 210.964 108.545C210.964 109.388 211.097 110.122 211.362 110.747C211.632 111.372 212.011 111.857 212.499 112.203C212.991 112.549 213.569 112.722 214.232 112.722C214.667 112.722 215.062 112.646 215.418 112.494C215.773 112.343 216.073 112.125 216.32 111.841C216.566 111.557 216.741 111.216 216.845 110.818H218.521C218.427 111.462 218.192 112.042 217.818 112.558C217.449 113.07 216.959 113.477 216.348 113.78C215.742 114.078 215.036 114.227 214.232 114.227ZM225.403 114.227C224.419 114.227 223.554 113.993 222.811 113.524C222.072 113.055 221.495 112.4 221.078 111.557C220.666 110.714 220.46 109.729 220.46 108.602C220.46 107.466 220.666 106.474 221.078 105.626C221.495 104.779 222.072 104.121 222.811 103.652C223.554 103.183 224.419 102.949 225.403 102.949C226.388 102.949 227.25 103.183 227.989 103.652C228.732 104.121 229.31 104.779 229.722 105.626C230.138 106.474 230.347 107.466 230.347 108.602C230.347 109.729 230.138 110.714 229.722 111.557C229.31 112.4 228.732 113.055 227.989 113.524C227.25 113.993 226.388 114.227 225.403 114.227ZM225.403 112.722C226.152 112.722 226.767 112.53 227.25 112.146C227.733 111.763 228.09 111.259 228.322 110.634C228.554 110.009 228.67 109.331 228.67 108.602C228.67 107.873 228.554 107.194 228.322 106.564C228.09 105.934 227.733 105.425 227.25 105.037C226.767 104.649 226.152 104.455 225.403 104.455C224.655 104.455 224.04 104.649 223.557 105.037C223.074 105.425 222.716 105.934 222.484 106.564C222.252 107.194 222.136 107.873 222.136 108.602C222.136 109.331 222.252 110.009 222.484 110.634C222.716 111.259 223.074 111.763 223.557 112.146C224.04 112.53 224.655 112.722 225.403 112.722ZM239.78 109.54V103.091H241.456V114H239.78V112.153H239.667C239.411 112.707 239.013 113.179 238.473 113.567C237.934 113.95 237.252 114.142 236.428 114.142C235.746 114.142 235.14 113.993 234.61 113.695C234.079 113.392 233.663 112.937 233.36 112.331C233.057 111.72 232.905 110.951 232.905 110.023V103.091H234.581V109.909C234.581 110.705 234.804 111.339 235.249 111.812C235.699 112.286 236.272 112.523 236.968 112.523C237.384 112.523 237.808 112.416 238.239 112.203C238.675 111.99 239.039 111.663 239.333 111.223C239.631 110.783 239.78 110.222 239.78 109.54ZM244.526 114V103.091H246.146V104.739H246.259C246.458 104.199 246.818 103.761 247.339 103.425C247.86 103.089 248.447 102.92 249.1 102.92C249.223 102.92 249.377 102.923 249.562 102.928C249.746 102.932 249.886 102.939 249.981 102.949V104.653C249.924 104.639 249.794 104.618 249.59 104.589C249.391 104.556 249.181 104.54 248.958 104.54C248.428 104.54 247.954 104.651 247.538 104.874C247.126 105.091 246.799 105.394 246.558 105.783C246.321 106.166 246.202 106.604 246.202 107.097V114H244.526ZM259.695 105.534L258.189 105.96C258.095 105.709 257.955 105.465 257.77 105.229C257.59 104.987 257.344 104.788 257.032 104.632C256.719 104.476 256.319 104.398 255.831 104.398C255.164 104.398 254.607 104.552 254.162 104.859C253.722 105.162 253.502 105.548 253.502 106.017C253.502 106.434 253.653 106.763 253.956 107.004C254.259 107.246 254.733 107.447 255.377 107.608L256.996 108.006C257.971 108.242 258.698 108.605 259.176 109.092C259.655 109.575 259.894 110.198 259.894 110.96C259.894 111.585 259.714 112.144 259.354 112.636C258.999 113.129 258.502 113.517 257.863 113.801C257.223 114.085 256.48 114.227 255.632 114.227C254.52 114.227 253.599 113.986 252.87 113.503C252.141 113.02 251.679 112.314 251.485 111.386L253.076 110.989C253.227 111.576 253.514 112.016 253.935 112.31C254.361 112.603 254.917 112.75 255.604 112.75C256.385 112.75 257.006 112.584 257.465 112.253C257.929 111.917 258.161 111.514 258.161 111.045C258.161 110.667 258.028 110.349 257.763 110.094C257.498 109.833 257.091 109.639 256.542 109.511L254.723 109.085C253.724 108.848 252.99 108.482 252.522 107.984C252.058 107.482 251.826 106.855 251.826 106.102C251.826 105.487 251.998 104.942 252.344 104.469C252.694 103.995 253.17 103.624 253.772 103.354C254.378 103.084 255.064 102.949 255.831 102.949C256.911 102.949 257.758 103.186 258.374 103.659C258.994 104.133 259.435 104.758 259.695 105.534ZM266.991 114.227C265.94 114.227 265.033 113.995 264.271 113.531C263.513 113.062 262.928 112.409 262.516 111.571C262.109 110.728 261.906 109.748 261.906 108.631C261.906 107.513 262.109 106.528 262.516 105.676C262.928 104.819 263.501 104.152 264.235 103.673C264.974 103.19 265.835 102.949 266.82 102.949C267.388 102.949 267.95 103.044 268.504 103.233C269.058 103.422 269.562 103.73 270.016 104.156C270.471 104.578 270.833 105.136 271.103 105.832C271.373 106.528 271.508 107.385 271.508 108.403V109.114H263.099V107.665H269.803C269.803 107.049 269.68 106.5 269.434 106.017C269.192 105.534 268.847 105.153 268.397 104.874C267.952 104.594 267.426 104.455 266.82 104.455C266.153 104.455 265.575 104.62 265.087 104.952C264.604 105.278 264.233 105.705 263.972 106.23C263.712 106.756 263.582 107.319 263.582 107.92V108.886C263.582 109.71 263.724 110.409 264.008 110.982C264.297 111.55 264.697 111.983 265.208 112.281C265.719 112.575 266.314 112.722 266.991 112.722C267.431 112.722 267.829 112.66 268.184 112.537C268.544 112.409 268.854 112.22 269.114 111.969C269.375 111.713 269.576 111.396 269.718 111.017L271.337 111.472C271.167 112.021 270.88 112.504 270.478 112.92C270.076 113.332 269.578 113.654 268.987 113.886C268.395 114.114 267.729 114.227 266.991 114.227ZM281.785 105.534L280.279 105.96C280.184 105.709 280.045 105.465 279.86 105.229C279.68 104.987 279.434 104.788 279.121 104.632C278.809 104.476 278.409 104.398 277.921 104.398C277.254 104.398 276.697 104.552 276.252 104.859C275.812 105.162 275.592 105.548 275.592 106.017C275.592 106.434 275.743 106.763 276.046 107.004C276.349 107.246 276.823 107.447 277.467 107.608L279.086 108.006C280.061 108.242 280.788 108.605 281.266 109.092C281.745 109.575 281.984 110.198 281.984 110.96C281.984 111.585 281.804 112.144 281.444 112.636C281.089 113.129 280.592 113.517 279.952 113.801C279.313 114.085 278.57 114.227 277.722 114.227C276.61 114.227 275.689 113.986 274.96 113.503C274.23 113.02 273.769 112.314 273.575 111.386L275.165 110.989C275.317 111.576 275.603 112.016 276.025 112.31C276.451 112.603 277.007 112.75 277.694 112.75C278.475 112.75 279.095 112.584 279.555 112.253C280.019 111.917 280.251 111.514 280.251 111.045C280.251 110.667 280.118 110.349 279.853 110.094C279.588 109.833 279.181 109.639 278.631 109.511L276.813 109.085C275.814 108.848 275.08 108.482 274.612 107.984C274.147 107.482 273.915 106.855 273.915 106.102C273.915 105.487 274.088 104.942 274.434 104.469C274.784 103.995 275.26 103.624 275.862 103.354C276.468 103.084 277.154 102.949 277.921 102.949C279.001 102.949 279.848 103.186 280.464 103.659C281.084 104.133 281.524 104.758 281.785 105.534Z" fill="black"/>
<path d="M92.7614 173.455H94.8636L99.8068 185.528H99.9773L104.92 173.455H107.023V188H105.375V176.949H105.233L100.688 188H99.0966L94.5511 176.949H94.4091V188H92.7614V173.455ZM114.759 188.227C113.774 188.227 112.91 187.993 112.167 187.524C111.428 187.055 110.85 186.4 110.434 185.557C110.022 184.714 109.816 183.729 109.816 182.602C109.816 181.466 110.022 180.474 110.434 179.626C110.85 178.779 111.428 178.121 112.167 177.652C112.91 177.183 113.774 176.949 114.759 176.949C115.744 176.949 116.605 177.183 117.344 177.652C118.087 178.121 118.665 178.779 119.077 179.626C119.494 180.474 119.702 181.466 119.702 182.602C119.702 183.729 119.494 184.714 119.077 185.557C118.665 186.4 118.087 187.055 117.344 187.524C116.605 187.993 115.744 188.227 114.759 188.227ZM114.759 186.722C115.507 186.722 116.123 186.53 116.605 186.146C117.088 185.763 117.446 185.259 117.678 184.634C117.91 184.009 118.026 183.331 118.026 182.602C118.026 181.873 117.91 181.194 117.678 180.564C117.446 179.934 117.088 179.425 116.605 179.037C116.123 178.649 115.507 178.455 114.759 178.455C114.011 178.455 113.395 178.649 112.912 179.037C112.429 179.425 112.072 179.934 111.84 180.564C111.608 181.194 111.492 181.873 111.492 182.602C111.492 183.331 111.608 184.009 111.84 184.634C112.072 185.259 112.429 185.763 112.912 186.146C113.395 186.53 114.011 186.722 114.759 186.722ZM122.488 188V173.455H124.164V178.824H124.306C124.429 178.634 124.6 178.393 124.817 178.099C125.04 177.801 125.357 177.536 125.769 177.304C126.186 177.067 126.749 176.949 127.46 176.949C128.378 176.949 129.188 177.179 129.888 177.638C130.589 178.097 131.136 178.748 131.529 179.591C131.922 180.434 132.119 181.428 132.119 182.574C132.119 183.729 131.922 184.731 131.529 185.578C131.136 186.421 130.592 187.074 129.896 187.538C129.2 187.998 128.397 188.227 127.488 188.227C126.787 188.227 126.226 188.111 125.805 187.879C125.383 187.643 125.059 187.375 124.832 187.077C124.604 186.774 124.429 186.523 124.306 186.324H124.107V188H122.488ZM124.136 182.545C124.136 183.369 124.256 184.096 124.498 184.726C124.739 185.351 125.092 185.841 125.556 186.196C126.02 186.546 126.588 186.722 127.261 186.722C127.961 186.722 128.546 186.537 129.015 186.168C129.488 185.794 129.844 185.292 130.08 184.662C130.322 184.027 130.442 183.322 130.442 182.545C130.442 181.778 130.324 181.087 130.087 180.472C129.855 179.851 129.503 179.361 129.029 179.001C128.56 178.637 127.971 178.455 127.261 178.455C126.579 178.455 126.006 178.627 125.542 178.973C125.078 179.314 124.728 179.792 124.491 180.408C124.254 181.018 124.136 181.731 124.136 182.545ZM134.683 188V177.091H136.359V188H134.683ZM135.535 175.273C135.208 175.273 134.926 175.161 134.69 174.939C134.458 174.716 134.342 174.449 134.342 174.136C134.342 173.824 134.458 173.556 134.69 173.334C134.926 173.111 135.208 173 135.535 173C135.862 173 136.141 173.111 136.373 173.334C136.61 173.556 136.728 173.824 136.728 174.136C136.728 174.449 136.61 174.716 136.373 174.939C136.141 175.161 135.862 175.273 135.535 175.273ZM141.105 173.455V188H139.429V173.455H141.105ZM144.175 188V177.091H145.851V188H144.175ZM145.027 175.273C144.7 175.273 144.419 175.161 144.182 174.939C143.95 174.716 143.834 174.449 143.834 174.136C143.834 173.824 143.95 173.556 144.182 173.334C144.419 173.111 144.7 173 145.027 173C145.354 173 145.633 173.111 145.865 173.334C146.102 173.556 146.22 173.824 146.22 174.136C146.22 174.449 146.102 174.716 145.865 174.939C145.633 175.161 145.354 175.273 145.027 175.273ZM153.665 177.091V178.511H148.012V177.091H153.665ZM149.659 174.477H151.336V184.875C151.336 185.348 151.404 185.704 151.542 185.94C151.684 186.172 151.864 186.329 152.081 186.409C152.304 186.485 152.538 186.523 152.784 186.523C152.969 186.523 153.121 186.513 153.239 186.494C153.357 186.471 153.452 186.452 153.523 186.438L153.864 187.943C153.75 187.986 153.592 188.028 153.388 188.071C153.185 188.118 152.926 188.142 152.614 188.142C152.141 188.142 151.676 188.04 151.222 187.837C150.772 187.633 150.398 187.323 150.1 186.906C149.806 186.49 149.659 185.964 149.659 185.33V174.477ZM157.266 192.091C156.982 192.091 156.729 192.067 156.506 192.02C156.283 191.977 156.13 191.935 156.044 191.892L156.471 190.415C156.878 190.519 157.238 190.557 157.55 190.528C157.863 190.5 158.14 190.36 158.381 190.109C158.627 189.863 158.852 189.463 159.056 188.909L159.368 188.057L155.334 177.091H157.152L160.164 185.784H160.277L163.289 177.091H165.107L160.476 189.591C160.268 190.154 160.01 190.621 159.702 190.99C159.394 191.364 159.037 191.641 158.63 191.821C158.227 192.001 157.773 192.091 157.266 192.091Z" fill="black"/>
<path d="M104.466 252H102.705C102.6 251.493 102.418 251.048 102.158 250.665C101.902 250.281 101.589 249.959 101.22 249.699C100.856 249.434 100.451 249.235 100.006 249.102C99.5606 248.97 99.0966 248.903 98.6136 248.903C97.733 248.903 96.9351 249.126 96.2202 249.571C95.5099 250.016 94.9441 250.672 94.5227 251.538C94.1061 252.405 93.8977 253.468 93.8977 254.727C93.8977 255.987 94.1061 257.05 94.5227 257.916C94.9441 258.783 95.5099 259.438 96.2202 259.884C96.9351 260.329 97.733 260.551 98.6136 260.551C99.0966 260.551 99.5606 260.485 100.006 260.352C100.451 260.22 100.856 260.023 101.22 259.763C101.589 259.498 101.902 259.173 102.158 258.79C102.418 258.402 102.6 257.956 102.705 257.455H104.466C104.333 258.198 104.092 258.863 103.741 259.45C103.391 260.037 102.955 260.537 102.435 260.949C101.914 261.356 101.329 261.666 100.68 261.879C100.036 262.092 99.3475 262.199 98.6136 262.199C97.3731 262.199 96.2699 261.896 95.304 261.29C94.3381 260.684 93.5781 259.822 93.0241 258.705C92.4702 257.587 92.1932 256.261 92.1932 254.727C92.1932 253.193 92.4702 251.867 93.0241 250.75C93.5781 249.633 94.3381 248.771 95.304 248.165C96.2699 247.559 97.3731 247.256 98.6136 247.256C99.3475 247.256 100.036 247.362 100.68 247.575C101.329 247.788 101.914 248.101 102.435 248.513C102.955 248.92 103.391 249.417 103.741 250.004C104.092 250.587 104.333 251.252 104.466 252ZM107.085 262V251.091H108.761V262H107.085ZM107.937 249.273C107.61 249.273 107.329 249.161 107.092 248.939C106.86 248.716 106.744 248.449 106.744 248.136C106.744 247.824 106.86 247.556 107.092 247.334C107.329 247.111 107.61 247 107.937 247C108.264 247 108.543 247.111 108.775 247.334C109.012 247.556 109.13 247.824 109.13 248.136C109.13 248.449 109.012 248.716 108.775 248.939C108.543 249.161 108.264 249.273 107.937 249.273ZM120.751 251.091L116.717 262H115.013L110.979 251.091H112.797L115.808 259.784H115.922L118.933 251.091H120.751ZM122.964 262V251.091H124.64V262H122.964ZM123.816 249.273C123.489 249.273 123.208 249.161 122.971 248.939C122.739 248.716 122.623 248.449 122.623 248.136C122.623 247.824 122.739 247.556 122.971 247.334C123.208 247.111 123.489 247 123.816 247C124.143 247 124.422 247.111 124.654 247.334C124.891 247.556 125.009 247.824 125.009 248.136C125.009 248.449 124.891 248.716 124.654 248.939C124.422 249.161 124.143 249.273 123.816 249.273ZM132.142 262.227C131.119 262.227 130.238 261.986 129.5 261.503C128.761 261.02 128.193 260.355 127.795 259.507C127.397 258.66 127.199 257.691 127.199 256.602C127.199 255.494 127.402 254.517 127.809 253.669C128.221 252.817 128.794 252.152 129.528 251.673C130.267 251.19 131.128 250.949 132.113 250.949C132.88 250.949 133.572 251.091 134.187 251.375C134.803 251.659 135.307 252.057 135.7 252.568C136.093 253.08 136.337 253.676 136.431 254.358H134.755C134.627 253.861 134.343 253.42 133.903 253.037C133.467 252.649 132.88 252.455 132.142 252.455C131.488 252.455 130.915 252.625 130.423 252.966C129.935 253.302 129.554 253.778 129.279 254.393C129.01 255.004 128.875 255.722 128.875 256.545C128.875 257.388 129.007 258.122 129.272 258.747C129.542 259.372 129.921 259.857 130.409 260.203C130.901 260.549 131.479 260.722 132.142 260.722C132.577 260.722 132.973 260.646 133.328 260.494C133.683 260.343 133.984 260.125 134.23 259.841C134.476 259.557 134.651 259.216 134.755 258.818H136.431C136.337 259.462 136.102 260.042 135.728 260.558C135.359 261.07 134.869 261.477 134.258 261.78C133.652 262.078 132.947 262.227 132.142 262.227ZM144.734 262V247.455H153.512V249.017H146.495V253.932H153.058V255.494H146.495V260.438H153.626V262H144.734ZM158.136 255.438V262H156.46V251.091H158.079V252.795H158.221C158.477 252.241 158.865 251.796 159.386 251.46C159.907 251.119 160.579 250.949 161.403 250.949C162.142 250.949 162.788 251.1 163.342 251.403C163.896 251.702 164.327 252.156 164.635 252.767C164.942 253.373 165.096 254.14 165.096 255.068V262H163.42V255.182C163.42 254.325 163.198 253.657 162.752 253.179C162.307 252.696 161.697 252.455 160.92 252.455C160.385 252.455 159.907 252.571 159.485 252.803C159.069 253.035 158.74 253.373 158.498 253.818C158.257 254.263 158.136 254.803 158.136 255.438ZM172.562 266.318C171.753 266.318 171.057 266.214 170.474 266.006C169.892 265.802 169.407 265.532 169.018 265.196C168.635 264.865 168.33 264.509 168.102 264.131L169.438 263.193C169.589 263.392 169.781 263.619 170.013 263.875C170.245 264.135 170.562 264.36 170.964 264.55C171.372 264.744 171.904 264.841 172.562 264.841C173.443 264.841 174.17 264.628 174.743 264.202C175.316 263.776 175.602 263.108 175.602 262.199V259.983H175.46C175.337 260.182 175.162 260.428 174.935 260.722C174.712 261.01 174.39 261.268 173.969 261.496C173.552 261.718 172.989 261.83 172.278 261.83C171.398 261.83 170.607 261.621 169.906 261.205C169.21 260.788 168.659 260.182 168.251 259.386C167.849 258.591 167.648 257.625 167.648 256.489C167.648 255.371 167.844 254.398 168.237 253.57C168.63 252.736 169.177 252.092 169.878 251.638C170.579 251.179 171.388 250.949 172.307 250.949C173.017 250.949 173.58 251.067 173.997 251.304C174.419 251.536 174.741 251.801 174.963 252.099C175.19 252.393 175.366 252.634 175.489 252.824H175.659V251.091H177.278V262.312C177.278 263.25 177.065 264.012 176.639 264.599C176.218 265.191 175.65 265.625 174.935 265.899C174.224 266.179 173.434 266.318 172.562 266.318ZM172.506 260.324C173.178 260.324 173.746 260.17 174.21 259.862C174.674 259.554 175.027 259.112 175.268 258.534C175.51 257.956 175.631 257.265 175.631 256.46C175.631 255.674 175.512 254.981 175.276 254.379C175.039 253.778 174.688 253.307 174.224 252.966C173.76 252.625 173.188 252.455 172.506 252.455C171.795 252.455 171.204 252.634 170.73 252.994C170.261 253.354 169.909 253.837 169.672 254.443C169.44 255.049 169.324 255.722 169.324 256.46C169.324 257.218 169.442 257.888 169.679 258.47C169.92 259.048 170.276 259.502 170.744 259.834C171.218 260.161 171.805 260.324 172.506 260.324ZM183.557 262.256C182.866 262.256 182.238 262.125 181.675 261.865C181.111 261.6 180.664 261.219 180.332 260.722C180.001 260.22 179.835 259.614 179.835 258.903C179.835 258.278 179.958 257.772 180.205 257.384C180.451 256.991 180.78 256.683 181.192 256.46C181.604 256.238 182.058 256.072 182.555 255.963C183.057 255.849 183.562 255.759 184.068 255.693C184.731 255.608 185.268 255.544 185.68 255.501C186.097 255.454 186.4 255.376 186.589 255.267C186.784 255.158 186.881 254.969 186.881 254.699V254.642C186.881 253.941 186.689 253.397 186.305 253.009C185.927 252.62 185.351 252.426 184.58 252.426C183.779 252.426 183.152 252.601 182.697 252.952C182.243 253.302 181.923 253.676 181.739 254.074L180.148 253.506C180.432 252.843 180.811 252.327 181.284 251.957C181.762 251.583 182.283 251.323 182.847 251.176C183.415 251.025 183.973 250.949 184.523 250.949C184.873 250.949 185.276 250.991 185.73 251.077C186.189 251.157 186.632 251.325 187.058 251.581C187.489 251.837 187.847 252.223 188.131 252.739C188.415 253.255 188.557 253.946 188.557 254.812V262H186.881V260.523H186.795C186.682 260.759 186.492 261.013 186.227 261.283C185.962 261.553 185.609 261.782 185.169 261.972C184.729 262.161 184.191 262.256 183.557 262.256ZM183.812 260.75C184.475 260.75 185.034 260.62 185.489 260.359C185.948 260.099 186.294 259.763 186.526 259.351C186.762 258.939 186.881 258.506 186.881 258.051V256.517C186.81 256.602 186.653 256.68 186.412 256.751C186.175 256.818 185.901 256.877 185.588 256.929C185.28 256.976 184.98 257.019 184.686 257.057C184.397 257.09 184.163 257.118 183.983 257.142C183.547 257.199 183.14 257.291 182.761 257.419C182.387 257.542 182.084 257.729 181.852 257.98C181.625 258.226 181.511 258.562 181.511 258.989C181.511 259.571 181.727 260.011 182.158 260.31C182.593 260.603 183.145 260.75 183.812 260.75ZM196.02 266.318C195.21 266.318 194.514 266.214 193.931 266.006C193.349 265.802 192.864 265.532 192.475 265.196C192.092 264.865 191.787 264.509 191.559 264.131L192.895 263.193C193.046 263.392 193.238 263.619 193.47 263.875C193.702 264.135 194.019 264.36 194.422 264.55C194.829 264.744 195.361 264.841 196.02 264.841C196.9 264.841 197.627 264.628 198.2 264.202C198.773 263.776 199.059 263.108 199.059 262.199V259.983H198.917C198.794 260.182 198.619 260.428 198.392 260.722C198.169 261.01 197.847 261.268 197.426 261.496C197.009 261.718 196.446 261.83 195.735 261.83C194.855 261.83 194.064 261.621 193.363 261.205C192.667 260.788 192.116 260.182 191.708 259.386C191.306 258.591 191.105 257.625 191.105 256.489C191.105 255.371 191.301 254.398 191.694 253.57C192.087 252.736 192.634 252.092 193.335 251.638C194.036 251.179 194.845 250.949 195.764 250.949C196.474 250.949 197.038 251.067 197.454 251.304C197.876 251.536 198.198 251.801 198.42 252.099C198.647 252.393 198.823 252.634 198.946 252.824H199.116V251.091H200.735V262.312C200.735 263.25 200.522 264.012 200.096 264.599C199.675 265.191 199.107 265.625 198.392 265.899C197.681 266.179 196.891 266.318 196.02 266.318ZM195.963 260.324C196.635 260.324 197.203 260.17 197.667 259.862C198.131 259.554 198.484 259.112 198.725 258.534C198.967 257.956 199.088 257.265 199.088 256.46C199.088 255.674 198.969 254.981 198.733 254.379C198.496 253.778 198.145 253.307 197.681 252.966C197.217 252.625 196.645 252.455 195.963 252.455C195.252 252.455 194.661 252.634 194.187 252.994C193.718 253.354 193.366 253.837 193.129 254.443C192.897 255.049 192.781 255.722 192.781 256.46C192.781 257.218 192.899 257.888 193.136 258.47C193.377 259.048 193.733 259.502 194.201 259.834C194.675 260.161 195.262 260.324 195.963 260.324ZM208.377 262.227C207.326 262.227 206.42 261.995 205.657 261.531C204.9 261.062 204.315 260.409 203.903 259.571C203.496 258.728 203.292 257.748 203.292 256.631C203.292 255.513 203.496 254.528 203.903 253.676C204.315 252.819 204.888 252.152 205.622 251.673C206.36 251.19 207.222 250.949 208.207 250.949C208.775 250.949 209.336 251.044 209.89 251.233C210.444 251.422 210.949 251.73 211.403 252.156C211.858 252.578 212.22 253.136 212.49 253.832C212.76 254.528 212.895 255.385 212.895 256.403V257.114H204.485V255.665H211.19C211.19 255.049 211.067 254.5 210.821 254.017C210.579 253.534 210.234 253.153 209.784 252.874C209.339 252.594 208.813 252.455 208.207 252.455C207.539 252.455 206.962 252.62 206.474 252.952C205.991 253.278 205.619 253.705 205.359 254.23C205.099 254.756 204.968 255.319 204.968 255.92V256.886C204.968 257.71 205.11 258.409 205.395 258.982C205.683 259.55 206.083 259.983 206.595 260.281C207.106 260.575 207.7 260.722 208.377 260.722C208.818 260.722 209.216 260.66 209.571 260.537C209.931 260.409 210.241 260.22 210.501 259.969C210.761 259.713 210.963 259.396 211.105 259.017L212.724 259.472C212.554 260.021 212.267 260.504 211.865 260.92C211.462 261.332 210.965 261.654 210.373 261.886C209.781 262.114 209.116 262.227 208.377 262.227ZM215.444 262V251.091H217.064V252.795H217.206C217.433 252.213 217.8 251.761 218.306 251.439C218.813 251.112 219.422 250.949 220.132 250.949C220.851 250.949 221.45 251.112 221.929 251.439C222.412 251.761 222.788 252.213 223.058 252.795H223.172C223.451 252.232 223.87 251.785 224.429 251.453C224.987 251.117 225.657 250.949 226.439 250.949C227.414 250.949 228.212 251.254 228.832 251.865C229.452 252.471 229.762 253.416 229.762 254.699V262H228.086V254.699C228.086 253.894 227.866 253.319 227.426 252.973C226.985 252.627 226.467 252.455 225.87 252.455C225.103 252.455 224.509 252.687 224.088 253.151C223.666 253.61 223.456 254.192 223.456 254.898V262H221.751V254.528C221.751 253.908 221.55 253.409 221.147 253.03C220.745 252.646 220.226 252.455 219.592 252.455C219.156 252.455 218.749 252.571 218.37 252.803C217.996 253.035 217.693 253.357 217.461 253.768C217.234 254.176 217.12 254.647 217.12 255.182V262H215.444ZM237.401 262.227C236.35 262.227 235.443 261.995 234.681 261.531C233.923 261.062 233.338 260.409 232.926 259.571C232.519 258.728 232.316 257.748 232.316 256.631C232.316 255.513 232.519 254.528 232.926 253.676C233.338 252.819 233.911 252.152 234.645 251.673C235.384 251.19 236.246 250.949 237.23 250.949C237.799 250.949 238.36 251.044 238.914 251.233C239.468 251.422 239.972 251.73 240.426 252.156C240.881 252.578 241.243 253.136 241.513 253.832C241.783 254.528 241.918 255.385 241.918 256.403V257.114H233.509V255.665H240.213C240.213 255.049 240.09 254.5 239.844 254.017C239.603 253.534 239.257 253.153 238.807 252.874C238.362 252.594 237.837 252.455 237.23 252.455C236.563 252.455 235.985 252.62 235.498 252.952C235.015 253.278 234.643 253.705 234.382 254.23C234.122 254.756 233.992 255.319 233.992 255.92V256.886C233.992 257.71 234.134 258.409 234.418 258.982C234.707 259.55 235.107 259.983 235.618 260.281C236.13 260.575 236.724 260.722 237.401 260.722C237.841 260.722 238.239 260.66 238.594 260.537C238.954 260.409 239.264 260.22 239.525 259.969C239.785 259.713 239.986 259.396 240.128 259.017L241.748 259.472C241.577 260.021 241.291 260.504 240.888 260.92C240.486 261.332 239.989 261.654 239.397 261.886C238.805 262.114 238.14 262.227 237.401 262.227ZM246.144 255.438V262H244.468V251.091H246.087V252.795H246.229C246.485 252.241 246.873 251.796 247.394 251.46C247.915 251.119 248.587 250.949 249.411 250.949C250.15 250.949 250.796 251.1 251.35 251.403C251.904 251.702 252.335 252.156 252.642 252.767C252.95 253.373 253.104 254.14 253.104 255.068V262H251.428V255.182C251.428 254.325 251.205 253.657 250.76 253.179C250.315 252.696 249.704 252.455 248.928 252.455C248.393 252.455 247.915 252.571 247.493 252.803C247.077 253.035 246.748 253.373 246.506 253.818C246.265 254.263 246.144 254.803 246.144 255.438ZM260.911 251.091V252.511H255.258V251.091H260.911ZM256.906 248.477H258.582V258.875C258.582 259.348 258.65 259.704 258.788 259.94C258.93 260.172 259.11 260.329 259.327 260.409C259.55 260.485 259.784 260.523 260.031 260.523C260.215 260.523 260.367 260.513 260.485 260.494C260.603 260.471 260.698 260.452 260.769 260.438L261.11 261.943C260.996 261.986 260.838 262.028 260.634 262.071C260.431 262.118 260.173 262.142 259.86 262.142C259.387 262.142 258.923 262.04 258.468 261.837C258.018 261.633 257.644 261.323 257.346 260.906C257.052 260.49 256.906 259.964 256.906 259.33V248.477Z" fill="black"/>
<path d="M100.716 325.091C100.631 324.371 100.285 323.812 99.679 323.415C99.0729 323.017 98.3295 322.818 97.4489 322.818C96.8049 322.818 96.2415 322.922 95.7585 323.131C95.2803 323.339 94.9063 323.625 94.6364 323.99C94.3712 324.355 94.2386 324.769 94.2386 325.233C94.2386 325.621 94.331 325.955 94.5156 326.234C94.705 326.509 94.9465 326.739 95.2401 326.923C95.5336 327.103 95.8414 327.252 96.1634 327.371C96.4853 327.484 96.7812 327.577 97.0511 327.648L98.5284 328.045C98.9072 328.145 99.3286 328.282 99.7926 328.457C100.261 328.633 100.709 328.872 101.135 329.175C101.566 329.473 101.921 329.857 102.2 330.325C102.48 330.794 102.619 331.369 102.619 332.051C102.619 332.837 102.413 333.547 102.001 334.182C101.594 334.816 100.998 335.321 100.212 335.695C99.4304 336.069 98.4811 336.256 97.3636 336.256C96.322 336.256 95.42 336.088 94.6577 335.751C93.9001 335.415 93.3035 334.946 92.8679 334.345C92.437 333.744 92.1932 333.045 92.1364 332.25H93.9545C94.0019 332.799 94.1866 333.254 94.5085 333.614C94.8352 333.969 95.2472 334.234 95.7443 334.409C96.2462 334.58 96.786 334.665 97.3636 334.665C98.036 334.665 98.6397 334.556 99.1747 334.338C99.7098 334.116 100.134 333.808 100.446 333.415C100.759 333.017 100.915 332.553 100.915 332.023C100.915 331.54 100.78 331.147 100.51 330.844C100.24 330.541 99.8849 330.295 99.4446 330.105C99.0043 329.916 98.5284 329.75 98.017 329.608L96.2273 329.097C95.0909 328.77 94.1913 328.304 93.5284 327.697C92.8655 327.091 92.5341 326.298 92.5341 325.318C92.5341 324.504 92.7543 323.794 93.1946 323.188C93.6397 322.577 94.2363 322.103 94.9844 321.767C95.7372 321.426 96.5777 321.256 97.5057 321.256C98.4432 321.256 99.2765 321.424 100.006 321.76C100.735 322.091 101.313 322.546 101.739 323.124C102.17 323.701 102.397 324.357 102.42 325.091H100.716ZM105.288 340.091V325.091H106.907V326.824H107.106C107.229 326.634 107.4 326.393 107.618 326.099C107.84 325.801 108.157 325.536 108.569 325.304C108.986 325.067 109.549 324.949 110.26 324.949C111.178 324.949 111.988 325.179 112.689 325.638C113.389 326.097 113.936 326.748 114.329 327.591C114.722 328.434 114.919 329.428 114.919 330.574C114.919 331.729 114.722 332.731 114.329 333.578C113.936 334.421 113.392 335.074 112.696 335.538C112 335.998 111.197 336.227 110.288 336.227C109.587 336.227 109.026 336.111 108.605 335.879C108.183 335.643 107.859 335.375 107.632 335.077C107.404 334.774 107.229 334.523 107.106 334.324H106.964V340.091H105.288ZM106.936 330.545C106.936 331.369 107.056 332.096 107.298 332.726C107.539 333.351 107.892 333.841 108.356 334.196C108.82 334.546 109.388 334.722 110.061 334.722C110.761 334.722 111.346 334.537 111.815 334.168C112.288 333.794 112.644 333.292 112.88 332.662C113.122 332.027 113.243 331.322 113.243 330.545C113.243 329.778 113.124 329.087 112.887 328.472C112.655 327.851 112.303 327.361 111.829 327.001C111.36 326.637 110.771 326.455 110.061 326.455C109.379 326.455 108.806 326.627 108.342 326.973C107.878 327.314 107.528 327.792 107.291 328.408C107.054 329.018 106.936 329.731 106.936 330.545ZM121.907 336.227C120.922 336.227 120.058 335.993 119.315 335.524C118.576 335.055 117.999 334.4 117.582 333.557C117.17 332.714 116.964 331.729 116.964 330.602C116.964 329.466 117.17 328.474 117.582 327.626C117.999 326.779 118.576 326.121 119.315 325.652C120.058 325.183 120.922 324.949 121.907 324.949C122.892 324.949 123.754 325.183 124.493 325.652C125.236 326.121 125.814 326.779 126.225 327.626C126.642 328.474 126.85 329.466 126.85 330.602C126.85 331.729 126.642 332.714 126.225 333.557C125.814 334.4 125.236 335.055 124.493 335.524C123.754 335.993 122.892 336.227 121.907 336.227ZM121.907 334.722C122.655 334.722 123.271 334.53 123.754 334.146C124.237 333.763 124.594 333.259 124.826 332.634C125.058 332.009 125.174 331.331 125.174 330.602C125.174 329.873 125.058 329.194 124.826 328.564C124.594 327.934 124.237 327.425 123.754 327.037C123.271 326.649 122.655 326.455 121.907 326.455C121.159 326.455 120.544 326.649 120.061 327.037C119.578 327.425 119.22 327.934 118.988 328.564C118.756 329.194 118.64 329.873 118.64 330.602C118.64 331.331 118.756 332.009 118.988 332.634C119.22 333.259 119.578 333.763 120.061 334.146C120.544 334.53 121.159 334.722 121.907 334.722ZM129.409 336V325.091H131.028V326.739H131.142C131.341 326.199 131.701 325.761 132.222 325.425C132.742 325.089 133.33 324.92 133.983 324.92C134.106 324.92 134.26 324.923 134.445 324.928C134.629 324.932 134.769 324.939 134.864 324.949V326.653C134.807 326.639 134.677 326.618 134.473 326.589C134.274 326.556 134.063 326.54 133.841 326.54C133.311 326.54 132.837 326.651 132.42 326.874C132.009 327.091 131.682 327.394 131.44 327.783C131.204 328.166 131.085 328.604 131.085 329.097V336H129.409ZM142.278 325.091V326.511H136.625V325.091H142.278ZM138.273 322.477H139.949V332.875C139.949 333.348 140.018 333.704 140.155 333.94C140.297 334.172 140.477 334.329 140.695 334.409C140.917 334.485 141.152 334.523 141.398 334.523C141.582 334.523 141.734 334.513 141.852 334.494C141.971 334.471 142.065 334.452 142.136 334.438L142.477 335.943C142.364 335.986 142.205 336.028 142.001 336.071C141.798 336.118 141.54 336.142 141.227 336.142C140.754 336.142 140.29 336.04 139.835 335.837C139.385 335.633 139.011 335.323 138.713 334.906C138.42 334.49 138.273 333.964 138.273 333.33V322.477ZM152.332 327.534L150.826 327.96C150.731 327.709 150.592 327.465 150.407 327.229C150.227 326.987 149.981 326.788 149.668 326.632C149.356 326.476 148.956 326.398 148.468 326.398C147.8 326.398 147.244 326.552 146.799 326.859C146.359 327.162 146.138 327.548 146.138 328.017C146.138 328.434 146.29 328.763 146.593 329.004C146.896 329.246 147.37 329.447 148.013 329.608L149.633 330.006C150.608 330.242 151.335 330.605 151.813 331.092C152.291 331.575 152.531 332.198 152.531 332.96C152.531 333.585 152.351 334.144 151.991 334.636C151.636 335.129 151.138 335.517 150.499 335.801C149.86 336.085 149.117 336.227 148.269 336.227C147.156 336.227 146.236 335.986 145.506 335.503C144.777 335.02 144.316 334.314 144.121 333.386L145.712 332.989C145.864 333.576 146.15 334.016 146.572 334.31C146.998 334.603 147.554 334.75 148.241 334.75C149.022 334.75 149.642 334.584 150.102 334.253C150.566 333.917 150.798 333.514 150.798 333.045C150.798 332.667 150.665 332.349 150.4 332.094C150.135 331.833 149.728 331.639 149.178 331.511L147.36 331.085C146.361 330.848 145.627 330.482 145.158 329.984C144.694 329.482 144.462 328.855 144.462 328.102C144.462 327.487 144.635 326.942 144.981 326.469C145.331 325.995 145.807 325.624 146.408 325.354C147.014 325.084 147.701 324.949 148.468 324.949C149.548 324.949 150.395 325.186 151.011 325.659C151.631 326.133 152.071 326.758 152.332 327.534ZM164.798 336.199C163.842 336.199 163.018 336.024 162.326 335.673C161.635 335.323 161.102 334.842 160.728 334.232C160.354 333.621 160.167 332.922 160.167 332.136C160.167 331.53 160.295 330.993 160.551 330.524C160.811 330.051 161.169 329.613 161.623 329.21C162.083 328.803 162.61 328.396 163.207 327.989L165.309 326.426C165.721 326.156 166.05 325.867 166.297 325.56C166.547 325.252 166.673 324.849 166.673 324.352C166.673 323.983 166.51 323.625 166.183 323.28C165.861 322.934 165.437 322.761 164.912 322.761C164.542 322.761 164.216 322.856 163.931 323.045C163.652 323.23 163.432 323.467 163.271 323.756C163.115 324.04 163.037 324.333 163.037 324.636C163.037 324.977 163.129 325.323 163.314 325.673C163.503 326.019 163.742 326.374 164.031 326.739C164.324 327.098 164.627 327.468 164.94 327.847L171.616 336H169.599L164.088 329.352C163.576 328.737 163.112 328.178 162.696 327.676C162.279 327.174 161.948 326.679 161.701 326.192C161.455 325.704 161.332 325.176 161.332 324.608C161.332 323.955 161.476 323.382 161.765 322.889C162.059 322.392 162.468 322.006 162.994 321.732C163.524 321.452 164.145 321.312 164.855 321.312C165.584 321.312 166.211 321.455 166.737 321.739C167.262 322.018 167.667 322.39 167.951 322.854C168.235 323.313 168.377 323.812 168.377 324.352C168.377 325.048 168.205 325.652 167.859 326.163C167.513 326.675 167.042 327.151 166.446 327.591L163.548 329.75C162.895 330.233 162.452 330.702 162.22 331.156C161.988 331.611 161.872 331.937 161.872 332.136C161.872 332.591 161.99 333.015 162.227 333.408C162.464 333.801 162.797 334.118 163.228 334.359C163.659 334.601 164.163 334.722 164.741 334.722C165.29 334.722 165.825 334.606 166.346 334.374C166.867 334.137 167.338 333.796 167.76 333.351C168.186 332.906 168.522 332.371 168.768 331.746C169.019 331.121 169.145 330.418 169.145 329.636H170.764C170.764 330.602 170.653 331.391 170.43 332.001C170.208 332.612 169.957 333.09 169.677 333.436C169.398 333.782 169.173 334.04 169.002 334.21C168.946 334.281 168.894 334.352 168.846 334.423C168.799 334.494 168.747 334.565 168.69 334.636C168.221 335.162 167.629 335.555 166.914 335.815C166.199 336.071 165.494 336.199 164.798 336.199ZM179.92 336H178.074L183.415 321.455H185.233L190.574 336H188.727L184.381 323.756H184.267L179.92 336ZM180.602 330.318H188.045V331.881H180.602V330.318ZM197.044 336.227C196.021 336.227 195.141 335.986 194.402 335.503C193.663 335.02 193.095 334.355 192.697 333.507C192.3 332.66 192.101 331.691 192.101 330.602C192.101 329.494 192.304 328.517 192.712 327.669C193.124 326.817 193.696 326.152 194.43 325.673C195.169 325.19 196.031 324.949 197.016 324.949C197.783 324.949 198.474 325.091 199.089 325.375C199.705 325.659 200.209 326.057 200.602 326.568C200.995 327.08 201.239 327.676 201.334 328.358H199.658C199.53 327.861 199.246 327.42 198.805 327.037C198.37 326.649 197.783 326.455 197.044 326.455C196.391 326.455 195.818 326.625 195.325 326.966C194.838 327.302 194.456 327.778 194.182 328.393C193.912 329.004 193.777 329.722 193.777 330.545C193.777 331.388 193.91 332.122 194.175 332.747C194.445 333.372 194.823 333.857 195.311 334.203C195.804 334.549 196.381 334.722 197.044 334.722C197.48 334.722 197.875 334.646 198.23 334.494C198.585 334.343 198.886 334.125 199.132 333.841C199.378 333.557 199.554 333.216 199.658 332.818H201.334C201.239 333.462 201.005 334.042 200.631 334.558C200.261 335.07 199.771 335.477 199.161 335.78C198.554 336.078 197.849 336.227 197.044 336.227ZM208.528 325.091V326.511H202.875V325.091H208.528ZM204.523 322.477H206.199V332.875C206.199 333.348 206.268 333.704 206.405 333.94C206.547 334.172 206.727 334.329 206.945 334.409C207.167 334.485 207.402 334.523 207.648 334.523C207.832 334.523 207.984 334.513 208.102 334.494C208.221 334.471 208.315 334.452 208.386 334.438L208.727 335.943C208.614 335.986 208.455 336.028 208.251 336.071C208.048 336.118 207.79 336.142 207.477 336.142C207.004 336.142 206.54 336.04 206.085 335.837C205.635 335.633 205.261 335.323 204.963 334.906C204.67 334.49 204.523 333.964 204.523 333.33V322.477ZM211.05 336V325.091H212.726V336H211.05ZM211.902 323.273C211.575 323.273 211.294 323.161 211.057 322.939C210.825 322.716 210.709 322.449 210.709 322.136C210.709 321.824 210.825 321.556 211.057 321.334C211.294 321.111 211.575 321 211.902 321C212.229 321 212.508 321.111 212.74 321.334C212.977 321.556 213.095 321.824 213.095 322.136C213.095 322.449 212.977 322.716 212.74 322.939C212.508 323.161 212.229 323.273 211.902 323.273ZM224.716 325.091L220.682 336H218.978L214.944 325.091H216.762L219.773 333.784H219.887L222.898 325.091H224.716ZM226.929 336V325.091H228.605V336H226.929ZM227.781 323.273C227.454 323.273 227.172 323.161 226.936 322.939C226.704 322.716 226.588 322.449 226.588 322.136C226.588 321.824 226.704 321.556 226.936 321.334C227.172 321.111 227.454 321 227.781 321C228.108 321 228.387 321.111 228.619 321.334C228.856 321.556 228.974 321.824 228.974 322.136C228.974 322.449 228.856 322.716 228.619 322.939C228.387 323.161 228.108 323.273 227.781 323.273ZM236.419 325.091V326.511H230.766V325.091H236.419ZM232.413 322.477H234.089V332.875C234.089 333.348 234.158 333.704 234.295 333.94C234.438 334.172 234.617 334.329 234.835 334.409C235.058 334.485 235.292 334.523 235.538 334.523C235.723 334.523 235.875 334.513 235.993 334.494C236.111 334.471 236.206 334.452 236.277 334.438L236.618 335.943C236.504 335.986 236.346 336.028 236.142 336.071C235.938 336.118 235.68 336.142 235.368 336.142C234.894 336.142 234.43 336.04 233.976 335.837C233.526 335.633 233.152 335.323 232.854 334.906C232.56 334.49 232.413 333.964 232.413 333.33V322.477ZM238.94 336V325.091H240.616V336H238.94ZM239.793 323.273C239.466 323.273 239.184 323.161 238.947 322.939C238.715 322.716 238.599 322.449 238.599 322.136C238.599 321.824 238.715 321.556 238.947 321.334C239.184 321.111 239.466 321 239.793 321C240.119 321 240.399 321.111 240.631 321.334C240.867 321.556 240.986 321.824 240.986 322.136C240.986 322.449 240.867 322.716 240.631 322.939C240.399 323.161 240.119 323.273 239.793 323.273ZM248.26 336.227C247.209 336.227 246.302 335.995 245.54 335.531C244.783 335.062 244.198 334.409 243.786 333.571C243.379 332.728 243.175 331.748 243.175 330.631C243.175 329.513 243.379 328.528 243.786 327.676C244.198 326.819 244.771 326.152 245.505 325.673C246.243 325.19 247.105 324.949 248.09 324.949C248.658 324.949 249.219 325.044 249.773 325.233C250.327 325.422 250.831 325.73 251.286 326.156C251.74 326.578 252.103 327.136 252.373 327.832C252.642 328.528 252.777 329.385 252.777 330.403V331.114H244.368V329.665H251.073C251.073 329.049 250.95 328.5 250.703 328.017C250.462 327.534 250.116 327.153 249.667 326.874C249.221 326.594 248.696 326.455 248.09 326.455C247.422 326.455 246.845 326.62 246.357 326.952C245.874 327.278 245.502 327.705 245.242 328.23C244.981 328.756 244.851 329.319 244.851 329.92V330.886C244.851 331.71 244.993 332.409 245.277 332.982C245.566 333.55 245.966 333.983 246.478 334.281C246.989 334.575 247.583 334.722 248.26 334.722C248.701 334.722 249.098 334.66 249.453 334.537C249.813 334.409 250.123 334.22 250.384 333.969C250.644 333.713 250.846 333.396 250.988 333.017L252.607 333.472C252.436 334.021 252.15 334.504 251.748 334.92C251.345 335.332 250.848 335.654 250.256 335.886C249.664 336.114 248.999 336.227 248.26 336.227ZM263.054 327.534L261.549 327.96C261.454 327.709 261.314 327.465 261.13 327.229C260.95 326.987 260.703 326.788 260.391 326.632C260.078 326.476 259.678 326.398 259.191 326.398C258.523 326.398 257.967 326.552 257.522 326.859C257.081 327.162 256.861 327.548 256.861 328.017C256.861 328.434 257.013 328.763 257.316 329.004C257.619 329.246 258.092 329.447 258.736 329.608L260.355 330.006C261.331 330.242 262.058 330.605 262.536 331.092C263.014 331.575 263.253 332.198 263.253 332.96C263.253 333.585 263.073 334.144 262.713 334.636C262.358 335.129 261.861 335.517 261.222 335.801C260.583 336.085 259.839 336.227 258.992 336.227C257.879 336.227 256.958 335.986 256.229 335.503C255.5 335.02 255.038 334.314 254.844 333.386L256.435 332.989C256.587 333.576 256.873 334.016 257.294 334.31C257.721 334.603 258.277 334.75 258.963 334.75C259.745 334.75 260.365 334.584 260.824 334.253C261.288 333.917 261.52 333.514 261.52 333.045C261.52 332.667 261.388 332.349 261.123 332.094C260.857 331.833 260.45 331.639 259.901 331.511L258.083 331.085C257.084 330.848 256.35 330.482 255.881 329.984C255.417 329.482 255.185 328.855 255.185 328.102C255.185 327.487 255.358 326.942 255.703 326.469C256.054 325.995 256.53 325.624 257.131 325.354C257.737 325.084 258.424 324.949 259.191 324.949C260.27 324.949 261.118 325.186 261.733 325.659C262.354 326.133 262.794 326.758 263.054 327.534Z" fill="black"/>
<path d="M104.466 400H102.705C102.6 399.493 102.418 399.048 102.158 398.665C101.902 398.281 101.589 397.959 101.22 397.699C100.856 397.434 100.451 397.235 100.006 397.102C99.5606 396.97 99.0966 396.903 98.6136 396.903C97.733 396.903 96.9351 397.126 96.2202 397.571C95.5099 398.016 94.9441 398.672 94.5227 399.538C94.1061 400.405 93.8977 401.468 93.8977 402.727C93.8977 403.987 94.1061 405.05 94.5227 405.916C94.9441 406.783 95.5099 407.438 96.2202 407.884C96.9351 408.329 97.733 408.551 98.6136 408.551C99.0966 408.551 99.5606 408.485 100.006 408.352C100.451 408.22 100.856 408.023 101.22 407.763C101.589 407.498 101.902 407.173 102.158 406.79C102.418 406.402 102.6 405.956 102.705 405.455H104.466C104.333 406.198 104.092 406.863 103.741 407.45C103.391 408.037 102.955 408.537 102.435 408.949C101.914 409.356 101.329 409.666 100.68 409.879C100.036 410.092 99.3475 410.199 98.6136 410.199C97.3731 410.199 96.2699 409.896 95.304 409.29C94.3381 408.684 93.5781 407.822 93.0241 406.705C92.4702 405.587 92.1932 404.261 92.1932 402.727C92.1932 401.193 92.4702 399.867 93.0241 398.75C93.5781 397.633 94.3381 396.771 95.304 396.165C96.2699 395.559 97.3731 395.256 98.6136 395.256C99.3475 395.256 100.036 395.362 100.68 395.575C101.329 395.788 101.914 396.101 102.435 396.513C102.955 396.92 103.391 397.417 103.741 398.004C104.092 398.587 104.333 399.252 104.466 400ZM110.295 410.256C109.604 410.256 108.976 410.125 108.413 409.865C107.85 409.6 107.402 409.219 107.071 408.722C106.739 408.22 106.574 407.614 106.574 406.903C106.574 406.278 106.697 405.772 106.943 405.384C107.189 404.991 107.518 404.683 107.93 404.46C108.342 404.238 108.797 404.072 109.294 403.963C109.796 403.849 110.3 403.759 110.806 403.693C111.469 403.608 112.007 403.544 112.419 403.501C112.835 403.454 113.138 403.376 113.328 403.267C113.522 403.158 113.619 402.969 113.619 402.699V402.642C113.619 401.941 113.427 401.397 113.044 401.009C112.665 400.62 112.09 400.426 111.318 400.426C110.518 400.426 109.89 400.601 109.436 400.952C108.981 401.302 108.662 401.676 108.477 402.074L106.886 401.506C107.17 400.843 107.549 400.327 108.022 399.957C108.501 399.583 109.021 399.323 109.585 399.176C110.153 399.025 110.712 398.949 111.261 398.949C111.611 398.949 112.014 398.991 112.468 399.077C112.928 399.157 113.37 399.325 113.797 399.581C114.227 399.837 114.585 400.223 114.869 400.739C115.153 401.255 115.295 401.946 115.295 402.812V410H113.619V408.523H113.534C113.42 408.759 113.231 409.013 112.966 409.283C112.7 409.553 112.348 409.782 111.907 409.972C111.467 410.161 110.93 410.256 110.295 410.256ZM110.551 408.75C111.214 408.75 111.772 408.62 112.227 408.359C112.686 408.099 113.032 407.763 113.264 407.351C113.501 406.939 113.619 406.506 113.619 406.051V404.517C113.548 404.602 113.392 404.68 113.15 404.751C112.913 404.818 112.639 404.877 112.326 404.929C112.019 404.976 111.718 405.019 111.424 405.057C111.136 405.09 110.901 405.118 110.721 405.142C110.286 405.199 109.878 405.291 109.5 405.419C109.126 405.542 108.823 405.729 108.591 405.98C108.363 406.226 108.25 406.562 108.25 406.989C108.25 407.571 108.465 408.011 108.896 408.31C109.332 408.603 109.883 408.75 110.551 408.75ZM118.354 410V399.091H119.974V400.739H120.087C120.286 400.199 120.646 399.761 121.167 399.425C121.688 399.089 122.275 398.92 122.928 398.92C123.051 398.92 123.205 398.923 123.39 398.928C123.575 398.932 123.714 398.939 123.809 398.949V400.653C123.752 400.639 123.622 400.618 123.418 400.589C123.219 400.556 123.009 400.54 122.786 400.54C122.256 400.54 121.782 400.651 121.366 400.874C120.954 401.091 120.627 401.394 120.386 401.783C120.149 402.166 120.031 402.604 120.031 403.097V410H118.354ZM130.038 410.227C128.987 410.227 128.08 409.995 127.317 409.531C126.56 409.062 125.975 408.409 125.563 407.571C125.156 406.728 124.952 405.748 124.952 404.631C124.952 403.513 125.156 402.528 125.563 401.676C125.975 400.819 126.548 400.152 127.282 399.673C128.021 399.19 128.882 398.949 129.867 398.949C130.435 398.949 130.996 399.044 131.55 399.233C132.104 399.422 132.609 399.73 133.063 400.156C133.518 400.578 133.88 401.136 134.15 401.832C134.42 402.528 134.555 403.385 134.555 404.403V405.114H126.146V403.665H132.85C132.85 403.049 132.727 402.5 132.481 402.017C132.239 401.534 131.894 401.153 131.444 400.874C130.999 400.594 130.473 400.455 129.867 400.455C129.2 400.455 128.622 400.62 128.134 400.952C127.651 401.278 127.28 401.705 127.019 402.23C126.759 402.756 126.629 403.319 126.629 403.92V404.886C126.629 405.71 126.771 406.409 127.055 406.982C127.344 407.55 127.744 407.983 128.255 408.281C128.766 408.575 129.361 408.722 130.038 408.722C130.478 408.722 130.876 408.66 131.231 408.537C131.591 408.409 131.901 408.22 132.161 407.969C132.422 407.713 132.623 407.396 132.765 407.017L134.384 407.472C134.214 408.021 133.927 408.504 133.525 408.92C133.122 409.332 132.625 409.654 132.033 409.886C131.442 410.114 130.776 410.227 130.038 410.227ZM141.678 410.227C140.627 410.227 139.72 409.995 138.958 409.531C138.201 409.062 137.616 408.409 137.204 407.571C136.797 406.728 136.593 405.748 136.593 404.631C136.593 403.513 136.797 402.528 137.204 401.676C137.616 400.819 138.189 400.152 138.923 399.673C139.661 399.19 140.523 398.949 141.508 398.949C142.076 398.949 142.637 399.044 143.191 399.233C143.745 399.422 144.249 399.73 144.704 400.156C145.158 400.578 145.521 401.136 145.79 401.832C146.06 402.528 146.195 403.385 146.195 404.403V405.114H137.786V403.665H144.491C144.491 403.049 144.368 402.5 144.121 402.017C143.88 401.534 143.534 401.153 143.085 400.874C142.639 400.594 142.114 400.455 141.508 400.455C140.84 400.455 140.263 400.62 139.775 400.952C139.292 401.278 138.92 401.705 138.66 402.23C138.399 402.756 138.269 403.319 138.269 403.92V404.886C138.269 405.71 138.411 406.409 138.695 406.982C138.984 407.55 139.384 407.983 139.896 408.281C140.407 408.575 141.001 408.722 141.678 408.722C142.119 408.722 142.516 408.66 142.871 408.537C143.231 408.409 143.541 408.22 143.802 407.969C144.062 407.713 144.263 407.396 144.406 407.017L146.025 407.472C145.854 408.021 145.568 408.504 145.165 408.92C144.763 409.332 144.266 409.654 143.674 409.886C143.082 410.114 142.417 410.227 141.678 410.227ZM148.745 410V399.091H150.364V400.739H150.478C150.677 400.199 151.037 399.761 151.558 399.425C152.078 399.089 152.665 398.92 153.319 398.92C153.442 398.92 153.596 398.923 153.781 398.928C153.965 398.932 154.105 398.939 154.2 398.949V400.653C154.143 400.639 154.013 400.618 153.809 400.589C153.61 400.556 153.399 400.54 153.177 400.54C152.647 400.54 152.173 400.651 151.756 400.874C151.344 401.091 151.018 401.394 150.776 401.783C150.54 402.166 150.421 402.604 150.421 403.097V410H148.745ZM166.527 410H162.039V395.455H166.726C168.137 395.455 169.345 395.746 170.348 396.328C171.352 396.906 172.122 397.737 172.657 398.821C173.192 399.901 173.459 401.193 173.459 402.699C173.459 404.214 173.189 405.518 172.65 406.612C172.11 407.701 171.324 408.539 170.292 409.126C169.259 409.709 168.005 410 166.527 410ZM163.8 408.438H166.414C167.616 408.438 168.613 408.205 169.404 407.741C170.194 407.277 170.784 406.617 171.172 405.76C171.56 404.903 171.755 403.883 171.755 402.699C171.755 401.525 171.563 400.514 171.179 399.666C170.796 398.814 170.223 398.161 169.461 397.706C168.698 397.247 167.749 397.017 166.613 397.017H163.8V408.438ZM180.76 410.227C179.709 410.227 178.802 409.995 178.04 409.531C177.283 409.062 176.698 408.409 176.286 407.571C175.879 406.728 175.675 405.748 175.675 404.631C175.675 403.513 175.879 402.528 176.286 401.676C176.698 400.819 177.271 400.152 178.005 399.673C178.743 399.19 179.605 398.949 180.59 398.949C181.158 398.949 181.719 399.044 182.273 399.233C182.827 399.422 183.331 399.73 183.786 400.156C184.24 400.578 184.603 401.136 184.873 401.832C185.142 402.528 185.277 403.385 185.277 404.403V405.114H176.868V403.665H183.573C183.573 403.049 183.45 402.5 183.203 402.017C182.962 401.534 182.616 401.153 182.167 400.874C181.721 400.594 181.196 400.455 180.59 400.455C179.922 400.455 179.345 400.62 178.857 400.952C178.374 401.278 178.002 401.705 177.742 402.23C177.481 402.756 177.351 403.319 177.351 403.92V404.886C177.351 405.71 177.493 406.409 177.777 406.982C178.066 407.55 178.466 407.983 178.978 408.281C179.489 408.575 180.083 408.722 180.76 408.722C181.201 408.722 181.598 408.66 181.953 408.537C182.313 408.409 182.623 408.22 182.884 407.969C183.144 407.713 183.346 407.396 183.488 407.017L185.107 407.472C184.936 408.021 184.65 408.504 184.248 408.92C183.845 409.332 183.348 409.654 182.756 409.886C182.164 410.114 181.499 410.227 180.76 410.227ZM196.415 399.091L192.381 410H190.677L186.643 399.091H188.461L191.472 407.784H191.586L194.597 399.091H196.415ZM202.811 410.227C201.76 410.227 200.853 409.995 200.091 409.531C199.333 409.062 198.749 408.409 198.337 407.571C197.929 406.728 197.726 405.748 197.726 404.631C197.726 403.513 197.929 402.528 198.337 401.676C198.749 400.819 199.321 400.152 200.055 399.673C200.794 399.19 201.656 398.949 202.641 398.949C203.209 398.949 203.77 399.044 204.324 399.233C204.878 399.422 205.382 399.73 205.837 400.156C206.291 400.578 206.653 401.136 206.923 401.832C207.193 402.528 207.328 403.385 207.328 404.403V405.114H198.919V403.665H205.624C205.624 403.049 205.5 402.5 205.254 402.017C205.013 401.534 204.667 401.153 204.217 400.874C203.772 400.594 203.247 400.455 202.641 400.455C201.973 400.455 201.395 400.62 200.908 400.952C200.425 401.278 200.053 401.705 199.793 402.23C199.532 402.756 199.402 403.319 199.402 403.92V404.886C199.402 405.71 199.544 406.409 199.828 406.982C200.117 407.55 200.517 407.983 201.028 408.281C201.54 408.575 202.134 408.722 202.811 408.722C203.251 408.722 203.649 408.66 204.004 408.537C204.364 408.409 204.674 408.22 204.935 407.969C205.195 407.713 205.396 407.396 205.538 407.017L207.158 407.472C206.987 408.021 206.701 408.504 206.298 408.92C205.896 409.332 205.399 409.654 204.807 409.886C204.215 410.114 203.55 410.227 202.811 410.227ZM211.554 395.455V410H209.878V395.455H211.554ZM219.056 410.227C218.071 410.227 217.207 409.993 216.463 409.524C215.725 409.055 215.147 408.4 214.73 407.557C214.319 406.714 214.113 405.729 214.113 404.602C214.113 403.466 214.319 402.474 214.73 401.626C215.147 400.779 215.725 400.121 216.463 399.652C217.207 399.183 218.071 398.949 219.056 398.949C220.041 398.949 220.902 399.183 221.641 399.652C222.384 400.121 222.962 400.779 223.374 401.626C223.791 402.474 223.999 403.466 223.999 404.602C223.999 405.729 223.791 406.714 223.374 407.557C222.962 408.4 222.384 409.055 221.641 409.524C220.902 409.993 220.041 410.227 219.056 410.227ZM219.056 408.722C219.804 408.722 220.419 408.53 220.902 408.146C221.385 407.763 221.743 407.259 221.975 406.634C222.207 406.009 222.323 405.331 222.323 404.602C222.323 403.873 222.207 403.194 221.975 402.564C221.743 401.934 221.385 401.425 220.902 401.037C220.419 400.649 219.804 400.455 219.056 400.455C218.308 400.455 217.692 400.649 217.209 401.037C216.726 401.425 216.369 401.934 216.137 402.564C215.905 403.194 215.789 403.873 215.789 404.602C215.789 405.331 215.905 406.009 216.137 406.634C216.369 407.259 216.726 407.763 217.209 408.146C217.692 408.53 218.308 408.722 219.056 408.722ZM226.558 414.091V399.091H228.177V400.824H228.376C228.499 400.634 228.669 400.393 228.887 400.099C229.11 399.801 229.427 399.536 229.839 399.304C230.255 399.067 230.819 398.949 231.529 398.949C232.448 398.949 233.257 399.179 233.958 399.638C234.659 400.097 235.206 400.748 235.599 401.591C235.992 402.434 236.188 403.428 236.188 404.574C236.188 405.729 235.992 406.731 235.599 407.578C235.206 408.421 234.661 409.074 233.965 409.538C233.269 409.998 232.467 410.227 231.558 410.227C230.857 410.227 230.296 410.111 229.874 409.879C229.453 409.643 229.129 409.375 228.901 409.077C228.674 408.774 228.499 408.523 228.376 408.324H228.234V414.091H226.558ZM228.205 404.545C228.205 405.369 228.326 406.096 228.567 406.726C228.809 407.351 229.162 407.841 229.626 408.196C230.09 408.546 230.658 408.722 231.33 408.722C232.031 408.722 232.616 408.537 233.085 408.168C233.558 407.794 233.913 407.292 234.15 406.662C234.391 406.027 234.512 405.322 234.512 404.545C234.512 403.778 234.394 403.087 234.157 402.472C233.925 401.851 233.572 401.361 233.099 401.001C232.63 400.637 232.04 400.455 231.33 400.455C230.648 400.455 230.076 400.627 229.612 400.973C229.147 401.314 228.797 401.792 228.56 402.408C228.324 403.018 228.205 403.731 228.205 404.545ZM238.745 410V399.091H240.364V400.795H240.506C240.734 400.213 241.101 399.761 241.607 399.439C242.114 399.112 242.722 398.949 243.433 398.949C244.152 398.949 244.751 399.112 245.229 399.439C245.712 399.761 246.089 400.213 246.359 400.795H246.472C246.752 400.232 247.171 399.785 247.729 399.453C248.288 399.117 248.958 398.949 249.739 398.949C250.715 398.949 251.513 399.254 252.133 399.865C252.753 400.471 253.063 401.416 253.063 402.699V410H251.387V402.699C251.387 401.894 251.167 401.319 250.727 400.973C250.286 400.627 249.768 400.455 249.171 400.455C248.404 400.455 247.81 400.687 247.388 401.151C246.967 401.61 246.756 402.192 246.756 402.898V410H245.052V402.528C245.052 401.908 244.851 401.409 244.448 401.03C244.046 400.646 243.527 400.455 242.893 400.455C242.457 400.455 242.05 400.571 241.671 400.803C241.297 401.035 240.994 401.357 240.762 401.768C240.535 402.176 240.421 402.647 240.421 403.182V410H238.745ZM260.702 410.227C259.651 410.227 258.744 409.995 257.982 409.531C257.224 409.062 256.639 408.409 256.227 407.571C255.82 406.728 255.616 405.748 255.616 404.631C255.616 403.513 255.82 402.528 256.227 401.676C256.639 400.819 257.212 400.152 257.946 399.673C258.685 399.19 259.546 398.949 260.531 398.949C261.099 398.949 261.661 399.044 262.214 399.233C262.768 399.422 263.273 399.73 263.727 400.156C264.182 400.578 264.544 401.136 264.814 401.832C265.084 402.528 265.219 403.385 265.219 404.403V405.114H256.81V403.665H263.514C263.514 403.049 263.391 402.5 263.145 402.017C262.903 401.534 262.558 401.153 262.108 400.874C261.663 400.594 261.137 400.455 260.531 400.455C259.864 400.455 259.286 400.62 258.798 400.952C258.315 401.278 257.944 401.705 257.683 402.23C257.423 402.756 257.293 403.319 257.293 403.92V404.886C257.293 405.71 257.435 406.409 257.719 406.982C258.008 407.55 258.408 407.983 258.919 408.281C259.43 408.575 260.025 408.722 260.702 408.722C261.142 408.722 261.54 408.66 261.895 408.537C262.255 408.409 262.565 408.22 262.825 407.969C263.086 407.713 263.287 407.396 263.429 407.017L265.048 407.472C264.878 408.021 264.591 408.504 264.189 408.92C263.786 409.332 263.289 409.654 262.697 409.886C262.106 410.114 261.44 410.227 260.702 410.227ZM269.445 403.438V410H267.768V399.091H269.388V400.795H269.53C269.786 400.241 270.174 399.796 270.695 399.46C271.215 399.119 271.888 398.949 272.712 398.949C273.45 398.949 274.097 399.1 274.651 399.403C275.205 399.702 275.635 400.156 275.943 400.767C276.251 401.373 276.405 402.14 276.405 403.068V410H274.729V403.182C274.729 402.325 274.506 401.657 274.061 401.179C273.616 400.696 273.005 400.455 272.229 400.455C271.694 400.455 271.215 400.571 270.794 400.803C270.377 401.035 270.048 401.373 269.807 401.818C269.565 402.263 269.445 402.803 269.445 403.438ZM284.212 399.091V400.511H278.559V399.091H284.212ZM280.206 396.477H281.882V406.875C281.882 407.348 281.951 407.704 282.088 407.94C282.23 408.172 282.41 408.329 282.628 408.409C282.851 408.485 283.085 408.523 283.331 408.523C283.516 408.523 283.667 408.513 283.786 408.494C283.904 408.471 283.999 408.452 284.07 408.438L284.411 409.943C284.297 409.986 284.139 410.028 283.935 410.071C283.731 410.118 283.473 410.142 283.161 410.142C282.687 410.142 282.223 410.04 281.769 409.837C281.319 409.633 280.945 409.323 280.647 408.906C280.353 408.49 280.206 407.964 280.206 407.33V396.477Z" fill="black"/>
<defs>
<radialGradient id="paint0_radial_54_10" cx="0" cy="0" r="1" gradientUnits="userSpaceOnUse" gradientTransform="translate(73.5122 276.28) rotate(127.54) scale(66.4875)">
<stop stop-color="white"/>
<stop offset="1" stop-color="#B90000"/>
</radialGradient>
<radialGradient id="paint1_radial_54_10" cx="0" cy="0" r="1" gradientUnits="userSpaceOnUse" gradientTransform="translate(73.5122 350.28) rotate(127.54) scale(66.4875)">
<stop stop-color="white"/>
<stop offset="1" stop-color="#9F00BC"/>
</radialGradient>
<radialGradient id="paint2_radial_54_10" cx="0" cy="0" r="1" gradientUnits="userSpaceOnUse" gradientTransform="translate(73.5122 -19.7195) rotate(127.54) scale(66.4875)">
<stop stop-color="white"/>
<stop offset="1" stop-color="#00889C"/>
</radialGradient>
<radialGradient id="paint3_radial_54_10" cx="0" cy="0" r="1" gradientUnits="userSpaceOnUse" gradientTransform="translate(73.5122 54.2805) rotate(127.54) scale(66.4875)">
<stop stop-color="white"/>
<stop offset="1" stop-color="#B88700"/>
</radialGradient>
<radialGradient id="paint4_radial_54_10" cx="0" cy="0" r="1" gradientUnits="userSpaceOnUse" gradientTransform="translate(73.5122 128.28) rotate(127.54) scale(66.4875)">
<stop stop-color="white"/>
<stop offset="1" stop-color="#008F0A"/>
</radialGradient>
<radialGradient id="paint5_radial_54_10" cx="0" cy="0" r="1" gradientUnits="userSpaceOnUse" gradientTransform="translate(73.5122 202.28) rotate(127.54) scale(66.4875)">
<stop stop-color="white"/>
<stop offset="1" stop-color="#001F8F"/>
</radialGradient>
</defs>
</svg>
