<svg width="171" height="66" viewBox="0 0 171 66" fill="none" xmlns="http://www.w3.org/2000/svg">
<circle cx="33" cy="33" r="33" fill="url(#paint0_radial_59_4)"/>
<path d="M83.1136 23.5455H85.6364L91.5682 38.0341H91.7727L97.7045 23.5455H100.227V41H98.25V27.7386H98.0795L92.625 41H90.7159L85.2614 27.7386H85.0909V41H83.1136V23.5455ZM109.511 41.2727C108.329 41.2727 107.292 40.9915 106.4 40.429C105.513 39.8665 104.82 39.0795 104.32 38.0682C103.826 37.0568 103.579 35.875 103.579 34.5227C103.579 33.1591 103.826 31.9687 104.32 30.9517C104.82 29.9347 105.513 29.1449 106.4 28.5824C107.292 28.0199 108.329 27.7386 109.511 27.7386C110.692 27.7386 111.727 28.0199 112.613 28.5824C113.505 29.1449 114.198 29.9347 114.692 30.9517C115.192 31.9687 115.442 33.1591 115.442 34.5227C115.442 35.875 115.192 37.0568 114.692 38.0682C114.198 39.0795 113.505 39.8665 112.613 40.429C111.727 40.9915 110.692 41.2727 109.511 41.2727ZM109.511 39.4659C110.408 39.4659 111.147 39.2358 111.727 38.7756C112.306 38.3153 112.735 37.7102 113.013 36.9602C113.292 36.2102 113.431 35.3977 113.431 34.5227C113.431 33.6477 113.292 32.8324 113.013 32.0767C112.735 31.321 112.306 30.7102 111.727 30.2443C111.147 29.7784 110.408 29.5455 109.511 29.5455C108.613 29.5455 107.874 29.7784 107.295 30.2443C106.715 30.7102 106.286 31.321 106.008 32.0767C105.729 32.8324 105.59 33.6477 105.59 34.5227C105.59 35.3977 105.729 36.2102 106.008 36.9602C106.286 37.7102 106.715 38.3153 107.295 38.7756C107.874 39.2358 108.613 39.4659 109.511 39.4659ZM118.786 41V23.5455H120.797V29.9886H120.967C121.115 29.7614 121.32 29.4716 121.581 29.1193C121.848 28.7614 122.229 28.4432 122.723 28.1648C123.223 27.8807 123.899 27.7386 124.751 27.7386C125.854 27.7386 126.825 28.0142 127.666 28.5653C128.507 29.1165 129.163 29.8977 129.635 30.9091C130.107 31.9205 130.342 33.1136 130.342 34.4886C130.342 35.875 130.107 37.0767 129.635 38.0938C129.163 39.1051 128.51 39.8892 127.675 40.446C126.839 40.9972 125.876 41.2727 124.786 41.2727C123.945 41.2727 123.271 41.1335 122.766 40.8551C122.26 40.571 121.871 40.25 121.598 39.892C121.325 39.5284 121.115 39.2273 120.967 38.9886H120.729V41H118.786ZM120.763 34.4545C120.763 35.4432 120.908 36.3153 121.197 37.071C121.487 37.821 121.911 38.4091 122.467 38.8352C123.024 39.2557 123.706 39.4659 124.513 39.4659C125.354 39.4659 126.055 39.2443 126.618 38.8011C127.186 38.3523 127.612 37.75 127.896 36.9943C128.186 36.233 128.331 35.3864 128.331 34.4545C128.331 33.5341 128.189 32.7045 127.905 31.9659C127.626 31.2216 127.203 30.6335 126.635 30.2017C126.072 29.7642 125.365 29.5455 124.513 29.5455C123.695 29.5455 123.007 29.7528 122.45 30.1676C121.893 30.5767 121.473 31.1506 121.189 31.8892C120.905 32.6222 120.763 33.4773 120.763 34.4545ZM133.419 41V27.9091H135.43V41H133.419ZM134.442 25.7273C134.05 25.7273 133.712 25.5938 133.428 25.3267C133.149 25.0597 133.01 24.7386 133.01 24.3636C133.01 23.9886 133.149 23.6676 133.428 23.4006C133.712 23.1335 134.05 23 134.442 23C134.834 23 135.169 23.1335 135.447 23.4006C135.732 23.6676 135.874 23.9886 135.874 24.3636C135.874 24.7386 135.732 25.0597 135.447 25.3267C135.169 25.5938 134.834 25.7273 134.442 25.7273ZM141.126 23.5455V41H139.114V23.5455H141.126ZM144.81 41V27.9091H146.821V41H144.81ZM145.832 25.7273C145.44 25.7273 145.102 25.5938 144.818 25.3267C144.54 25.0597 144.401 24.7386 144.401 24.3636C144.401 23.9886 144.54 23.6676 144.818 23.4006C145.102 23.1335 145.44 23 145.832 23C146.224 23 146.56 23.1335 146.838 23.4006C147.122 23.6676 147.264 23.9886 147.264 24.3636C147.264 24.7386 147.122 25.0597 146.838 25.3267C146.56 25.5938 146.224 25.7273 145.832 25.7273ZM156.198 27.9091V29.6136H149.414V27.9091H156.198ZM151.391 24.7727H153.403V37.25C153.403 37.8182 153.485 38.2443 153.65 38.5284C153.82 38.8068 154.036 38.9943 154.298 39.0909C154.565 39.1818 154.846 39.2273 155.141 39.2273C155.363 39.2273 155.545 39.2159 155.687 39.1932C155.829 39.1648 155.942 39.142 156.028 39.125L156.437 40.9318C156.3 40.983 156.11 41.0341 155.866 41.0852C155.621 41.142 155.312 41.1705 154.937 41.1705C154.369 41.1705 153.812 41.0483 153.266 40.804C152.727 40.5597 152.278 40.1875 151.92 39.6875C151.567 39.1875 151.391 38.5568 151.391 37.7955V24.7727ZM160.519 45.9091C160.178 45.9091 159.874 45.8807 159.607 45.8239C159.34 45.7727 159.156 45.7216 159.053 45.6705L159.565 43.8977C160.053 44.0227 160.485 44.0682 160.86 44.0341C161.235 44 161.567 43.8324 161.857 43.5312C162.153 43.2358 162.423 42.7557 162.667 42.0909L163.042 41.0682L158.201 27.9091H160.383L163.996 38.3409H164.133L167.746 27.9091H169.928L164.371 42.9091C164.121 43.5852 163.812 44.1449 163.442 44.5881C163.073 45.0369 162.644 45.3693 162.156 45.5852C161.673 45.8011 161.127 45.9091 160.519 45.9091Z" fill="black"/>
<path d="M81 45.7727H157.746V47.4091H81V45.7727ZM163.254 45.7727H170.746V47.4091H163.254V45.7727Z" fill="black"/>
<defs>
<radialGradient id="paint0_radial_59_4" cx="0" cy="0" r="1" gradientUnits="userSpaceOnUse" gradientTransform="translate(73.5122 -19.7195) rotate(127.54) scale(66.4875)">
<stop stop-color="white"/>
<stop offset="1" stop-color="#008F0A"/>
</radialGradient>
</defs>
</svg>
