<svg width="289" height="66" viewBox="0 0 289 66" fill="none" xmlns="http://www.w3.org/2000/svg">
<circle cx="33" cy="33" r="33" fill="url(#paint0_radial_59_6)"/>
<path d="M92.6591 27.9091C92.5568 27.0455 92.142 26.375 91.4148 25.8977C90.6875 25.4205 89.7955 25.1818 88.7386 25.1818C87.9659 25.1818 87.2898 25.3068 86.7102 25.5568C86.1364 25.8068 85.6875 26.1506 85.3636 26.5881C85.0455 27.0256 84.8864 27.5227 84.8864 28.0795C84.8864 28.5455 84.9972 28.946 85.2188 29.2812C85.446 29.6108 85.7358 29.8864 86.0881 30.108C86.4403 30.3239 86.8097 30.5028 87.196 30.6449C87.5824 30.7812 87.9375 30.892 88.2614 30.9773L90.0341 31.4545C90.4886 31.5739 90.9943 31.7386 91.5511 31.9489C92.1136 32.1591 92.6506 32.446 93.1619 32.8097C93.679 33.1676 94.1051 33.6278 94.4403 34.1903C94.7756 34.7528 94.9432 35.4432 94.9432 36.2614C94.9432 37.2045 94.696 38.0568 94.2017 38.8182C93.7131 39.5795 92.9972 40.1847 92.054 40.6335C91.1165 41.0824 89.9773 41.3068 88.6364 41.3068C87.3864 41.3068 86.304 41.1051 85.3892 40.7017C84.4801 40.2983 83.7642 39.7358 83.2415 39.0142C82.7244 38.2926 82.4318 37.4545 82.3636 36.5H84.5455C84.6023 37.1591 84.8239 37.7045 85.2102 38.1364C85.6023 38.5625 86.0966 38.8807 86.6932 39.0909C87.2955 39.2955 87.9432 39.3977 88.6364 39.3977C89.4432 39.3977 90.1676 39.267 90.8097 39.0057C91.4517 38.7386 91.9602 38.3693 92.3352 37.8977C92.7102 37.4205 92.8977 36.8636 92.8977 36.2273C92.8977 35.6477 92.7358 35.1761 92.4119 34.8125C92.0881 34.4489 91.6619 34.1534 91.1335 33.9261C90.6051 33.6989 90.0341 33.5 89.4205 33.3295L87.2727 32.7159C85.9091 32.3239 84.8295 31.7642 84.0341 31.0369C83.2386 30.3097 82.8409 29.358 82.8409 28.1818C82.8409 27.2045 83.1051 26.3523 83.6335 25.625C84.1676 24.892 84.8835 24.3239 85.7812 23.9205C86.6847 23.5114 87.6932 23.3068 88.8068 23.3068C89.9318 23.3068 90.9318 23.5085 91.8068 23.9119C92.6818 24.3097 93.375 24.8551 93.8864 25.5483C94.4034 26.2415 94.6761 27.0284 94.7045 27.9091H92.6591ZM98.1456 45.9091V27.9091H100.089V29.9886H100.327C100.475 29.7614 100.68 29.4716 100.941 29.1193C101.208 28.7614 101.589 28.4432 102.083 28.1648C102.583 27.8807 103.259 27.7386 104.112 27.7386C105.214 27.7386 106.185 28.0142 107.026 28.5653C107.867 29.1165 108.523 29.8977 108.995 30.9091C109.467 31.9205 109.702 33.1136 109.702 34.4886C109.702 35.875 109.467 37.0767 108.995 38.0938C108.523 39.1051 107.87 39.8892 107.035 40.446C106.2 40.9972 105.237 41.2727 104.146 41.2727C103.305 41.2727 102.631 41.1335 102.126 40.8551C101.62 40.571 101.231 40.25 100.958 39.892C100.685 39.5284 100.475 39.2273 100.327 38.9886H100.157V45.9091H98.1456ZM100.123 34.4545C100.123 35.4432 100.268 36.3153 100.558 37.071C100.847 37.821 101.271 38.4091 101.827 38.8352C102.384 39.2557 103.066 39.4659 103.873 39.4659C104.714 39.4659 105.415 39.2443 105.978 38.8011C106.546 38.3523 106.972 37.75 107.256 36.9943C107.546 36.233 107.691 35.3864 107.691 34.4545C107.691 33.5341 107.549 32.7045 107.265 31.9659C106.987 31.2216 106.563 30.6335 105.995 30.2017C105.433 29.7642 104.725 29.5455 103.873 29.5455C103.055 29.5455 102.367 29.7528 101.81 30.1676C101.254 30.5767 100.833 31.1506 100.549 31.8892C100.265 32.6222 100.123 33.4773 100.123 34.4545ZM118.089 41.2727C116.907 41.2727 115.87 40.9915 114.978 40.429C114.092 39.8665 113.398 39.0795 112.898 38.0682C112.404 37.0568 112.157 35.875 112.157 34.5227C112.157 33.1591 112.404 31.9687 112.898 30.9517C113.398 29.9347 114.092 29.1449 114.978 28.5824C115.87 28.0199 116.907 27.7386 118.089 27.7386C119.271 27.7386 120.305 28.0199 121.191 28.5824C122.083 29.1449 122.776 29.9347 123.271 30.9517C123.771 31.9687 124.021 33.1591 124.021 34.5227C124.021 35.875 123.771 37.0568 123.271 38.0682C122.776 39.0795 122.083 39.8665 121.191 40.429C120.305 40.9915 119.271 41.2727 118.089 41.2727ZM118.089 39.4659C118.987 39.4659 119.725 39.2358 120.305 38.7756C120.884 38.3153 121.313 37.7102 121.592 36.9602C121.87 36.2102 122.009 35.3977 122.009 34.5227C122.009 33.6477 121.87 32.8324 121.592 32.0767C121.313 31.321 120.884 30.7102 120.305 30.2443C119.725 29.7784 118.987 29.5455 118.089 29.5455C117.191 29.5455 116.452 29.7784 115.873 30.2443C115.293 30.7102 114.864 31.321 114.586 32.0767C114.308 32.8324 114.168 33.6477 114.168 34.5227C114.168 35.3977 114.308 36.2102 114.586 36.9602C114.864 37.7102 115.293 38.3153 115.873 38.7756C116.452 39.2358 117.191 39.4659 118.089 39.4659ZM127.091 41V27.9091H129.034V29.8864H129.17C129.409 29.2386 129.841 28.7131 130.466 28.3097C131.091 27.9062 131.795 27.7045 132.58 27.7045C132.727 27.7045 132.912 27.7074 133.134 27.7131C133.355 27.7187 133.523 27.7273 133.636 27.7386V29.7841C133.568 29.767 133.412 29.7415 133.168 29.7074C132.929 29.6676 132.676 29.6477 132.409 29.6477C131.773 29.6477 131.205 29.7812 130.705 30.0483C130.21 30.3097 129.818 30.6733 129.528 31.1392C129.244 31.5994 129.102 32.125 129.102 32.7159V41H127.091ZM142.534 27.9091V29.6136H135.75V27.9091H142.534ZM137.727 24.7727H139.739V37.25C139.739 37.8182 139.821 38.2443 139.986 38.5284C140.156 38.8068 140.372 38.9943 140.634 39.0909C140.901 39.1818 141.182 39.2273 141.477 39.2273C141.699 39.2273 141.881 39.2159 142.023 39.1932C142.165 39.1648 142.278 39.142 142.364 39.125L142.773 40.9318C142.636 40.983 142.446 41.0341 142.202 41.0852C141.957 41.142 141.648 41.1705 141.273 41.1705C140.705 41.1705 140.148 41.0483 139.602 40.804C139.063 40.5597 138.614 40.1875 138.256 39.6875C137.903 39.1875 137.727 38.5568 137.727 37.7955V24.7727ZM154.598 30.8409L152.791 31.3523C152.678 31.0511 152.51 30.7585 152.288 30.4744C152.072 30.1847 151.777 29.946 151.402 29.7585C151.027 29.571 150.547 29.4773 149.962 29.4773C149.161 29.4773 148.493 29.6619 147.959 30.0312C147.43 30.3949 147.166 30.858 147.166 31.4205C147.166 31.9205 147.348 32.3153 147.712 32.6051C148.075 32.8949 148.643 33.1364 149.416 33.3295L151.359 33.8068C152.53 34.0909 153.402 34.5256 153.976 35.1108C154.55 35.6903 154.837 36.4375 154.837 37.3523C154.837 38.1023 154.621 38.7727 154.189 39.3636C153.763 39.9545 153.166 40.4205 152.399 40.7614C151.632 41.1023 150.74 41.2727 149.723 41.2727C148.388 41.2727 147.283 40.983 146.408 40.4034C145.533 39.8239 144.979 38.9773 144.746 37.8636L146.655 37.3864C146.837 38.0909 147.18 38.6193 147.686 38.9716C148.197 39.3239 148.865 39.5 149.689 39.5C150.626 39.5 151.371 39.3011 151.922 38.9034C152.479 38.5 152.757 38.017 152.757 37.4545C152.757 37 152.598 36.6193 152.28 36.3125C151.962 36 151.473 35.767 150.814 35.6136L148.632 35.1023C147.433 34.8182 146.553 34.3778 145.99 33.7812C145.433 33.179 145.155 32.4261 145.155 31.5227C145.155 30.7841 145.362 30.1307 145.777 29.5625C146.197 28.9943 146.768 28.5483 147.49 28.2244C148.217 27.9006 149.041 27.7386 149.962 27.7386C151.257 27.7386 152.274 28.0227 153.013 28.5909C153.757 29.1591 154.286 29.9091 154.598 30.8409ZM169.558 41.2386C168.41 41.2386 167.421 41.0284 166.592 40.608C165.762 40.1875 165.123 39.6108 164.674 38.8778C164.225 38.1449 164.001 37.3068 164.001 36.3636C164.001 35.6364 164.154 34.9915 164.461 34.429C164.773 33.8608 165.202 33.3352 165.748 32.8523C166.299 32.3636 166.933 31.875 167.648 31.3864L170.171 29.5114C170.665 29.1875 171.06 28.8409 171.356 28.4716C171.657 28.1023 171.808 27.6193 171.808 27.0227C171.808 26.5795 171.612 26.1506 171.219 25.7358C170.833 25.321 170.325 25.1136 169.694 25.1136C169.251 25.1136 168.859 25.2273 168.518 25.4545C168.183 25.6761 167.918 25.9602 167.725 26.3068C167.538 26.6477 167.444 27 167.444 27.3636C167.444 27.7727 167.555 28.1875 167.776 28.608C168.004 29.0227 168.29 29.4489 168.637 29.8864C168.989 30.3182 169.353 30.7614 169.728 31.2159L177.739 41H175.319L168.705 33.0227C168.092 32.2841 167.535 31.6136 167.035 31.0114C166.535 30.4091 166.137 29.8153 165.842 29.2301C165.546 28.6449 165.398 28.0114 165.398 27.3295C165.398 26.5455 165.572 25.858 165.918 25.267C166.271 24.6705 166.762 24.2074 167.393 23.8778C168.029 23.5426 168.773 23.375 169.626 23.375C170.501 23.375 171.254 23.5455 171.884 23.8864C172.515 24.2216 173.001 24.6676 173.342 25.2244C173.683 25.7756 173.853 26.375 173.853 27.0227C173.853 27.858 173.646 28.5824 173.231 29.196C172.816 29.8097 172.251 30.3807 171.535 30.9091L168.058 33.5C167.273 34.0795 166.742 34.642 166.464 35.1875C166.185 35.733 166.046 36.125 166.046 36.3636C166.046 36.9091 166.188 37.4176 166.472 37.8892C166.756 38.3608 167.157 38.7415 167.674 39.0312C168.191 39.321 168.796 39.4659 169.489 39.4659C170.148 39.4659 170.79 39.3267 171.415 39.0483C172.04 38.7642 172.606 38.3551 173.112 37.821C173.623 37.2869 174.026 36.6449 174.322 35.8949C174.623 35.1449 174.773 34.3011 174.773 33.3636H176.717C176.717 34.5227 176.583 35.4687 176.316 36.2017C176.049 36.9347 175.748 37.5085 175.413 37.9233C175.077 38.3381 174.808 38.6477 174.603 38.8523C174.535 38.9375 174.472 39.0227 174.415 39.108C174.359 39.1932 174.296 39.2784 174.228 39.3636C173.665 39.9943 172.955 40.4659 172.097 40.7784C171.239 41.0852 170.393 41.2386 169.558 41.2386ZM187.705 41H185.489L191.898 23.5455H194.08L200.489 41H198.273L193.057 26.3068H192.92L187.705 41ZM188.523 34.1818H197.455V36.0568H188.523V34.1818ZM208.253 41.2727C207.026 41.2727 205.969 40.983 205.082 40.4034C204.196 39.8239 203.514 39.0256 203.037 38.0085C202.56 36.9915 202.321 35.8295 202.321 34.5227C202.321 33.1932 202.565 32.0199 203.054 31.0028C203.548 29.9801 204.236 29.1818 205.116 28.608C206.003 28.0284 207.037 27.7386 208.219 27.7386C209.139 27.7386 209.969 27.9091 210.707 28.25C211.446 28.5909 212.051 29.0682 212.523 29.6818C212.994 30.2955 213.287 31.0114 213.401 31.8295H211.389C211.236 31.233 210.895 30.7045 210.366 30.2443C209.844 29.7784 209.139 29.5455 208.253 29.5455C207.469 29.5455 206.781 29.75 206.19 30.1591C205.605 30.5625 205.148 31.1335 204.818 31.8722C204.494 32.6051 204.332 33.4659 204.332 34.4545C204.332 35.4659 204.491 36.3466 204.81 37.0966C205.134 37.8466 205.588 38.429 206.173 38.8438C206.764 39.2585 207.457 39.4659 208.253 39.4659C208.776 39.4659 209.25 39.375 209.676 39.1932C210.102 39.0114 210.463 38.75 210.759 38.4091C211.054 38.0682 211.264 37.6591 211.389 37.1818H213.401C213.287 37.9545 213.006 38.6506 212.557 39.2699C212.114 39.8835 211.526 40.3722 210.793 40.7358C210.065 41.0938 209.219 41.2727 208.253 41.2727ZM222.034 27.9091V29.6136H215.25V27.9091H222.034ZM217.227 24.7727H219.239V37.25C219.239 37.8182 219.321 38.2443 219.486 38.5284C219.656 38.8068 219.872 38.9943 220.134 39.0909C220.401 39.1818 220.682 39.2273 220.977 39.2273C221.199 39.2273 221.381 39.2159 221.523 39.1932C221.665 39.1648 221.778 39.142 221.864 39.125L222.273 40.9318C222.136 40.983 221.946 41.0341 221.702 41.0852C221.457 41.142 221.148 41.1705 220.773 41.1705C220.205 41.1705 219.648 41.0483 219.102 40.804C218.563 40.5597 218.114 40.1875 217.756 39.6875C217.403 39.1875 217.227 38.5568 217.227 37.7955V24.7727ZM225.06 41V27.9091H227.071V41H225.06ZM226.082 25.7273C225.69 25.7273 225.352 25.5938 225.068 25.3267C224.79 25.0597 224.651 24.7386 224.651 24.3636C224.651 23.9886 224.79 23.6676 225.068 23.4006C225.352 23.1335 225.69 23 226.082 23C226.474 23 226.81 23.1335 227.088 23.4006C227.372 23.6676 227.514 23.9886 227.514 24.3636C227.514 24.7386 227.372 25.0597 227.088 25.3267C226.81 25.5938 226.474 25.7273 226.082 25.7273ZM241.46 27.9091L236.619 41H234.573L229.732 27.9091H231.914L235.528 38.3409H235.664L239.278 27.9091H241.46ZM244.114 41V27.9091H246.126V41H244.114ZM245.137 25.7273C244.745 25.7273 244.407 25.5938 244.123 25.3267C243.844 25.0597 243.705 24.7386 243.705 24.3636C243.705 23.9886 243.844 23.6676 244.123 23.4006C244.407 23.1335 244.745 23 245.137 23C245.529 23 245.864 23.1335 246.143 23.4006C246.427 23.6676 246.569 23.9886 246.569 24.3636C246.569 24.7386 246.427 25.0597 246.143 25.3267C245.864 25.5938 245.529 25.7273 245.137 25.7273ZM255.503 27.9091V29.6136H248.719V27.9091H255.503ZM250.696 24.7727H252.707V37.25C252.707 37.8182 252.79 38.2443 252.955 38.5284C253.125 38.8068 253.341 38.9943 253.602 39.0909C253.869 39.1818 254.151 39.2273 254.446 39.2273C254.668 39.2273 254.849 39.2159 254.991 39.1932C255.134 39.1648 255.247 39.142 255.332 39.125L255.741 40.9318C255.605 40.983 255.415 41.0341 255.17 41.0852C254.926 41.142 254.616 41.1705 254.241 41.1705C253.673 41.1705 253.116 41.0483 252.571 40.804C252.031 40.5597 251.582 40.1875 251.224 39.6875C250.872 39.1875 250.696 38.5568 250.696 37.7955V24.7727ZM258.528 41V27.9091H260.54V41H258.528ZM259.551 25.7273C259.159 25.7273 258.821 25.5938 258.537 25.3267C258.259 25.0597 258.119 24.7386 258.119 24.3636C258.119 23.9886 258.259 23.6676 258.537 23.4006C258.821 23.1335 259.159 23 259.551 23C259.943 23 260.278 23.1335 260.557 23.4006C260.841 23.6676 260.983 23.9886 260.983 24.3636C260.983 24.7386 260.841 25.0597 260.557 25.3267C260.278 25.5938 259.943 25.7273 259.551 25.7273ZM269.712 41.2727C268.451 41.2727 267.363 40.9943 266.448 40.4375C265.539 39.875 264.837 39.0909 264.343 38.0852C263.854 37.0739 263.61 35.8977 263.61 34.5568C263.61 33.2159 263.854 32.0341 264.343 31.0114C264.837 29.983 265.525 29.1818 266.406 28.608C267.292 28.0284 268.326 27.7386 269.508 27.7386C270.19 27.7386 270.863 27.8523 271.528 28.0795C272.192 28.3068 272.798 28.6761 273.343 29.1875C273.888 29.6932 274.323 30.3636 274.647 31.1989C274.971 32.0341 275.133 33.0625 275.133 34.2841V35.1364H265.042V33.3977H273.087C273.087 32.6591 272.94 32 272.644 31.4205C272.354 30.8409 271.94 30.3835 271.4 30.0483C270.866 29.7131 270.235 29.5455 269.508 29.5455C268.707 29.5455 268.013 29.7443 267.428 30.142C266.849 30.5341 266.403 31.0455 266.09 31.6761C265.778 32.3068 265.621 32.983 265.621 33.7045V34.8636C265.621 35.8523 265.792 36.6903 266.133 37.3778C266.479 38.0597 266.96 38.5795 267.573 38.9375C268.187 39.2898 268.9 39.4659 269.712 39.4659C270.241 39.4659 270.718 39.392 271.144 39.2443C271.576 39.0909 271.948 38.8636 272.261 38.5625C272.573 38.2557 272.815 37.875 272.985 37.4205L274.928 37.9659C274.724 38.625 274.38 39.2045 273.897 39.7045C273.414 40.1989 272.817 40.5852 272.107 40.8636C271.397 41.1364 270.599 41.2727 269.712 41.2727ZM287.465 30.8409L285.658 31.3523C285.545 31.0511 285.377 30.7585 285.156 30.4744C284.94 30.1847 284.644 29.946 284.269 29.7585C283.894 29.571 283.414 29.4773 282.829 29.4773C282.028 29.4773 281.36 29.6619 280.826 30.0312C280.298 30.3949 280.033 30.858 280.033 31.4205C280.033 31.9205 280.215 32.3153 280.579 32.6051C280.942 32.8949 281.511 33.1364 282.283 33.3295L284.227 33.8068C285.397 34.0909 286.269 34.5256 286.843 35.1108C287.417 35.6903 287.704 36.4375 287.704 37.3523C287.704 38.1023 287.488 38.7727 287.056 39.3636C286.63 39.9545 286.033 40.4205 285.266 40.7614C284.499 41.1023 283.607 41.2727 282.59 41.2727C281.255 41.2727 280.15 40.983 279.275 40.4034C278.4 39.8239 277.846 38.9773 277.613 37.8636L279.522 37.3864C279.704 38.0909 280.048 38.6193 280.553 38.9716C281.065 39.3239 281.732 39.5 282.556 39.5C283.494 39.5 284.238 39.3011 284.789 38.9034C285.346 38.5 285.624 38.017 285.624 37.4545C285.624 37 285.465 36.6193 285.147 36.3125C284.829 36 284.34 35.767 283.681 35.6136L281.499 35.1023C280.3 34.8182 279.42 34.3778 278.857 33.7812C278.3 33.179 278.022 32.4261 278.022 31.5227C278.022 30.7841 278.229 30.1307 278.644 29.5625C279.065 28.9943 279.636 28.5483 280.357 28.2244C281.085 27.9006 281.908 27.7386 282.829 27.7386C284.124 27.7386 285.141 28.0227 285.88 28.5909C286.624 29.1591 287.153 29.9091 287.465 30.8409Z" fill="black"/>
<path d="M81 45.7727H96.5121V47.4091H81V45.7727ZM101.793 45.7727H288.897V47.4091H101.793V45.7727Z" fill="black"/>
<defs>
<radialGradient id="paint0_radial_59_6" cx="0" cy="0" r="1" gradientUnits="userSpaceOnUse" gradientTransform="translate(73.5122 -19.7195) rotate(127.54) scale(66.4875)">
<stop stop-color="white"/>
<stop offset="1" stop-color="#B90000"/>
</radialGradient>
</defs>
</svg>
